%TF.GenerationSoftware,KiCad,Pcbnew,9.0.3+dfsg-1*%
%TF.CreationDate,2026-03-11T10:20:49+01:00*%
%TF.ProjectId,CanSat,43616e53-6174-42e6-9b69-6361645f7063,v2.1.0*%
%TF.SameCoordinates,Original*%
%TF.FileFunction,Legend,Bot*%
%TF.FilePolarity,Positive*%
%FSLAX46Y46*%
G04 Gerber Fmt 4.6, Leading zero omitted, Abs format (unit mm)*
G04 Created by KiCad (PCBNEW 9.0.3+dfsg-1) date 2026-03-11 10:20:49*
%MOMM*%
%LPD*%
G01*
G04 APERTURE LIST*
G04 Aperture macros list*
%AMRoundRect*
0 Rectangle with rounded corners*
0 $1 Rounding radius*
0 $2 $3 $4 $5 $6 $7 $8 $9 X,Y pos of 4 corners*
0 Add a 4 corners polygon primitive as box body*
4,1,4,$2,$3,$4,$5,$6,$7,$8,$9,$2,$3,0*
0 Add four circle primitives for the rounded corners*
1,1,$1+$1,$2,$3*
1,1,$1+$1,$4,$5*
1,1,$1+$1,$6,$7*
1,1,$1+$1,$8,$9*
0 Add four rect primitives between the rounded corners*
20,1,$1+$1,$2,$3,$4,$5,0*
20,1,$1+$1,$4,$5,$6,$7,0*
20,1,$1+$1,$6,$7,$8,$9,0*
20,1,$1+$1,$8,$9,$2,$3,0*%
%AMHorizOval*
0 Thick line with rounded ends*
0 $1 width*
0 $2 $3 position (X,Y) of the first rounded end (center of the circle)*
0 $4 $5 position (X,Y) of the second rounded end (center of the circle)*
0 Add line between two ends*
20,1,$1,$2,$3,$4,$5,0*
0 Add two circle primitives to create the rounded ends*
1,1,$1,$2,$3*
1,1,$1,$4,$5*%
%AMRotRect*
0 Rectangle, with rotation*
0 The origin of the aperture is its center*
0 $1 length*
0 $2 width*
0 $3 Rotation angle, in degrees counterclockwise*
0 Add horizontal line*
21,1,$1,$2,0,0,$3*%
G04 Aperture macros list end*
%ADD10C,0.150000*%
%ADD11C,0.120000*%
%ADD12RotRect,0.850000X0.850000X40.000000*%
%ADD13C,0.850000*%
%ADD14C,2.200000*%
%ADD15C,0.650000*%
%ADD16HorizOval,0.650000X-0.106066X-0.106066X0.106066X0.106066X0*%
%ADD17HorizOval,0.800000X-0.212132X0.212132X0.212132X-0.212132X0*%
%ADD18R,0.850000X0.850000*%
%ADD19C,2.050000*%
%ADD20C,2.250000*%
%ADD21RotRect,0.850000X0.850000X45.000000*%
%ADD22RotRect,0.850000X0.850000X230.000000*%
%ADD23RoundRect,0.250000X0.262500X0.450000X-0.262500X0.450000X-0.262500X-0.450000X0.262500X-0.450000X0*%
%ADD24RoundRect,0.250000X-0.320000X-0.295000X0.320000X-0.295000X0.320000X0.295000X-0.320000X0.295000X0*%
%ADD25RoundRect,0.250000X-0.132583X0.503814X-0.503814X0.132583X0.132583X-0.503814X0.503814X-0.132583X0*%
%ADD26RoundRect,0.250000X0.092924X0.425194X-0.431334X0.058105X-0.092924X-0.425194X0.431334X-0.058105X0*%
%ADD27RoundRect,0.250000X-0.092924X-0.425194X0.431334X-0.058105X0.092924X0.425194X-0.431334X0.058105X0*%
%ADD28RoundRect,0.250000X0.295000X-0.320000X0.295000X0.320000X-0.295000X0.320000X-0.295000X-0.320000X0*%
%ADD29RoundRect,0.250000X-0.262500X-0.450000X0.262500X-0.450000X0.262500X0.450000X-0.262500X0.450000X0*%
%ADD30RoundRect,0.250000X0.017678X0.434871X-0.434871X-0.017678X-0.017678X-0.434871X0.434871X0.017678X0*%
%ADD31RotRect,3.000000X3.000000X130.000000*%
%ADD32C,3.000000*%
%ADD33RoundRect,0.150000X-0.625000X0.150000X-0.625000X-0.150000X0.625000X-0.150000X0.625000X0.150000X0*%
%ADD34RoundRect,0.250000X-0.650000X0.350000X-0.650000X-0.350000X0.650000X-0.350000X0.650000X0.350000X0*%
%ADD35RoundRect,0.317500X1.195048X0.111679X-1.084782X0.513674X-1.195048X-0.111679X1.084782X-0.513674X0*%
%ADD36RoundRect,0.225000X-0.106066X0.424264X-0.424264X0.106066X0.106066X-0.424264X0.424264X-0.106066X0*%
%ADD37RoundRect,0.075000X-0.075000X0.350000X-0.075000X-0.350000X0.075000X-0.350000X0.075000X0.350000X0*%
%ADD38RoundRect,0.075000X0.350000X0.075000X-0.350000X0.075000X-0.350000X-0.075000X0.350000X-0.075000X0*%
G04 APERTURE END LIST*
D10*
X105566666Y-72842319D02*
X105899999Y-72366128D01*
X106138094Y-72842319D02*
X106138094Y-71842319D01*
X106138094Y-71842319D02*
X105757142Y-71842319D01*
X105757142Y-71842319D02*
X105661904Y-71889938D01*
X105661904Y-71889938D02*
X105614285Y-71937557D01*
X105614285Y-71937557D02*
X105566666Y-72032795D01*
X105566666Y-72032795D02*
X105566666Y-72175652D01*
X105566666Y-72175652D02*
X105614285Y-72270890D01*
X105614285Y-72270890D02*
X105661904Y-72318509D01*
X105661904Y-72318509D02*
X105757142Y-72366128D01*
X105757142Y-72366128D02*
X106138094Y-72366128D01*
X105090475Y-72842319D02*
X104899999Y-72842319D01*
X104899999Y-72842319D02*
X104804761Y-72794700D01*
X104804761Y-72794700D02*
X104757142Y-72747080D01*
X104757142Y-72747080D02*
X104661904Y-72604223D01*
X104661904Y-72604223D02*
X104614285Y-72413747D01*
X104614285Y-72413747D02*
X104614285Y-72032795D01*
X104614285Y-72032795D02*
X104661904Y-71937557D01*
X104661904Y-71937557D02*
X104709523Y-71889938D01*
X104709523Y-71889938D02*
X104804761Y-71842319D01*
X104804761Y-71842319D02*
X104995237Y-71842319D01*
X104995237Y-71842319D02*
X105090475Y-71889938D01*
X105090475Y-71889938D02*
X105138094Y-71937557D01*
X105138094Y-71937557D02*
X105185713Y-72032795D01*
X105185713Y-72032795D02*
X105185713Y-72270890D01*
X105185713Y-72270890D02*
X105138094Y-72366128D01*
X105138094Y-72366128D02*
X105090475Y-72413747D01*
X105090475Y-72413747D02*
X104995237Y-72461366D01*
X104995237Y-72461366D02*
X104804761Y-72461366D01*
X104804761Y-72461366D02*
X104709523Y-72413747D01*
X104709523Y-72413747D02*
X104661904Y-72366128D01*
X104661904Y-72366128D02*
X104614285Y-72270890D01*
X122542857Y-65859580D02*
X122590476Y-65907200D01*
X122590476Y-65907200D02*
X122733333Y-65954819D01*
X122733333Y-65954819D02*
X122828571Y-65954819D01*
X122828571Y-65954819D02*
X122971428Y-65907200D01*
X122971428Y-65907200D02*
X123066666Y-65811961D01*
X123066666Y-65811961D02*
X123114285Y-65716723D01*
X123114285Y-65716723D02*
X123161904Y-65526247D01*
X123161904Y-65526247D02*
X123161904Y-65383390D01*
X123161904Y-65383390D02*
X123114285Y-65192914D01*
X123114285Y-65192914D02*
X123066666Y-65097676D01*
X123066666Y-65097676D02*
X122971428Y-65002438D01*
X122971428Y-65002438D02*
X122828571Y-64954819D01*
X122828571Y-64954819D02*
X122733333Y-64954819D01*
X122733333Y-64954819D02*
X122590476Y-65002438D01*
X122590476Y-65002438D02*
X122542857Y-65050057D01*
X121590476Y-65954819D02*
X122161904Y-65954819D01*
X121876190Y-65954819D02*
X121876190Y-64954819D01*
X121876190Y-64954819D02*
X121971428Y-65097676D01*
X121971428Y-65097676D02*
X122066666Y-65192914D01*
X122066666Y-65192914D02*
X122161904Y-65240533D01*
X120733333Y-64954819D02*
X120923809Y-64954819D01*
X120923809Y-64954819D02*
X121019047Y-65002438D01*
X121019047Y-65002438D02*
X121066666Y-65050057D01*
X121066666Y-65050057D02*
X121161904Y-65192914D01*
X121161904Y-65192914D02*
X121209523Y-65383390D01*
X121209523Y-65383390D02*
X121209523Y-65764342D01*
X121209523Y-65764342D02*
X121161904Y-65859580D01*
X121161904Y-65859580D02*
X121114285Y-65907200D01*
X121114285Y-65907200D02*
X121019047Y-65954819D01*
X121019047Y-65954819D02*
X120828571Y-65954819D01*
X120828571Y-65954819D02*
X120733333Y-65907200D01*
X120733333Y-65907200D02*
X120685714Y-65859580D01*
X120685714Y-65859580D02*
X120638095Y-65764342D01*
X120638095Y-65764342D02*
X120638095Y-65526247D01*
X120638095Y-65526247D02*
X120685714Y-65431009D01*
X120685714Y-65431009D02*
X120733333Y-65383390D01*
X120733333Y-65383390D02*
X120828571Y-65335771D01*
X120828571Y-65335771D02*
X121019047Y-65335771D01*
X121019047Y-65335771D02*
X121114285Y-65383390D01*
X121114285Y-65383390D02*
X121161904Y-65431009D01*
X121161904Y-65431009D02*
X121209523Y-65526247D01*
X123426174Y-84817037D02*
X123325159Y-84244618D01*
X123830235Y-84412976D02*
X123123128Y-83705870D01*
X123123128Y-83705870D02*
X122853754Y-83975244D01*
X122853754Y-83975244D02*
X122820082Y-84076259D01*
X122820082Y-84076259D02*
X122820082Y-84143602D01*
X122820082Y-84143602D02*
X122853754Y-84244618D01*
X122853754Y-84244618D02*
X122954769Y-84345633D01*
X122954769Y-84345633D02*
X123055785Y-84379305D01*
X123055785Y-84379305D02*
X123123128Y-84379305D01*
X123123128Y-84379305D02*
X123224143Y-84345633D01*
X123224143Y-84345633D02*
X123493517Y-84076259D01*
X122752739Y-85490472D02*
X123156800Y-85086411D01*
X122954769Y-85288442D02*
X122247663Y-84581335D01*
X122247663Y-84581335D02*
X122416021Y-84615007D01*
X122416021Y-84615007D02*
X122550708Y-84615007D01*
X122550708Y-84615007D02*
X122651724Y-84581335D01*
X121405869Y-85423129D02*
X121742586Y-85086411D01*
X121742586Y-85086411D02*
X122112975Y-85389457D01*
X122112975Y-85389457D02*
X122045632Y-85389457D01*
X122045632Y-85389457D02*
X121944617Y-85423129D01*
X121944617Y-85423129D02*
X121776258Y-85591488D01*
X121776258Y-85591488D02*
X121742586Y-85692503D01*
X121742586Y-85692503D02*
X121742586Y-85759847D01*
X121742586Y-85759847D02*
X121776258Y-85860862D01*
X121776258Y-85860862D02*
X121944617Y-86029221D01*
X121944617Y-86029221D02*
X122045632Y-86062892D01*
X122045632Y-86062892D02*
X122112975Y-86062892D01*
X122112975Y-86062892D02*
X122213991Y-86029221D01*
X122213991Y-86029221D02*
X122382349Y-85860862D01*
X122382349Y-85860862D02*
X122416021Y-85759847D01*
X122416021Y-85759847D02*
X122416021Y-85692503D01*
X115592772Y-91798955D02*
X115659092Y-91810649D01*
X115659092Y-91810649D02*
X115803427Y-91767717D01*
X115803427Y-91767717D02*
X115881441Y-91713091D01*
X115881441Y-91713091D02*
X115971150Y-91592144D01*
X115971150Y-91592144D02*
X115994538Y-91459503D01*
X115994538Y-91459503D02*
X115978919Y-91354175D01*
X115978919Y-91354175D02*
X115908674Y-91170833D01*
X115908674Y-91170833D02*
X115826734Y-91053812D01*
X115826734Y-91053812D02*
X115678474Y-90925096D01*
X115678474Y-90925096D02*
X115584841Y-90874395D01*
X115584841Y-90874395D02*
X115452200Y-90851006D01*
X115452200Y-90851006D02*
X115307865Y-90893939D01*
X115307865Y-90893939D02*
X115229850Y-90948565D01*
X115229850Y-90948565D02*
X115140142Y-91069512D01*
X115140142Y-91069512D02*
X115128448Y-91135832D01*
X114800771Y-91249010D02*
X114293677Y-91604081D01*
X114293677Y-91604081D02*
X114785233Y-91724947D01*
X114785233Y-91724947D02*
X114668211Y-91806886D01*
X114668211Y-91806886D02*
X114617510Y-91900520D01*
X114617510Y-91900520D02*
X114605816Y-91966840D01*
X114605816Y-91966840D02*
X114621435Y-92072168D01*
X114621435Y-92072168D02*
X114758000Y-92267204D01*
X114758000Y-92267204D02*
X114851634Y-92317905D01*
X114851634Y-92317905D02*
X114917954Y-92329599D01*
X114917954Y-92329599D02*
X115023282Y-92313980D01*
X115023282Y-92313980D02*
X115257326Y-92150101D01*
X115257326Y-92150101D02*
X115308027Y-92056468D01*
X115308027Y-92056468D02*
X115319721Y-91990147D01*
X111163727Y-85748955D02*
X111230047Y-85760649D01*
X111230047Y-85760649D02*
X111374382Y-85717717D01*
X111374382Y-85717717D02*
X111452396Y-85663091D01*
X111452396Y-85663091D02*
X111542105Y-85542144D01*
X111542105Y-85542144D02*
X111565493Y-85409503D01*
X111565493Y-85409503D02*
X111549874Y-85304175D01*
X111549874Y-85304175D02*
X111479629Y-85120833D01*
X111479629Y-85120833D02*
X111397689Y-85003812D01*
X111397689Y-85003812D02*
X111249429Y-84875096D01*
X111249429Y-84875096D02*
X111155796Y-84824395D01*
X111155796Y-84824395D02*
X111023155Y-84801006D01*
X111023155Y-84801006D02*
X110878820Y-84843939D01*
X110878820Y-84843939D02*
X110800805Y-84898565D01*
X110800805Y-84898565D02*
X110711097Y-85019512D01*
X110711097Y-85019512D02*
X110699403Y-85085832D01*
X110133838Y-85772505D02*
X110516223Y-86318607D01*
X110110369Y-85323881D02*
X110715103Y-85772424D01*
X110715103Y-85772424D02*
X110208009Y-86127495D01*
X121292772Y-89256198D02*
X121359092Y-89267892D01*
X121359092Y-89267892D02*
X121503427Y-89224960D01*
X121503427Y-89224960D02*
X121581441Y-89170334D01*
X121581441Y-89170334D02*
X121671150Y-89049387D01*
X121671150Y-89049387D02*
X121694538Y-88916746D01*
X121694538Y-88916746D02*
X121678919Y-88811418D01*
X121678919Y-88811418D02*
X121608674Y-88628076D01*
X121608674Y-88628076D02*
X121526734Y-88511055D01*
X121526734Y-88511055D02*
X121378474Y-88382339D01*
X121378474Y-88382339D02*
X121284841Y-88331638D01*
X121284841Y-88331638D02*
X121152200Y-88308249D01*
X121152200Y-88308249D02*
X121007865Y-88351182D01*
X121007865Y-88351182D02*
X120929850Y-88405808D01*
X120929850Y-88405808D02*
X120840142Y-88526755D01*
X120840142Y-88526755D02*
X120828448Y-88593075D01*
X120500771Y-88706253D02*
X119954669Y-89088637D01*
X119954669Y-89088637D02*
X120879311Y-89661971D01*
X88942857Y-72059580D02*
X88990476Y-72107200D01*
X88990476Y-72107200D02*
X89133333Y-72154819D01*
X89133333Y-72154819D02*
X89228571Y-72154819D01*
X89228571Y-72154819D02*
X89371428Y-72107200D01*
X89371428Y-72107200D02*
X89466666Y-72011961D01*
X89466666Y-72011961D02*
X89514285Y-71916723D01*
X89514285Y-71916723D02*
X89561904Y-71726247D01*
X89561904Y-71726247D02*
X89561904Y-71583390D01*
X89561904Y-71583390D02*
X89514285Y-71392914D01*
X89514285Y-71392914D02*
X89466666Y-71297676D01*
X89466666Y-71297676D02*
X89371428Y-71202438D01*
X89371428Y-71202438D02*
X89228571Y-71154819D01*
X89228571Y-71154819D02*
X89133333Y-71154819D01*
X89133333Y-71154819D02*
X88990476Y-71202438D01*
X88990476Y-71202438D02*
X88942857Y-71250057D01*
X87990476Y-72154819D02*
X88561904Y-72154819D01*
X88276190Y-72154819D02*
X88276190Y-71154819D01*
X88276190Y-71154819D02*
X88371428Y-71297676D01*
X88371428Y-71297676D02*
X88466666Y-71392914D01*
X88466666Y-71392914D02*
X88561904Y-71440533D01*
X87514285Y-72154819D02*
X87323809Y-72154819D01*
X87323809Y-72154819D02*
X87228571Y-72107200D01*
X87228571Y-72107200D02*
X87180952Y-72059580D01*
X87180952Y-72059580D02*
X87085714Y-71916723D01*
X87085714Y-71916723D02*
X87038095Y-71726247D01*
X87038095Y-71726247D02*
X87038095Y-71345295D01*
X87038095Y-71345295D02*
X87085714Y-71250057D01*
X87085714Y-71250057D02*
X87133333Y-71202438D01*
X87133333Y-71202438D02*
X87228571Y-71154819D01*
X87228571Y-71154819D02*
X87419047Y-71154819D01*
X87419047Y-71154819D02*
X87514285Y-71202438D01*
X87514285Y-71202438D02*
X87561904Y-71250057D01*
X87561904Y-71250057D02*
X87609523Y-71345295D01*
X87609523Y-71345295D02*
X87609523Y-71583390D01*
X87609523Y-71583390D02*
X87561904Y-71678628D01*
X87561904Y-71678628D02*
X87514285Y-71726247D01*
X87514285Y-71726247D02*
X87419047Y-71773866D01*
X87419047Y-71773866D02*
X87228571Y-71773866D01*
X87228571Y-71773866D02*
X87133333Y-71726247D01*
X87133333Y-71726247D02*
X87085714Y-71678628D01*
X87085714Y-71678628D02*
X87038095Y-71583390D01*
X122592857Y-67809580D02*
X122640476Y-67857200D01*
X122640476Y-67857200D02*
X122783333Y-67904819D01*
X122783333Y-67904819D02*
X122878571Y-67904819D01*
X122878571Y-67904819D02*
X123021428Y-67857200D01*
X123021428Y-67857200D02*
X123116666Y-67761961D01*
X123116666Y-67761961D02*
X123164285Y-67666723D01*
X123164285Y-67666723D02*
X123211904Y-67476247D01*
X123211904Y-67476247D02*
X123211904Y-67333390D01*
X123211904Y-67333390D02*
X123164285Y-67142914D01*
X123164285Y-67142914D02*
X123116666Y-67047676D01*
X123116666Y-67047676D02*
X123021428Y-66952438D01*
X123021428Y-66952438D02*
X122878571Y-66904819D01*
X122878571Y-66904819D02*
X122783333Y-66904819D01*
X122783333Y-66904819D02*
X122640476Y-66952438D01*
X122640476Y-66952438D02*
X122592857Y-67000057D01*
X121640476Y-67904819D02*
X122211904Y-67904819D01*
X121926190Y-67904819D02*
X121926190Y-66904819D01*
X121926190Y-66904819D02*
X122021428Y-67047676D01*
X122021428Y-67047676D02*
X122116666Y-67142914D01*
X122116666Y-67142914D02*
X122211904Y-67190533D01*
X121021428Y-66904819D02*
X120926190Y-66904819D01*
X120926190Y-66904819D02*
X120830952Y-66952438D01*
X120830952Y-66952438D02*
X120783333Y-67000057D01*
X120783333Y-67000057D02*
X120735714Y-67095295D01*
X120735714Y-67095295D02*
X120688095Y-67285771D01*
X120688095Y-67285771D02*
X120688095Y-67523866D01*
X120688095Y-67523866D02*
X120735714Y-67714342D01*
X120735714Y-67714342D02*
X120783333Y-67809580D01*
X120783333Y-67809580D02*
X120830952Y-67857200D01*
X120830952Y-67857200D02*
X120926190Y-67904819D01*
X120926190Y-67904819D02*
X121021428Y-67904819D01*
X121021428Y-67904819D02*
X121116666Y-67857200D01*
X121116666Y-67857200D02*
X121164285Y-67809580D01*
X121164285Y-67809580D02*
X121211904Y-67714342D01*
X121211904Y-67714342D02*
X121259523Y-67523866D01*
X121259523Y-67523866D02*
X121259523Y-67285771D01*
X121259523Y-67285771D02*
X121211904Y-67095295D01*
X121211904Y-67095295D02*
X121164285Y-67000057D01*
X121164285Y-67000057D02*
X121116666Y-66952438D01*
X121116666Y-66952438D02*
X121021428Y-66904819D01*
X108842772Y-89748955D02*
X108909092Y-89760649D01*
X108909092Y-89760649D02*
X109053427Y-89717717D01*
X109053427Y-89717717D02*
X109131441Y-89663091D01*
X109131441Y-89663091D02*
X109221150Y-89542144D01*
X109221150Y-89542144D02*
X109244538Y-89409503D01*
X109244538Y-89409503D02*
X109228919Y-89304175D01*
X109228919Y-89304175D02*
X109158674Y-89120833D01*
X109158674Y-89120833D02*
X109076734Y-89003812D01*
X109076734Y-89003812D02*
X108928474Y-88875096D01*
X108928474Y-88875096D02*
X108834841Y-88824395D01*
X108834841Y-88824395D02*
X108702200Y-88801006D01*
X108702200Y-88801006D02*
X108557865Y-88843939D01*
X108557865Y-88843939D02*
X108479850Y-88898565D01*
X108479850Y-88898565D02*
X108390142Y-89019512D01*
X108390142Y-89019512D02*
X108378448Y-89085832D01*
X108117253Y-90373233D02*
X108585340Y-90045475D01*
X108351297Y-90209354D02*
X107777720Y-89390202D01*
X107777720Y-89390202D02*
X107937674Y-89452597D01*
X107937674Y-89452597D02*
X108070315Y-89475985D01*
X108070315Y-89475985D02*
X108175643Y-89460366D01*
X113992772Y-85848955D02*
X114059092Y-85860649D01*
X114059092Y-85860649D02*
X114203427Y-85817717D01*
X114203427Y-85817717D02*
X114281441Y-85763091D01*
X114281441Y-85763091D02*
X114371150Y-85642144D01*
X114371150Y-85642144D02*
X114394538Y-85509503D01*
X114394538Y-85509503D02*
X114378919Y-85404175D01*
X114378919Y-85404175D02*
X114308674Y-85220833D01*
X114308674Y-85220833D02*
X114226734Y-85103812D01*
X114226734Y-85103812D02*
X114078474Y-84975096D01*
X114078474Y-84975096D02*
X113984841Y-84924395D01*
X113984841Y-84924395D02*
X113852200Y-84901006D01*
X113852200Y-84901006D02*
X113707865Y-84943939D01*
X113707865Y-84943939D02*
X113629850Y-84998565D01*
X113629850Y-84998565D02*
X113540142Y-85119512D01*
X113540142Y-85119512D02*
X113528448Y-85185832D01*
X112732684Y-85626768D02*
X113122756Y-85353636D01*
X113122756Y-85353636D02*
X113434895Y-85716395D01*
X113434895Y-85716395D02*
X113368575Y-85704701D01*
X113368575Y-85704701D02*
X113263247Y-85720320D01*
X113263247Y-85720320D02*
X113068211Y-85856886D01*
X113068211Y-85856886D02*
X113017510Y-85950520D01*
X113017510Y-85950520D02*
X113005816Y-86016840D01*
X113005816Y-86016840D02*
X113021435Y-86122168D01*
X113021435Y-86122168D02*
X113158000Y-86317204D01*
X113158000Y-86317204D02*
X113251634Y-86367905D01*
X113251634Y-86367905D02*
X113317954Y-86379599D01*
X113317954Y-86379599D02*
X113423282Y-86363980D01*
X113423282Y-86363980D02*
X113618318Y-86227414D01*
X113618318Y-86227414D02*
X113669020Y-86133781D01*
X113669020Y-86133781D02*
X113680714Y-86067460D01*
X126142857Y-81454819D02*
X126476190Y-80978628D01*
X126714285Y-81454819D02*
X126714285Y-80454819D01*
X126714285Y-80454819D02*
X126333333Y-80454819D01*
X126333333Y-80454819D02*
X126238095Y-80502438D01*
X126238095Y-80502438D02*
X126190476Y-80550057D01*
X126190476Y-80550057D02*
X126142857Y-80645295D01*
X126142857Y-80645295D02*
X126142857Y-80788152D01*
X126142857Y-80788152D02*
X126190476Y-80883390D01*
X126190476Y-80883390D02*
X126238095Y-80931009D01*
X126238095Y-80931009D02*
X126333333Y-80978628D01*
X126333333Y-80978628D02*
X126714285Y-80978628D01*
X125190476Y-81454819D02*
X125761904Y-81454819D01*
X125476190Y-81454819D02*
X125476190Y-80454819D01*
X125476190Y-80454819D02*
X125571428Y-80597676D01*
X125571428Y-80597676D02*
X125666666Y-80692914D01*
X125666666Y-80692914D02*
X125761904Y-80740533D01*
X124333333Y-80454819D02*
X124523809Y-80454819D01*
X124523809Y-80454819D02*
X124619047Y-80502438D01*
X124619047Y-80502438D02*
X124666666Y-80550057D01*
X124666666Y-80550057D02*
X124761904Y-80692914D01*
X124761904Y-80692914D02*
X124809523Y-80883390D01*
X124809523Y-80883390D02*
X124809523Y-81264342D01*
X124809523Y-81264342D02*
X124761904Y-81359580D01*
X124761904Y-81359580D02*
X124714285Y-81407200D01*
X124714285Y-81407200D02*
X124619047Y-81454819D01*
X124619047Y-81454819D02*
X124428571Y-81454819D01*
X124428571Y-81454819D02*
X124333333Y-81407200D01*
X124333333Y-81407200D02*
X124285714Y-81359580D01*
X124285714Y-81359580D02*
X124238095Y-81264342D01*
X124238095Y-81264342D02*
X124238095Y-81026247D01*
X124238095Y-81026247D02*
X124285714Y-80931009D01*
X124285714Y-80931009D02*
X124333333Y-80883390D01*
X124333333Y-80883390D02*
X124428571Y-80835771D01*
X124428571Y-80835771D02*
X124619047Y-80835771D01*
X124619047Y-80835771D02*
X124714285Y-80883390D01*
X124714285Y-80883390D02*
X124761904Y-80931009D01*
X124761904Y-80931009D02*
X124809523Y-81026247D01*
X110772112Y-71386411D02*
X110839456Y-71386411D01*
X110839456Y-71386411D02*
X110974143Y-71319067D01*
X110974143Y-71319067D02*
X111041486Y-71251724D01*
X111041486Y-71251724D02*
X111108830Y-71117037D01*
X111108830Y-71117037D02*
X111108830Y-70982350D01*
X111108830Y-70982350D02*
X111075158Y-70881335D01*
X111075158Y-70881335D02*
X110974143Y-70712976D01*
X110974143Y-70712976D02*
X110873128Y-70611961D01*
X110873128Y-70611961D02*
X110704769Y-70510945D01*
X110704769Y-70510945D02*
X110603754Y-70477274D01*
X110603754Y-70477274D02*
X110469067Y-70477274D01*
X110469067Y-70477274D02*
X110334380Y-70544617D01*
X110334380Y-70544617D02*
X110267036Y-70611961D01*
X110267036Y-70611961D02*
X110199693Y-70746648D01*
X110199693Y-70746648D02*
X110199693Y-70813991D01*
X110031334Y-71453754D02*
X110065006Y-71352739D01*
X110065006Y-71352739D02*
X110065006Y-71285396D01*
X110065006Y-71285396D02*
X110031334Y-71184380D01*
X110031334Y-71184380D02*
X109997662Y-71150709D01*
X109997662Y-71150709D02*
X109896647Y-71117037D01*
X109896647Y-71117037D02*
X109829303Y-71117037D01*
X109829303Y-71117037D02*
X109728288Y-71150709D01*
X109728288Y-71150709D02*
X109593601Y-71285396D01*
X109593601Y-71285396D02*
X109559929Y-71386411D01*
X109559929Y-71386411D02*
X109559929Y-71453754D01*
X109559929Y-71453754D02*
X109593601Y-71554770D01*
X109593601Y-71554770D02*
X109627273Y-71588441D01*
X109627273Y-71588441D02*
X109728288Y-71622113D01*
X109728288Y-71622113D02*
X109795632Y-71622113D01*
X109795632Y-71622113D02*
X109896647Y-71588441D01*
X109896647Y-71588441D02*
X110031334Y-71453754D01*
X110031334Y-71453754D02*
X110132349Y-71420083D01*
X110132349Y-71420083D02*
X110199693Y-71420083D01*
X110199693Y-71420083D02*
X110300708Y-71453754D01*
X110300708Y-71453754D02*
X110435395Y-71588441D01*
X110435395Y-71588441D02*
X110469067Y-71689457D01*
X110469067Y-71689457D02*
X110469067Y-71756800D01*
X110469067Y-71756800D02*
X110435395Y-71857815D01*
X110435395Y-71857815D02*
X110300708Y-71992502D01*
X110300708Y-71992502D02*
X110199693Y-72026174D01*
X110199693Y-72026174D02*
X110132349Y-72026174D01*
X110132349Y-72026174D02*
X110031334Y-71992502D01*
X110031334Y-71992502D02*
X109896647Y-71857815D01*
X109896647Y-71857815D02*
X109862975Y-71756800D01*
X109862975Y-71756800D02*
X109862975Y-71689457D01*
X109862975Y-71689457D02*
X109896647Y-71588441D01*
X89990720Y-78143798D02*
X89443545Y-78602932D01*
X89443545Y-78602932D02*
X89364719Y-78731237D01*
X89364719Y-78731237D02*
X89352981Y-78865412D01*
X89352981Y-78865412D02*
X89408329Y-79005456D01*
X89408329Y-79005456D02*
X89469547Y-79078412D01*
X89378541Y-77414232D02*
X89684630Y-77779015D01*
X89684630Y-77779015D02*
X89350456Y-78121583D01*
X89350456Y-78121583D02*
X89356326Y-78054495D01*
X89356326Y-78054495D02*
X89331586Y-77950930D01*
X89331586Y-77950930D02*
X89178541Y-77768538D01*
X89178541Y-77768538D02*
X89080845Y-77726191D01*
X89080845Y-77726191D02*
X89013758Y-77720321D01*
X89013758Y-77720321D02*
X88910193Y-77745061D01*
X88910193Y-77745061D02*
X88727801Y-77898105D01*
X88727801Y-77898105D02*
X88685453Y-77995802D01*
X88685453Y-77995802D02*
X88679584Y-78062889D01*
X88679584Y-78062889D02*
X88704323Y-78166454D01*
X88704323Y-78166454D02*
X88857368Y-78348846D01*
X88857368Y-78348846D02*
X88955064Y-78391194D01*
X88955064Y-78391194D02*
X89022152Y-78397063D01*
X102916666Y-82204819D02*
X103249999Y-81728628D01*
X103488094Y-82204819D02*
X103488094Y-81204819D01*
X103488094Y-81204819D02*
X103107142Y-81204819D01*
X103107142Y-81204819D02*
X103011904Y-81252438D01*
X103011904Y-81252438D02*
X102964285Y-81300057D01*
X102964285Y-81300057D02*
X102916666Y-81395295D01*
X102916666Y-81395295D02*
X102916666Y-81538152D01*
X102916666Y-81538152D02*
X102964285Y-81633390D01*
X102964285Y-81633390D02*
X103011904Y-81681009D01*
X103011904Y-81681009D02*
X103107142Y-81728628D01*
X103107142Y-81728628D02*
X103488094Y-81728628D01*
X102059523Y-81204819D02*
X102249999Y-81204819D01*
X102249999Y-81204819D02*
X102345237Y-81252438D01*
X102345237Y-81252438D02*
X102392856Y-81300057D01*
X102392856Y-81300057D02*
X102488094Y-81442914D01*
X102488094Y-81442914D02*
X102535713Y-81633390D01*
X102535713Y-81633390D02*
X102535713Y-82014342D01*
X102535713Y-82014342D02*
X102488094Y-82109580D01*
X102488094Y-82109580D02*
X102440475Y-82157200D01*
X102440475Y-82157200D02*
X102345237Y-82204819D01*
X102345237Y-82204819D02*
X102154761Y-82204819D01*
X102154761Y-82204819D02*
X102059523Y-82157200D01*
X102059523Y-82157200D02*
X102011904Y-82109580D01*
X102011904Y-82109580D02*
X101964285Y-82014342D01*
X101964285Y-82014342D02*
X101964285Y-81776247D01*
X101964285Y-81776247D02*
X102011904Y-81681009D01*
X102011904Y-81681009D02*
X102059523Y-81633390D01*
X102059523Y-81633390D02*
X102154761Y-81585771D01*
X102154761Y-81585771D02*
X102345237Y-81585771D01*
X102345237Y-81585771D02*
X102440475Y-81633390D01*
X102440475Y-81633390D02*
X102488094Y-81681009D01*
X102488094Y-81681009D02*
X102535713Y-81776247D01*
X113204819Y-66416666D02*
X113919104Y-66416666D01*
X113919104Y-66416666D02*
X114061961Y-66369047D01*
X114061961Y-66369047D02*
X114157200Y-66273809D01*
X114157200Y-66273809D02*
X114204819Y-66130952D01*
X114204819Y-66130952D02*
X114204819Y-66035714D01*
X113204819Y-66797619D02*
X113204819Y-67416666D01*
X113204819Y-67416666D02*
X113585771Y-67083333D01*
X113585771Y-67083333D02*
X113585771Y-67226190D01*
X113585771Y-67226190D02*
X113633390Y-67321428D01*
X113633390Y-67321428D02*
X113681009Y-67369047D01*
X113681009Y-67369047D02*
X113776247Y-67416666D01*
X113776247Y-67416666D02*
X114014342Y-67416666D01*
X114014342Y-67416666D02*
X114109580Y-67369047D01*
X114109580Y-67369047D02*
X114157200Y-67321428D01*
X114157200Y-67321428D02*
X114204819Y-67226190D01*
X114204819Y-67226190D02*
X114204819Y-66940476D01*
X114204819Y-66940476D02*
X114157200Y-66845238D01*
X114157200Y-66845238D02*
X114109580Y-66797619D01*
X120194999Y-44295404D02*
X120054427Y-45092630D01*
X120054427Y-45092630D02*
X119990993Y-45178152D01*
X119990993Y-45178152D02*
X119935828Y-45216779D01*
X119935828Y-45216779D02*
X119833768Y-45247136D01*
X119833768Y-45247136D02*
X119646186Y-45214061D01*
X119646186Y-45214061D02*
X119560664Y-45150627D01*
X119560664Y-45150627D02*
X119522037Y-45095462D01*
X119522037Y-45095462D02*
X119491679Y-44993402D01*
X119491679Y-44993402D02*
X119632252Y-44196177D01*
X118683352Y-44367336D02*
X118567587Y-45023874D01*
X118983982Y-44033516D02*
X119094426Y-44778295D01*
X119094426Y-44778295D02*
X118484783Y-44670798D01*
X94743517Y-70149693D02*
X94036410Y-69442587D01*
X94036410Y-69442587D02*
X93868051Y-69610945D01*
X93868051Y-69610945D02*
X93800708Y-69745632D01*
X93800708Y-69745632D02*
X93800708Y-69880319D01*
X93800708Y-69880319D02*
X93834380Y-69981335D01*
X93834380Y-69981335D02*
X93935395Y-70149693D01*
X93935395Y-70149693D02*
X94036410Y-70250709D01*
X94036410Y-70250709D02*
X94204769Y-70351724D01*
X94204769Y-70351724D02*
X94305784Y-70385396D01*
X94305784Y-70385396D02*
X94440471Y-70385396D01*
X94440471Y-70385396D02*
X94575158Y-70318052D01*
X94575158Y-70318052D02*
X94743517Y-70149693D01*
X93396647Y-70082350D02*
X92958914Y-70520083D01*
X92958914Y-70520083D02*
X93463990Y-70553754D01*
X93463990Y-70553754D02*
X93362975Y-70654770D01*
X93362975Y-70654770D02*
X93329303Y-70755785D01*
X93329303Y-70755785D02*
X93329303Y-70823128D01*
X93329303Y-70823128D02*
X93362975Y-70924144D01*
X93362975Y-70924144D02*
X93531334Y-71092502D01*
X93531334Y-71092502D02*
X93632349Y-71126174D01*
X93632349Y-71126174D02*
X93699693Y-71126174D01*
X93699693Y-71126174D02*
X93800708Y-71092502D01*
X93800708Y-71092502D02*
X94002738Y-70890472D01*
X94002738Y-70890472D02*
X94036410Y-70789457D01*
X94036410Y-70789457D02*
X94036410Y-70722113D01*
X79279820Y-69225595D02*
X80089343Y-69225595D01*
X80089343Y-69225595D02*
X80184581Y-69273214D01*
X80184581Y-69273214D02*
X80232201Y-69320833D01*
X80232201Y-69320833D02*
X80279820Y-69416071D01*
X80279820Y-69416071D02*
X80279820Y-69606547D01*
X80279820Y-69606547D02*
X80232201Y-69701785D01*
X80232201Y-69701785D02*
X80184581Y-69749404D01*
X80184581Y-69749404D02*
X80089343Y-69797023D01*
X80089343Y-69797023D02*
X79279820Y-69797023D01*
X80279820Y-70797023D02*
X80279820Y-70225595D01*
X80279820Y-70511309D02*
X79279820Y-70511309D01*
X79279820Y-70511309D02*
X79422677Y-70416071D01*
X79422677Y-70416071D02*
X79517915Y-70320833D01*
X79517915Y-70320833D02*
X79565534Y-70225595D01*
X104216666Y-76382319D02*
X104549999Y-75906128D01*
X104788094Y-76382319D02*
X104788094Y-75382319D01*
X104788094Y-75382319D02*
X104407142Y-75382319D01*
X104407142Y-75382319D02*
X104311904Y-75429938D01*
X104311904Y-75429938D02*
X104264285Y-75477557D01*
X104264285Y-75477557D02*
X104216666Y-75572795D01*
X104216666Y-75572795D02*
X104216666Y-75715652D01*
X104216666Y-75715652D02*
X104264285Y-75810890D01*
X104264285Y-75810890D02*
X104311904Y-75858509D01*
X104311904Y-75858509D02*
X104407142Y-75906128D01*
X104407142Y-75906128D02*
X104788094Y-75906128D01*
X103311904Y-75382319D02*
X103788094Y-75382319D01*
X103788094Y-75382319D02*
X103835713Y-75858509D01*
X103835713Y-75858509D02*
X103788094Y-75810890D01*
X103788094Y-75810890D02*
X103692856Y-75763271D01*
X103692856Y-75763271D02*
X103454761Y-75763271D01*
X103454761Y-75763271D02*
X103359523Y-75810890D01*
X103359523Y-75810890D02*
X103311904Y-75858509D01*
X103311904Y-75858509D02*
X103264285Y-75953747D01*
X103264285Y-75953747D02*
X103264285Y-76191842D01*
X103264285Y-76191842D02*
X103311904Y-76287080D01*
X103311904Y-76287080D02*
X103359523Y-76334700D01*
X103359523Y-76334700D02*
X103454761Y-76382319D01*
X103454761Y-76382319D02*
X103692856Y-76382319D01*
X103692856Y-76382319D02*
X103788094Y-76334700D01*
X103788094Y-76334700D02*
X103835713Y-76287080D01*
X122542857Y-69759580D02*
X122590476Y-69807200D01*
X122590476Y-69807200D02*
X122733333Y-69854819D01*
X122733333Y-69854819D02*
X122828571Y-69854819D01*
X122828571Y-69854819D02*
X122971428Y-69807200D01*
X122971428Y-69807200D02*
X123066666Y-69711961D01*
X123066666Y-69711961D02*
X123114285Y-69616723D01*
X123114285Y-69616723D02*
X123161904Y-69426247D01*
X123161904Y-69426247D02*
X123161904Y-69283390D01*
X123161904Y-69283390D02*
X123114285Y-69092914D01*
X123114285Y-69092914D02*
X123066666Y-68997676D01*
X123066666Y-68997676D02*
X122971428Y-68902438D01*
X122971428Y-68902438D02*
X122828571Y-68854819D01*
X122828571Y-68854819D02*
X122733333Y-68854819D01*
X122733333Y-68854819D02*
X122590476Y-68902438D01*
X122590476Y-68902438D02*
X122542857Y-68950057D01*
X121590476Y-69854819D02*
X122161904Y-69854819D01*
X121876190Y-69854819D02*
X121876190Y-68854819D01*
X121876190Y-68854819D02*
X121971428Y-68997676D01*
X121971428Y-68997676D02*
X122066666Y-69092914D01*
X122066666Y-69092914D02*
X122161904Y-69140533D01*
X120638095Y-69854819D02*
X121209523Y-69854819D01*
X120923809Y-69854819D02*
X120923809Y-68854819D01*
X120923809Y-68854819D02*
X121019047Y-68997676D01*
X121019047Y-68997676D02*
X121114285Y-69092914D01*
X121114285Y-69092914D02*
X121209523Y-69140533D01*
X117142772Y-86098955D02*
X117209092Y-86110649D01*
X117209092Y-86110649D02*
X117353427Y-86067717D01*
X117353427Y-86067717D02*
X117431441Y-86013091D01*
X117431441Y-86013091D02*
X117521150Y-85892144D01*
X117521150Y-85892144D02*
X117544538Y-85759503D01*
X117544538Y-85759503D02*
X117528919Y-85654175D01*
X117528919Y-85654175D02*
X117458674Y-85470833D01*
X117458674Y-85470833D02*
X117376734Y-85353812D01*
X117376734Y-85353812D02*
X117228474Y-85225096D01*
X117228474Y-85225096D02*
X117134841Y-85174395D01*
X117134841Y-85174395D02*
X117002200Y-85151006D01*
X117002200Y-85151006D02*
X116857865Y-85193939D01*
X116857865Y-85193939D02*
X116779850Y-85248565D01*
X116779850Y-85248565D02*
X116690142Y-85369512D01*
X116690142Y-85369512D02*
X116678448Y-85435832D01*
X115921691Y-85849455D02*
X116077720Y-85740202D01*
X116077720Y-85740202D02*
X116183048Y-85724583D01*
X116183048Y-85724583D02*
X116249368Y-85736277D01*
X116249368Y-85736277D02*
X116409322Y-85798672D01*
X116409322Y-85798672D02*
X116557582Y-85927388D01*
X116557582Y-85927388D02*
X116776087Y-86239446D01*
X116776087Y-86239446D02*
X116791706Y-86344774D01*
X116791706Y-86344774D02*
X116780012Y-86411094D01*
X116780012Y-86411094D02*
X116729311Y-86504728D01*
X116729311Y-86504728D02*
X116573282Y-86613980D01*
X116573282Y-86613980D02*
X116467954Y-86629599D01*
X116467954Y-86629599D02*
X116401634Y-86617905D01*
X116401634Y-86617905D02*
X116308000Y-86567204D01*
X116308000Y-86567204D02*
X116171435Y-86372168D01*
X116171435Y-86372168D02*
X116155816Y-86266840D01*
X116155816Y-86266840D02*
X116167510Y-86200520D01*
X116167510Y-86200520D02*
X116218211Y-86106886D01*
X116218211Y-86106886D02*
X116374240Y-85997633D01*
X116374240Y-85997633D02*
X116479568Y-85982014D01*
X116479568Y-85982014D02*
X116545888Y-85993708D01*
X116545888Y-85993708D02*
X116639522Y-86044410D01*
X127759580Y-75757142D02*
X127807200Y-75709523D01*
X127807200Y-75709523D02*
X127854819Y-75566666D01*
X127854819Y-75566666D02*
X127854819Y-75471428D01*
X127854819Y-75471428D02*
X127807200Y-75328571D01*
X127807200Y-75328571D02*
X127711961Y-75233333D01*
X127711961Y-75233333D02*
X127616723Y-75185714D01*
X127616723Y-75185714D02*
X127426247Y-75138095D01*
X127426247Y-75138095D02*
X127283390Y-75138095D01*
X127283390Y-75138095D02*
X127092914Y-75185714D01*
X127092914Y-75185714D02*
X126997676Y-75233333D01*
X126997676Y-75233333D02*
X126902438Y-75328571D01*
X126902438Y-75328571D02*
X126854819Y-75471428D01*
X126854819Y-75471428D02*
X126854819Y-75566666D01*
X126854819Y-75566666D02*
X126902438Y-75709523D01*
X126902438Y-75709523D02*
X126950057Y-75757142D01*
X127854819Y-76709523D02*
X127854819Y-76138095D01*
X127854819Y-76423809D02*
X126854819Y-76423809D01*
X126854819Y-76423809D02*
X126997676Y-76328571D01*
X126997676Y-76328571D02*
X127092914Y-76233333D01*
X127092914Y-76233333D02*
X127140533Y-76138095D01*
X127188152Y-77566666D02*
X127854819Y-77566666D01*
X126807200Y-77328571D02*
X127521485Y-77090476D01*
X127521485Y-77090476D02*
X127521485Y-77709523D01*
X122642857Y-71709580D02*
X122690476Y-71757200D01*
X122690476Y-71757200D02*
X122833333Y-71804819D01*
X122833333Y-71804819D02*
X122928571Y-71804819D01*
X122928571Y-71804819D02*
X123071428Y-71757200D01*
X123071428Y-71757200D02*
X123166666Y-71661961D01*
X123166666Y-71661961D02*
X123214285Y-71566723D01*
X123214285Y-71566723D02*
X123261904Y-71376247D01*
X123261904Y-71376247D02*
X123261904Y-71233390D01*
X123261904Y-71233390D02*
X123214285Y-71042914D01*
X123214285Y-71042914D02*
X123166666Y-70947676D01*
X123166666Y-70947676D02*
X123071428Y-70852438D01*
X123071428Y-70852438D02*
X122928571Y-70804819D01*
X122928571Y-70804819D02*
X122833333Y-70804819D01*
X122833333Y-70804819D02*
X122690476Y-70852438D01*
X122690476Y-70852438D02*
X122642857Y-70900057D01*
X121690476Y-71804819D02*
X122261904Y-71804819D01*
X121976190Y-71804819D02*
X121976190Y-70804819D01*
X121976190Y-70804819D02*
X122071428Y-70947676D01*
X122071428Y-70947676D02*
X122166666Y-71042914D01*
X122166666Y-71042914D02*
X122261904Y-71090533D01*
X121309523Y-70900057D02*
X121261904Y-70852438D01*
X121261904Y-70852438D02*
X121166666Y-70804819D01*
X121166666Y-70804819D02*
X120928571Y-70804819D01*
X120928571Y-70804819D02*
X120833333Y-70852438D01*
X120833333Y-70852438D02*
X120785714Y-70900057D01*
X120785714Y-70900057D02*
X120738095Y-70995295D01*
X120738095Y-70995295D02*
X120738095Y-71090533D01*
X120738095Y-71090533D02*
X120785714Y-71233390D01*
X120785714Y-71233390D02*
X121357142Y-71804819D01*
X121357142Y-71804819D02*
X120738095Y-71804819D01*
X111542772Y-92448954D02*
X111609092Y-92460648D01*
X111609092Y-92460648D02*
X111753427Y-92417716D01*
X111753427Y-92417716D02*
X111831441Y-92363090D01*
X111831441Y-92363090D02*
X111921150Y-92242143D01*
X111921150Y-92242143D02*
X111944538Y-92109502D01*
X111944538Y-92109502D02*
X111928919Y-92004174D01*
X111928919Y-92004174D02*
X111858674Y-91820832D01*
X111858674Y-91820832D02*
X111776734Y-91703811D01*
X111776734Y-91703811D02*
X111628474Y-91575095D01*
X111628474Y-91575095D02*
X111534841Y-91524394D01*
X111534841Y-91524394D02*
X111402200Y-91501005D01*
X111402200Y-91501005D02*
X111257865Y-91543938D01*
X111257865Y-91543938D02*
X111179850Y-91598564D01*
X111179850Y-91598564D02*
X111090142Y-91719511D01*
X111090142Y-91719511D02*
X111078448Y-91785831D01*
X110766390Y-92004336D02*
X110700070Y-91992642D01*
X110700070Y-91992642D02*
X110594742Y-92008261D01*
X110594742Y-92008261D02*
X110399706Y-92144827D01*
X110399706Y-92144827D02*
X110349004Y-92238461D01*
X110349004Y-92238461D02*
X110337310Y-92304781D01*
X110337310Y-92304781D02*
X110352929Y-92410109D01*
X110352929Y-92410109D02*
X110407556Y-92488123D01*
X110407556Y-92488123D02*
X110528502Y-92577832D01*
X110528502Y-92577832D02*
X111324347Y-92718161D01*
X111324347Y-92718161D02*
X110817253Y-93073232D01*
X95309448Y-64437810D02*
X95208433Y-63865391D01*
X95713509Y-64033749D02*
X95006402Y-63326643D01*
X95006402Y-63326643D02*
X94737028Y-63596017D01*
X94737028Y-63596017D02*
X94703356Y-63697032D01*
X94703356Y-63697032D02*
X94703356Y-63764375D01*
X94703356Y-63764375D02*
X94737028Y-63865391D01*
X94737028Y-63865391D02*
X94838043Y-63966406D01*
X94838043Y-63966406D02*
X94939059Y-64000078D01*
X94939059Y-64000078D02*
X95006402Y-64000078D01*
X95006402Y-64000078D02*
X95107417Y-63966406D01*
X95107417Y-63966406D02*
X95376791Y-63697032D01*
X94636013Y-65111245D02*
X95040074Y-64707184D01*
X94838043Y-64909215D02*
X94130937Y-64202108D01*
X94130937Y-64202108D02*
X94299295Y-64235780D01*
X94299295Y-64235780D02*
X94433982Y-64235780D01*
X94433982Y-64235780D02*
X94534998Y-64202108D01*
X93693204Y-64639841D02*
X93255471Y-65077574D01*
X93255471Y-65077574D02*
X93760547Y-65111246D01*
X93760547Y-65111246D02*
X93659532Y-65212261D01*
X93659532Y-65212261D02*
X93625860Y-65313276D01*
X93625860Y-65313276D02*
X93625860Y-65380620D01*
X93625860Y-65380620D02*
X93659532Y-65481635D01*
X93659532Y-65481635D02*
X93827891Y-65649994D01*
X93827891Y-65649994D02*
X93928906Y-65683665D01*
X93928906Y-65683665D02*
X93996249Y-65683665D01*
X93996249Y-65683665D02*
X94097265Y-65649994D01*
X94097265Y-65649994D02*
X94299295Y-65447963D01*
X94299295Y-65447963D02*
X94332967Y-65346948D01*
X94332967Y-65346948D02*
X94332967Y-65279604D01*
D11*
%TO.C,R9*%
X105577064Y-73302500D02*
X105122936Y-73302500D01*
X105577064Y-74772500D02*
X105122936Y-74772500D01*
%TO.C,C16*%
X123280000Y-64632500D02*
X126000000Y-64632500D01*
X123280000Y-66242500D02*
X123280000Y-64632500D01*
X126000000Y-66242500D02*
X123280000Y-66242500D01*
%TO.C,R15*%
X123840835Y-85107218D02*
X123519718Y-85428335D01*
X124880282Y-86146665D02*
X124559165Y-86467782D01*
%TO.C,C3*%
X116069119Y-89914159D02*
X118297212Y-88354031D01*
X118297212Y-88354031D02*
X119220671Y-89672866D01*
X119220671Y-89672866D02*
X116992577Y-91232994D01*
%TO.C,C4*%
X108950284Y-87875117D02*
X111178378Y-86314989D01*
X109873743Y-89193952D02*
X108950284Y-87875117D01*
X112101836Y-87633824D02*
X109873743Y-89193952D01*
%TO.C,C7*%
X118270284Y-88090117D02*
X120498378Y-86529989D01*
X119193743Y-89408952D02*
X118270284Y-88090117D01*
X121421836Y-87848824D02*
X119193743Y-89408952D01*
%TO.C,C19*%
X87445000Y-70852080D02*
X87445000Y-68132080D01*
X89055000Y-68132080D02*
X89055000Y-70852080D01*
X89055000Y-70852080D02*
X87445000Y-70852080D01*
%TO.C,C10*%
X123330000Y-66582500D02*
X126050000Y-66582500D01*
X123330000Y-68192500D02*
X123330000Y-66582500D01*
X126050000Y-68192500D02*
X123330000Y-68192500D01*
%TO.C,C1*%
X109519119Y-89951659D02*
X111747212Y-88391531D01*
X111747212Y-88391531D02*
X112670671Y-89710366D01*
X112670671Y-89710366D02*
X110442577Y-91270494D01*
%TO.C,C5*%
X112250284Y-87825117D02*
X114478378Y-86264989D01*
X113173743Y-89143952D02*
X112250284Y-87825117D01*
X115401836Y-87583824D02*
X113173743Y-89143952D01*
%TO.C,R16*%
X125272936Y-82202500D02*
X125727064Y-82202500D01*
X125272936Y-83672500D02*
X125727064Y-83672500D01*
%TO.C,C8*%
X107823672Y-70325386D02*
X109747003Y-68402055D01*
X109747003Y-68402055D02*
X110885445Y-69540497D01*
X110885445Y-69540497D02*
X108962114Y-71463828D01*
%TO.C,J5*%
X79283329Y-80061762D02*
X85120588Y-75163721D01*
X80256206Y-79245422D02*
X86786928Y-87028433D01*
X85120588Y-75163721D02*
X91651310Y-82946732D01*
X85814051Y-87844774D02*
X79283329Y-80061762D01*
X91651310Y-82946732D02*
X85814051Y-87844774D01*
%TO.C,R6*%
X102927064Y-79092500D02*
X102472936Y-79092500D01*
X102927064Y-80562500D02*
X102472936Y-80562500D01*
%TO.C,J3*%
X115040000Y-63810000D02*
X115040000Y-69690000D01*
X117010000Y-62640000D02*
X118160000Y-62640000D01*
X117010000Y-70860000D02*
X118160000Y-70860000D01*
X118160000Y-62640000D02*
X118160000Y-63690000D01*
X118160000Y-63690000D02*
X119150000Y-63690000D01*
X118160000Y-70860000D02*
X118160000Y-69810000D01*
%TO.C,U4*%
X104445426Y-59353058D02*
X104514887Y-58959133D01*
X107258525Y-43399171D02*
X107189068Y-43793094D01*
X120399313Y-62166157D02*
X104445426Y-59353058D01*
X120468770Y-61772234D02*
X120399313Y-62166157D01*
X123212412Y-46212270D02*
X107258525Y-43399171D01*
X123964785Y-46206837D02*
X123670088Y-46496057D01*
X123492077Y-46123486D01*
X123964785Y-46206837D01*
G36*
X123964785Y-46206837D02*
G01*
X123670088Y-46496057D01*
X123492077Y-46123486D01*
X123964785Y-46206837D01*
G37*
%TO.C,D3*%
X93461665Y-66661621D02*
X90626167Y-69497119D01*
X93461665Y-66661621D02*
X94875879Y-68075835D01*
X94875879Y-68075835D02*
X92040381Y-70911333D01*
%TO.C,U1*%
X81050000Y-68362500D02*
X81050000Y-68137500D01*
X81050000Y-72137500D02*
X81050000Y-71612500D01*
X81050000Y-72137500D02*
X81575000Y-72137500D01*
X81515000Y-67837499D02*
X81290000Y-67837499D01*
X85350000Y-67837500D02*
X84825000Y-67837500D01*
X85350000Y-67837500D02*
X85350000Y-68362500D01*
X85350000Y-72137500D02*
X84825000Y-72137500D01*
X85350000Y-72137500D02*
X85350000Y-71612500D01*
X81050000Y-67837500D02*
X80720000Y-68077500D01*
X80720000Y-67597500D01*
X81050000Y-67837500D01*
G36*
X81050000Y-67837500D02*
G01*
X80720000Y-68077500D01*
X80720000Y-67597500D01*
X81050000Y-67837500D01*
G37*
%TO.C,R5*%
X104277064Y-76842500D02*
X103822936Y-76842500D01*
X104277064Y-78312500D02*
X103822936Y-78312500D01*
%TO.C,C11*%
X123380000Y-68582500D02*
X126100000Y-68582500D01*
X123380000Y-70192500D02*
X123380000Y-68582500D01*
X126100000Y-70192500D02*
X123380000Y-70192500D01*
%TO.C,C6*%
X115379329Y-87864634D02*
X117607423Y-86304506D01*
X116302788Y-89183469D02*
X115379329Y-87864634D01*
X118530881Y-87623341D02*
X116302788Y-89183469D01*
%TO.C,C14*%
X128195000Y-78120000D02*
X128195000Y-75400000D01*
X129805000Y-75400000D02*
X129805000Y-78120000D01*
X129805000Y-78120000D02*
X128195000Y-78120000D01*
%TO.C,C12*%
X123430000Y-70532500D02*
X126150000Y-70532500D01*
X123430000Y-72142500D02*
X123430000Y-70532500D01*
X126150000Y-72142500D02*
X123430000Y-72142500D01*
%TO.C,C2*%
X112169119Y-90651659D02*
X114397212Y-89091531D01*
X114397212Y-89091531D02*
X115320671Y-90410366D01*
X115320671Y-90410366D02*
X113092577Y-91970494D01*
%TO.C,R13*%
X95340835Y-65057218D02*
X95019718Y-65378335D01*
X96380282Y-66096665D02*
X96059165Y-66417782D01*
%TD*%
%LPC*%
D12*
%TO.C,J8*%
X89878606Y-58416978D03*
D13*
X90521393Y-59183022D03*
%TD*%
D14*
%TO.C,M2*%
X106650000Y-86650000D03*
%TD*%
D15*
%TO.C,J1*%
X92799818Y-47605449D03*
D16*
X87708650Y-52696617D03*
D17*
X88337975Y-41884954D03*
X92290702Y-46346798D03*
X86450000Y-52187500D03*
X81988156Y-48234773D03*
%TD*%
D14*
%TO.C,REF\u002A\u002A*%
X112050000Y-40850000D03*
%TD*%
%TO.C,M2*%
X128900000Y-56800000D03*
%TD*%
D18*
%TO.C,J7*%
X98050000Y-40900000D03*
D13*
X97050000Y-40900000D03*
X96050000Y-40900000D03*
%TD*%
D18*
%TO.C,J10*%
X118650000Y-42650000D03*
D13*
X117650000Y-42650000D03*
X116650000Y-42650000D03*
X115650000Y-42650000D03*
%TD*%
D19*
%TO.C,J2*%
X99450000Y-46660000D03*
D20*
X96910000Y-44120000D03*
X96910000Y-49200000D03*
X101990000Y-44120000D03*
X101990000Y-49200000D03*
%TD*%
D14*
%TO.C,REF\u002A\u002A*%
X79550000Y-55500000D03*
%TD*%
D21*
%TO.C,U3*%
X88200000Y-63887500D03*
D13*
X88907107Y-64594606D03*
X89614214Y-65301714D03*
X90321320Y-66008820D03*
X91028427Y-66715927D03*
%TD*%
D22*
%TO.C,J9*%
X93183023Y-62521394D03*
D13*
X92416979Y-61878606D03*
%TD*%
D18*
%TO.C,J4*%
X98150000Y-68500000D03*
D13*
X97150000Y-68500000D03*
%TD*%
D18*
%TO.C,J6*%
X121400000Y-81200000D03*
D13*
X122400000Y-81200000D03*
X121400000Y-82200000D03*
X122400000Y-82200000D03*
X121400000Y-83200000D03*
X122400000Y-83200000D03*
%TD*%
D23*
%TO.C,R9*%
X106262500Y-74037500D03*
X104437500Y-74037500D03*
%TD*%
D24*
%TO.C,C16*%
X124110000Y-65437500D03*
X125890000Y-65437500D03*
%TD*%
D25*
%TO.C,R15*%
X124845234Y-85142265D03*
X123554766Y-86432735D03*
%TD*%
D26*
%TO.C,C3*%
X118079045Y-89489517D03*
X116620955Y-90510483D03*
%TD*%
D27*
%TO.C,C4*%
X110091910Y-88058466D03*
X111550000Y-87037500D03*
%TD*%
%TO.C,C7*%
X119411910Y-88273466D03*
X120870000Y-87252500D03*
%TD*%
D28*
%TO.C,C19*%
X88250000Y-70022080D03*
X88250000Y-68242080D03*
%TD*%
D24*
%TO.C,C10*%
X124160000Y-67387500D03*
X125940000Y-67387500D03*
%TD*%
D26*
%TO.C,C1*%
X111529045Y-89527017D03*
X110070955Y-90547983D03*
%TD*%
D27*
%TO.C,C5*%
X113391910Y-88008466D03*
X114850000Y-86987500D03*
%TD*%
D29*
%TO.C,R16*%
X124587500Y-82937500D03*
X126412500Y-82937500D03*
%TD*%
D30*
%TO.C,C8*%
X109729325Y-69558175D03*
X108470675Y-70816825D03*
%TD*%
D31*
%TO.C,J5*%
X87100000Y-83450000D03*
D32*
X83834639Y-79558494D03*
%TD*%
D23*
%TO.C,R6*%
X103612500Y-79827500D03*
X101787500Y-79827500D03*
%TD*%
D33*
%TO.C,J3*%
X118375000Y-64250000D03*
X118375000Y-65250000D03*
X118375000Y-66250000D03*
X118375000Y-67250000D03*
X118375000Y-68250000D03*
X118375000Y-69250000D03*
D34*
X115850000Y-62950000D03*
X115850000Y-70550000D03*
%TD*%
D35*
%TO.C,U4*%
X122455135Y-47195712D03*
X122107838Y-49165328D03*
X121760541Y-51134943D03*
X121413247Y-53104559D03*
X121065949Y-55074174D03*
X120718652Y-57043789D03*
X120371356Y-59013405D03*
X120024060Y-60983022D03*
X105202703Y-58369616D03*
X105550000Y-56400000D03*
X105897297Y-54430385D03*
X106244591Y-52460769D03*
X106591889Y-50491154D03*
X106939186Y-48521539D03*
X107286482Y-46551923D03*
X107633778Y-44582306D03*
%TD*%
D36*
%TO.C,D3*%
X93666726Y-67870774D03*
X91333274Y-70204226D03*
%TD*%
D37*
%TO.C,U1*%
X81950000Y-68037500D03*
X82450000Y-68037500D03*
X82950000Y-68037500D03*
X83450000Y-68037500D03*
X83950000Y-68037500D03*
X84450000Y-68037500D03*
D38*
X85150000Y-68737500D03*
X85150000Y-69237500D03*
X85150000Y-69737500D03*
X85150000Y-70237500D03*
X85150000Y-70737500D03*
X85150000Y-71237500D03*
D37*
X84450000Y-71937500D03*
X83950000Y-71937500D03*
X83450000Y-71937500D03*
X82950000Y-71937500D03*
X82450000Y-71937500D03*
X81950000Y-71937500D03*
D38*
X81250000Y-71237500D03*
X81250000Y-70737500D03*
X81250000Y-70237500D03*
X81250000Y-69737500D03*
X81250000Y-69237500D03*
X81250000Y-68737500D03*
%TD*%
D23*
%TO.C,R5*%
X104962500Y-77577500D03*
X103137500Y-77577500D03*
%TD*%
D24*
%TO.C,C11*%
X124210000Y-69387500D03*
X125990000Y-69387500D03*
%TD*%
D27*
%TO.C,C6*%
X116520955Y-88047983D03*
X117979045Y-87027017D03*
%TD*%
D28*
%TO.C,C14*%
X129000000Y-77290000D03*
X129000000Y-75510000D03*
%TD*%
D24*
%TO.C,C12*%
X124260000Y-71337500D03*
X126040000Y-71337500D03*
%TD*%
D26*
%TO.C,C2*%
X114179045Y-90227017D03*
X112720955Y-91247983D03*
%TD*%
D25*
%TO.C,R13*%
X96345235Y-65092265D03*
X95054765Y-66382735D03*
%TD*%
%LPD*%
M02*
