M48
; DRILL file {KiCad 9.0.3+dfsg-1} date 2026-03-11T10:20:49+0100
; FORMAT={-:-/ absolute / inch / decimal}
; #@! TF.CreationDate,2026-03-11T10:20:49+01:00
; #@! TF.GenerationSoftware,Kicad,Pcbnew,9.0.3+dfsg-1
; #@! TF.FileFunction,Plated,1,2,PTH
FMAT,2
INCH
; #@! TA.AperFunction,Plated,PTH,ComponentDrill
T1C0.0098
; #@! TA.AperFunction,Plated,PTH,ViaDrill
T2C0.0118
; #@! TA.AperFunction,Plated,PTH,ComponentDrill
T3C0.0197
; #@! TA.AperFunction,Plated,PTH,ComponentDrill
T4C0.0591
; #@! TA.AperFunction,Plated,PTH,ComponentDrill
T5C0.0598
; #@! TA.AperFunction,Plated,PTH,ComponentDrill
T6C0.0669
%
G90
G05
T1
X4.5049Y-3.032
X4.5049Y-3.0861
X4.5049Y-3.1403
X4.5591Y-3.032
X4.5591Y-3.0861
X4.5591Y-3.1403
X4.6132Y-3.032
X4.6132Y-3.0861
X4.6132Y-3.1403
T2
X3.1555Y-2.7867
X3.1673Y-2.7257
X3.1681Y-2.4988
X3.1949Y-2.5197
X3.1949Y-2.6824
X3.2224Y-2.8753
X3.2832Y-2.5883
X3.3228Y-2.5467
X3.374Y-2.9055
X3.379Y-2.4889
X3.3995Y-2.7061
X3.4035Y-2.8083
X3.4173Y-2.2221
X3.4193Y-2.0119
X3.4547Y-2.2221
X3.4803Y-1.905
X3.509Y-1.892
X3.5098Y-2.8594
X3.5098Y-3.1806
X3.5453Y-2.7889
X3.5591Y-2.8613
X3.5681Y-2.0981
X3.5738Y-3.2013
X3.5906Y-1.5842
X3.6004Y-2.0487
X3.6032Y-2.094
X3.6102Y-3.1901
X3.6732Y-1.9424
X3.7047Y-1.6649
X3.7317Y-3.336
X3.7953Y-2.9794
X3.811Y-3.2677
X3.8701Y-2.9794
X3.8767Y-3.2082
X3.9114Y-2.9401
X3.9134Y-2.9853
X3.9469Y-3.1605
X3.9508Y-2.9696
X4.0039Y-3.0444
X4.0315Y-3.344
X4.0354Y-3.405
X4.0689Y-2.9794
X4.0768Y-3.3479
X4.1181Y-2.8676
X4.249Y-3.13
X4.2656Y-2.9129
X4.2776Y-3.1432
X4.2815Y-2.2185
X4.2874Y-1.9311
X4.2894Y-2.2815
X4.2913Y-1.5945
X4.2924Y-2.8954
X4.3012Y-2.8223
X4.3031Y-3.279
X4.3071Y-3.1601
X4.3209Y-3.0074
X4.3228Y-2.8873
X4.3346Y-3.2554
X4.3346Y-3.3479
X4.3425Y-2.2165
X4.3425Y-2.2874
X4.3465Y-1.7736
X4.3497Y-2.7795
X4.3622Y-2.503
X4.3701Y-2.626
X4.372Y-3.031
X4.374Y-3.2259
X4.376Y-2.966
X4.3819Y-2.9109
X4.3819Y-3.279
X4.3858Y-1.9055
X4.4035Y-2.439
X4.4114Y-2.3386
X4.4134Y-1.7953
X4.4134Y-2.8932
X4.4154Y-2.5507
X4.4193Y-2.8342
X4.4306Y-3.283
X4.435Y-2.7244
X4.4488Y-2.9129
X4.4508Y-3.3971
X4.4529Y-3.2608
X4.4616Y-3.1383
X4.4645Y-3.1786
X4.4705Y-2.4199
X4.4705Y-2.6797
X4.4724Y-2.126
X4.4843Y-2.811
X4.4882Y-1.8976
X4.4941Y-2.0728
X4.4941Y-2.655
X4.4964Y-3.3074
X4.5Y-2.3071
X4.5059Y-2.1905
X4.5059Y-2.5157
X4.5098Y-1.8622
X4.52Y-3.2838
X4.5256Y-3.1806
X4.5276Y-2.8282
X4.5472Y-3.344
X4.565Y-2.911
X4.5669Y-2.2205
X4.5669Y-2.3661
X4.5689Y-3.1821
X4.5777Y-2.8407
X4.5813Y-3.2908
X4.5984Y-2.0703
X4.6005Y-2.0998
X4.6063Y-2.8332
X4.6273Y-3.1868
X4.63Y-2.1017
X4.6379Y-2.8362
X4.6427Y-2.9887
X4.6475Y-2.7617
X4.6476Y-2.2165
X4.6575Y-2.3248
X4.6594Y-3.15
X4.6627Y-2.8523
X4.6732Y-3.2712
X4.6742Y-2.0266
X4.6836Y-2.8732
X4.687Y-2.1063
X4.7028Y-2.5079
X4.7101Y-3.3844
X4.7146Y-2.0256
X4.716Y-3.2177
X4.7283Y-3.3223
X4.7323Y-2.8912
X4.7323Y-3.096
X4.7372Y-2.9572
X4.742Y-3.3716
X4.75Y-2.8676
X4.7644Y-3.3908
X4.8192Y-2.374
X4.8337Y-3.0801
X4.8366Y-3.0034
X4.8513Y-3.0564
X4.8524Y-2.8893
X4.877Y-3.034
X4.8839Y-1.9606
X4.8948Y-2.8571
X4.9528Y-2.5039
X4.9606Y-2.4488
X4.9816Y-2.9265
X4.9839Y-3.0382
X4.9843Y-3.0079
X5.0124Y-3.1078
X5.0197Y-3.1811
X5.0236Y-3.1496
X5.0453Y-2.0448
X5.063Y-2.1102
X5.0728Y-3.0787
X5.1102Y-2.3465
X5.1496Y-2.9528
X5.1605Y-2.9253
T3
X3.4724Y-2.5153
X3.5003Y-2.5431
X3.5281Y-2.5709
X3.5385Y-2.2999
X3.556Y-2.5988
X3.5638Y-2.33
X3.5838Y-2.6266
X3.6385Y-2.4362
X3.6686Y-2.4615
X3.7815Y-1.6102
X3.8209Y-1.6102
X3.8248Y-2.6969
X3.8602Y-1.6102
X3.8642Y-2.6969
X4.5531Y-1.6791
X4.5925Y-1.6791
X4.6319Y-1.6791
X4.6713Y-1.6791
X4.7795Y-3.1969
X4.7795Y-3.2362
X4.7795Y-3.2756
X4.8189Y-3.1969
X4.8189Y-3.2362
X4.8189Y-3.2756
T4
X3.9154Y-1.837
T5
X3.3006Y-3.1322
X3.4291Y-3.2854
T6
X3.8154Y-1.737
X3.8154Y-1.937
X4.0154Y-1.737
X4.0154Y-1.937
T3
G00X3.2362Y-1.9074
M15
G01X3.2195Y-1.8907
M16
G05
G00X3.4119Y-2.063
M15
G01X3.3952Y-2.0463
M16
G05
G00X3.4862Y-1.6574
M15
G01X3.4695Y-1.6407
M16
G05
G00X3.6418Y-1.833
M15
G01X3.6251Y-1.8163
M16
G05
M30
