M48
; DRILL file {KiCad 9.0.3+dfsg-1} date 2026-03-13T17:21:14+0100
; FORMAT={-:-/ absolute / inch / decimal}
; #@! TF.CreationDate,2026-03-13T17:21:14+01:00
; #@! TF.GenerationSoftware,Kicad,Pcbnew,9.0.3+dfsg-1
; #@! TF.FileFunction,Plated,1,2,PTH
FMAT,2
INCH
; #@! TA.AperFunction,Plated,PTH,ComponentDrill
T1C0.0098
; #@! TA.AperFunction,Plated,PTH,ViaDrill
T2C0.0118
; #@! TA.AperFunction,Plated,PTH,ComponentDrill
T3C0.0197
; #@! TA.AperFunction,Plated,PTH,ComponentDrill
T4C0.0295
; #@! TA.AperFunction,Plated,PTH,ComponentDrill
T5C0.0315
; #@! TA.AperFunction,Plated,PTH,ComponentDrill
T6C0.0591
; #@! TA.AperFunction,Plated,PTH,ComponentDrill
T7C0.0669
%
G90
G05
T1
X4.5049Y-3.032
X4.5049Y-3.0861
X4.5049Y-3.1403
X4.5591Y-3.032
X4.5591Y-3.0861
X4.5591Y-3.1403
X4.6132Y-3.032
X4.6132Y-3.0861
X4.6132Y-3.1403
T2
X3.1555Y-2.7867
X3.1673Y-2.7257
X3.1681Y-2.4988
X3.1949Y-2.5197
X3.1949Y-2.6824
X3.1988Y-2.0512
X3.1988Y-3.0295
X3.2224Y-2.8753
X3.2832Y-2.5883
X3.3228Y-2.5467
X3.374Y-2.9055
X3.379Y-2.4889
X3.3995Y-2.7061
X3.4035Y-2.8083
X3.4173Y-2.2221
X3.4193Y-2.0119
X3.4547Y-2.2221
X3.4803Y-1.905
X3.5079Y-2.6004
X3.509Y-1.892
X3.5098Y-2.8594
X3.5098Y-3.1806
X3.5453Y-2.7889
X3.5591Y-2.8613
X3.5681Y-2.0981
X3.5738Y-3.2013
X3.5906Y-1.5842
X3.6004Y-2.0487
X3.6032Y-2.094
X3.6102Y-3.1901
X3.6732Y-1.9424
X3.7047Y-1.6649
X3.7317Y-3.336
X3.7441Y-3.4449
X3.7598Y-2.0512
X3.7736Y-2.3091
X3.7874Y-2.5118
X3.7953Y-2.9794
X3.811Y-3.2677
X3.8543Y-3.4587
X3.8701Y-2.9794
X3.8767Y-3.2082
X3.9114Y-2.9401
X3.9134Y-2.9853
X3.9272Y-3.5157
X3.9469Y-3.1605
X3.9508Y-2.9696
X4.0039Y-3.0444
X4.0315Y-3.344
X4.0354Y-3.405
X4.0689Y-2.9794
X4.0768Y-3.3479
X4.1181Y-2.8676
X4.1496Y-1.6614
X4.1703Y-3.0705
X4.2087Y-3.3465
X4.2164Y-3.0669
X4.2264Y-3.5177
X4.2638Y-3.0689
X4.2815Y-2.2185
X4.2874Y-1.9311
X4.2894Y-2.2815
X4.2933Y-3.1478
X4.2961Y-3.0554
X4.2992Y-3.1949
X4.3031Y-2.7815
X4.3071Y-3.0197
X4.3177Y-3.0965
X4.3188Y-3.168
X4.3346Y-3.311
X4.3386Y-2.9547
X4.3425Y-2.2165
X4.3425Y-2.2874
X4.3465Y-1.7736
X4.3622Y-2.5748
X4.3622Y-2.9587
X4.3701Y-2.626
X4.3703Y-3.3555
X4.376Y-3.2201
X4.3858Y-1.9055
X4.4006Y-3.3445
X4.4009Y-3.2729
X4.4114Y-2.3386
X4.4134Y-1.7953
X4.4134Y-2.8932
X4.4171Y-3.4309
X4.4193Y-2.8342
X4.43Y-3.3591
X4.435Y-2.9191
X4.4587Y-3.1643
X4.4606Y-3.3425
X4.4705Y-2.6797
X4.4724Y-2.126
X4.4725Y-3.0343
X4.4744Y-3.1183
X4.4824Y-2.9857
X4.4843Y-2.811
X4.4876Y-3.3162
X4.4882Y-1.8976
X4.4941Y-2.0728
X4.4941Y-2.655
X4.4979Y-2.9154
X4.5Y-3.3957
X4.5059Y-2.5157
X4.5098Y-1.8622
X4.5104Y-3.2933
X4.5133Y-2.8287
X4.5315Y-2.9862
X4.5472Y-3.344
X4.5567Y-2.8362
X4.5689Y-2.8996
X4.5689Y-3.1821
X4.5832Y-2.8538
X4.5862Y-3.2957
X4.594Y-2.1063
X4.5984Y-2.0703
X4.6008Y-3.4
X4.626Y-2.1043
X4.6379Y-2.8362
X4.6422Y-2.7977
X4.6475Y-2.7617
X4.6476Y-2.2165
X4.6575Y-2.3248
X4.6599Y-2.9852
X4.6742Y-2.0266
X4.6772Y-3.2736
X4.6836Y-2.8732
X4.687Y-2.1063
X4.688Y-2.8356
X4.7028Y-2.5079
X4.7047Y-2.9173
X4.7101Y-3.3844
X4.7146Y-2.0256
X4.716Y-3.2177
X4.7283Y-3.3223
X4.7362Y-1.8563
X4.7372Y-2.9572
X4.7402Y-3.3661
X4.75Y-2.8676
X4.7644Y-3.3908
X4.7717Y-2.842
X4.8189Y-3.4429
X4.8192Y-2.374
X4.8406Y-3.0902
X4.8406Y-3.1654
X4.8445Y-2.9213
X4.851Y-3.122
X4.8539Y-2.9555
X4.8681Y-2.8996
X4.8694Y-3.0387
X4.8745Y-3.0744
X4.8834Y-2.9878
X4.8839Y-1.9606
X4.8917Y-3.189
X4.9252Y-2.9488
X4.9291Y-2.872
X4.9528Y-2.5039
X4.9601Y-3.1491
X4.9606Y-2.4488
X4.9744Y-3.0768
X4.9744Y-3.0177
X4.9783Y-2.6555
X4.9783Y-2.7353
X4.9998Y-2.9265
X5.0114Y-3.1295
X5.0217Y-3.1594
X5.0453Y-2.0448
X5.063Y-2.1102
X5.1102Y-2.3465
X5.1398Y-2.9528
X5.1649Y-2.9326
T3
X4.3858Y-3.5079
X4.4252Y-3.5079
X4.4646Y-3.5079
X4.5039Y-3.5079
X4.5433Y-3.5079
X4.7795Y-3.1969
X4.7795Y-3.2362
X4.7795Y-3.2756
X4.8189Y-3.1969
X4.8189Y-3.2362
X4.8189Y-3.2756
T4
X3.2638Y-3.0807
X3.3144Y-3.141
X3.8201Y-2.7443
X3.8758Y-2.7999
X4.872Y-2.6339
X4.872Y-2.7126
X4.872Y-2.7913
T5
X3.5385Y-2.2999
X3.5891Y-2.3602
X4.511Y-1.6851
X4.5886Y-1.6988
X4.6661Y-1.7125
X4.7437Y-1.7262
T6
X3.9154Y-1.837
T7
X3.8154Y-1.737
X3.8154Y-1.937
X4.0154Y-1.737
X4.0154Y-1.937
T3
G00X3.2362Y-1.9074
M15
G01X3.2195Y-1.8907
M16
G05
G00X3.4119Y-2.063
M15
G01X3.3952Y-2.0463
M16
G05
G00X3.4862Y-1.6574
M15
G01X3.4695Y-1.6407
M16
G05
G00X3.6418Y-1.833
M15
G01X3.6251Y-1.8163
M16
G05
M30
