%TF.GenerationSoftware,KiCad,Pcbnew,9.0.3+dfsg-1*%
%TF.CreationDate,2026-03-13T17:21:14+01:00*%
%TF.ProjectId,CanSat,43616e53-6174-42e6-9b69-6361645f7063,v3.1.0*%
%TF.SameCoordinates,Original*%
%TF.FileFunction,Legend,Bot*%
%TF.FilePolarity,Positive*%
%FSLAX46Y46*%
G04 Gerber Fmt 4.6, Leading zero omitted, Abs format (unit mm)*
G04 Created by KiCad (PCBNEW 9.0.3+dfsg-1) date 2026-03-13 17:21:14*
%MOMM*%
%LPD*%
G01*
G04 APERTURE LIST*
G04 Aperture macros list*
%AMRoundRect*
0 Rectangle with rounded corners*
0 $1 Rounding radius*
0 $2 $3 $4 $5 $6 $7 $8 $9 X,Y pos of 4 corners*
0 Add a 4 corners polygon primitive as box body*
4,1,4,$2,$3,$4,$5,$6,$7,$8,$9,$2,$3,0*
0 Add four circle primitives for the rounded corners*
1,1,$1+$1,$2,$3*
1,1,$1+$1,$4,$5*
1,1,$1+$1,$6,$7*
1,1,$1+$1,$8,$9*
0 Add four rect primitives between the rounded corners*
20,1,$1+$1,$2,$3,$4,$5,0*
20,1,$1+$1,$4,$5,$6,$7,0*
20,1,$1+$1,$6,$7,$8,$9,0*
20,1,$1+$1,$8,$9,$2,$3,0*%
%AMHorizOval*
0 Thick line with rounded ends*
0 $1 width*
0 $2 $3 position (X,Y) of the first rounded end (center of the circle)*
0 $4 $5 position (X,Y) of the second rounded end (center of the circle)*
0 Add line between two ends*
20,1,$1,$2,$3,$4,$5,0*
0 Add two circle primitives to create the rounded ends*
1,1,$1,$2,$3*
1,1,$1,$4,$5*%
%AMRotRect*
0 Rectangle, with rotation*
0 The origin of the aperture is its center*
0 $1 length*
0 $2 width*
0 $3 Rotation angle, in degrees counterclockwise*
0 Add horizontal line*
21,1,$1,$2,0,0,$3*%
G04 Aperture macros list end*
%ADD10C,0.100000*%
%ADD11C,0.150000*%
%ADD12C,0.120000*%
%ADD13RotRect,1.350000X1.350000X40.000000*%
%ADD14C,1.350000*%
%ADD15C,2.200000*%
%ADD16C,0.650000*%
%ADD17HorizOval,0.650000X-0.106066X-0.106066X0.106066X0.106066X0*%
%ADD18HorizOval,0.800000X-0.212132X0.212132X0.212132X-0.212132X0*%
%ADD19RotRect,1.350000X1.350000X260.000000*%
%ADD20C,2.050000*%
%ADD21C,2.250000*%
%ADD22R,0.850000X0.850000*%
%ADD23C,0.850000*%
%ADD24RoundRect,0.250000X0.262500X0.450000X-0.262500X0.450000X-0.262500X-0.450000X0.262500X-0.450000X0*%
%ADD25RoundRect,0.250000X-0.132583X0.503814X-0.503814X0.132583X0.132583X-0.503814X0.503814X-0.132583X0*%
%ADD26RoundRect,0.140000X-0.140000X-0.170000X0.140000X-0.170000X0.140000X0.170000X-0.140000X0.170000X0*%
%ADD27RoundRect,0.250000X0.475000X-0.250000X0.475000X0.250000X-0.475000X0.250000X-0.475000X-0.250000X0*%
%ADD28RoundRect,0.150000X-0.625000X0.150000X-0.625000X-0.150000X0.625000X-0.150000X0.625000X0.150000X0*%
%ADD29RoundRect,0.250000X-0.650000X0.350000X-0.650000X-0.350000X0.650000X-0.350000X0.650000X0.350000X0*%
%ADD30RoundRect,0.140000X0.140000X0.170000X-0.140000X0.170000X-0.140000X-0.170000X0.140000X-0.170000X0*%
%ADD31RoundRect,0.250000X-0.262500X-0.450000X0.262500X-0.450000X0.262500X0.450000X-0.262500X0.450000X0*%
%ADD32RoundRect,0.250000X0.703753X0.133627X0.253802X0.669858X-0.703753X-0.133627X-0.253802X-0.669858X0*%
%ADD33HorizOval,1.200000X0.210662X0.176767X-0.210662X-0.176767X0*%
%ADD34RoundRect,0.150000X0.150000X0.625000X-0.150000X0.625000X-0.150000X-0.625000X0.150000X-0.625000X0*%
%ADD35RoundRect,0.250000X0.350000X0.650000X-0.350000X0.650000X-0.350000X-0.650000X0.350000X-0.650000X0*%
%ADD36RoundRect,0.250000X0.625000X-0.350000X0.625000X0.350000X-0.625000X0.350000X-0.625000X-0.350000X0*%
%ADD37O,1.750000X1.200000*%
%ADD38RoundRect,0.317500X1.195048X0.111679X-1.084782X0.513674X-1.195048X-0.111679X1.084782X-0.513674X0*%
%ADD39RoundRect,0.250000X-0.250000X-0.475000X0.250000X-0.475000X0.250000X0.475000X-0.250000X0.475000X0*%
%ADD40RoundRect,0.225000X-0.106066X0.424264X-0.424264X0.106066X0.106066X-0.424264X0.424264X-0.106066X0*%
%ADD41RoundRect,0.075000X-0.075000X0.350000X-0.075000X-0.350000X0.075000X-0.350000X0.075000X0.350000X0*%
%ADD42RoundRect,0.075000X0.350000X0.075000X-0.350000X0.075000X-0.350000X-0.075000X0.350000X-0.075000X0*%
%ADD43RoundRect,0.140000X-0.017173X-0.219557X0.212189X-0.058955X0.017173X0.219557X-0.212189X0.058955X0*%
%ADD44RoundRect,0.250000X0.689429X0.194454X0.194454X0.689429X-0.689429X-0.194454X-0.194454X-0.689429X0*%
%ADD45HorizOval,1.200000X0.194454X0.194454X-0.194454X-0.194454X0*%
%ADD46RoundRect,0.135000X0.135000X0.185000X-0.135000X0.185000X-0.135000X-0.185000X0.135000X-0.185000X0*%
G04 APERTURE END LIST*
D10*
X84400000Y-75950000D02*
G75*
G02*
X84300000Y-75950000I-50000J0D01*
G01*
X84300000Y-75950000D02*
G75*
G02*
X84400000Y-75950000I50000J0D01*
G01*
X112450000Y-90400000D02*
G75*
G02*
X112350000Y-90400000I-50000J0D01*
G01*
X112350000Y-90400000D02*
G75*
G02*
X112450000Y-90400000I50000J0D01*
G01*
D11*
X119167438Y-82060588D02*
X119119819Y-81965350D01*
X119119819Y-81965350D02*
X119119819Y-81822493D01*
X119119819Y-81822493D02*
X119167438Y-81679636D01*
X119167438Y-81679636D02*
X119262676Y-81584398D01*
X119262676Y-81584398D02*
X119357914Y-81536779D01*
X119357914Y-81536779D02*
X119548390Y-81489160D01*
X119548390Y-81489160D02*
X119691247Y-81489160D01*
X119691247Y-81489160D02*
X119881723Y-81536779D01*
X119881723Y-81536779D02*
X119976961Y-81584398D01*
X119976961Y-81584398D02*
X120072200Y-81679636D01*
X120072200Y-81679636D02*
X120119819Y-81822493D01*
X120119819Y-81822493D02*
X120119819Y-81917731D01*
X120119819Y-81917731D02*
X120072200Y-82060588D01*
X120072200Y-82060588D02*
X120024580Y-82108207D01*
X120024580Y-82108207D02*
X119691247Y-82108207D01*
X119691247Y-82108207D02*
X119691247Y-81917731D01*
X120119819Y-82536779D02*
X119119819Y-82536779D01*
X119119819Y-82536779D02*
X119119819Y-82917731D01*
X119119819Y-82917731D02*
X119167438Y-83012969D01*
X119167438Y-83012969D02*
X119215057Y-83060588D01*
X119215057Y-83060588D02*
X119310295Y-83108207D01*
X119310295Y-83108207D02*
X119453152Y-83108207D01*
X119453152Y-83108207D02*
X119548390Y-83060588D01*
X119548390Y-83060588D02*
X119596009Y-83012969D01*
X119596009Y-83012969D02*
X119643628Y-82917731D01*
X119643628Y-82917731D02*
X119643628Y-82536779D01*
X88396087Y-59530190D02*
X87688980Y-60237297D01*
X88059369Y-60472999D02*
X88059369Y-60540342D01*
X88059369Y-60540342D02*
X88093040Y-60641358D01*
X88093040Y-60641358D02*
X88261399Y-60809716D01*
X88261399Y-60809716D02*
X88362414Y-60843388D01*
X88362414Y-60843388D02*
X88429758Y-60843388D01*
X88429758Y-60843388D02*
X88530773Y-60809716D01*
X88530773Y-60809716D02*
X88598117Y-60742373D01*
X88598117Y-60742373D02*
X88665460Y-60607686D01*
X88665460Y-60607686D02*
X88665460Y-59799564D01*
X88665460Y-59799564D02*
X89103193Y-60237297D01*
X89742956Y-61011747D02*
X89742956Y-60944403D01*
X89742956Y-60944403D02*
X89675613Y-60809716D01*
X89675613Y-60809716D02*
X89608269Y-60742373D01*
X89608269Y-60742373D02*
X89473582Y-60675029D01*
X89473582Y-60675029D02*
X89338895Y-60675029D01*
X89338895Y-60675029D02*
X89237880Y-60708701D01*
X89237880Y-60708701D02*
X89069521Y-60809716D01*
X89069521Y-60809716D02*
X88968506Y-60910732D01*
X88968506Y-60910732D02*
X88867491Y-61079090D01*
X88867491Y-61079090D02*
X88833819Y-61180106D01*
X88833819Y-61180106D02*
X88833819Y-61314793D01*
X88833819Y-61314793D02*
X88901163Y-61449480D01*
X88901163Y-61449480D02*
X88968506Y-61516823D01*
X88968506Y-61516823D02*
X89103193Y-61584167D01*
X89103193Y-61584167D02*
X89170537Y-61584167D01*
X114423985Y-56063338D02*
X114013026Y-56474412D01*
X113861238Y-55964111D02*
X113687589Y-56948919D01*
X113687589Y-56948919D02*
X114062754Y-57015070D01*
X114062754Y-57015070D02*
X114164814Y-56984713D01*
X114164814Y-56984713D02*
X114219979Y-56946086D01*
X114219979Y-56946086D02*
X114283413Y-56860564D01*
X114283413Y-56860564D02*
X114308219Y-56719877D01*
X114308219Y-56719877D02*
X114277862Y-56617817D01*
X114277862Y-56617817D02*
X114239235Y-56562652D01*
X114239235Y-56562652D02*
X114153713Y-56499219D01*
X114153713Y-56499219D02*
X113778548Y-56433067D01*
X114986732Y-56162566D02*
X114884672Y-56192924D01*
X114884672Y-56192924D02*
X114829507Y-56231550D01*
X114829507Y-56231550D02*
X114766074Y-56317072D01*
X114766074Y-56317072D02*
X114716460Y-56598446D01*
X114716460Y-56598446D02*
X114746818Y-56700506D01*
X114746818Y-56700506D02*
X114785444Y-56755671D01*
X114785444Y-56755671D02*
X114870967Y-56819104D01*
X114870967Y-56819104D02*
X115011654Y-56843911D01*
X115011654Y-56843911D02*
X115113714Y-56813554D01*
X115113714Y-56813554D02*
X115168878Y-56774927D01*
X115168878Y-56774927D02*
X115232312Y-56689405D01*
X115232312Y-56689405D02*
X115281926Y-56408031D01*
X115281926Y-56408031D02*
X115251568Y-56305971D01*
X115251568Y-56305971D02*
X115212941Y-56250806D01*
X115212941Y-56250806D02*
X115127419Y-56187373D01*
X115127419Y-56187373D02*
X114986732Y-56162566D01*
X115737062Y-56294869D02*
X115621297Y-56951408D01*
X115637834Y-56857617D02*
X115676461Y-56912781D01*
X115676461Y-56912781D02*
X115761983Y-56976215D01*
X115761983Y-56976215D02*
X115902670Y-57001022D01*
X115902670Y-57001022D02*
X116004730Y-56970664D01*
X116004730Y-56970664D02*
X116068164Y-56885142D01*
X116068164Y-56885142D02*
X116159122Y-56369290D01*
X116068164Y-56885142D02*
X116098522Y-56987202D01*
X116098522Y-56987202D02*
X116184044Y-57050635D01*
X116184044Y-57050635D02*
X116324731Y-57075442D01*
X116324731Y-57075442D02*
X116426791Y-57045084D01*
X116426791Y-57045084D02*
X116490224Y-56959562D01*
X116490224Y-56959562D02*
X116581183Y-56443711D01*
X117417035Y-56639447D02*
X117331512Y-56576014D01*
X117331512Y-56576014D02*
X117143930Y-56542938D01*
X117143930Y-56542938D02*
X117041870Y-56573296D01*
X117041870Y-56573296D02*
X116978436Y-56658818D01*
X116978436Y-56658818D02*
X116912285Y-57033983D01*
X116912285Y-57033983D02*
X116942642Y-57136043D01*
X116942642Y-57136043D02*
X117028164Y-57199477D01*
X117028164Y-57199477D02*
X117215747Y-57232552D01*
X117215747Y-57232552D02*
X117317807Y-57202195D01*
X117317807Y-57202195D02*
X117381241Y-57116672D01*
X117381241Y-57116672D02*
X117397778Y-57022881D01*
X117397778Y-57022881D02*
X116945360Y-56846400D01*
X118034947Y-56700048D02*
X117932886Y-56730406D01*
X117932886Y-56730406D02*
X117877722Y-56769033D01*
X117877722Y-56769033D02*
X117814288Y-56854555D01*
X117814288Y-56854555D02*
X117764675Y-57135929D01*
X117764675Y-57135929D02*
X117795032Y-57237989D01*
X117795032Y-57237989D02*
X117833659Y-57293153D01*
X117833659Y-57293153D02*
X117919181Y-57356587D01*
X117919181Y-57356587D02*
X118059868Y-57381394D01*
X118059868Y-57381394D02*
X118161928Y-57351036D01*
X118161928Y-57351036D02*
X118217093Y-57312409D01*
X118217093Y-57312409D02*
X118280526Y-57226887D01*
X118280526Y-57226887D02*
X118330140Y-56945513D01*
X118330140Y-56945513D02*
X118299782Y-56843453D01*
X118299782Y-56843453D02*
X118261156Y-56788289D01*
X118261156Y-56788289D02*
X118175633Y-56724855D01*
X118175633Y-56724855D02*
X118034947Y-56700048D01*
X114378112Y-54952360D02*
X114049843Y-54894477D01*
X114140802Y-54378626D02*
X113967153Y-55363434D01*
X113967153Y-55363434D02*
X114436110Y-55446123D01*
X115125610Y-54552274D02*
X115023549Y-54582632D01*
X115023549Y-54582632D02*
X114968385Y-54621258D01*
X114968385Y-54621258D02*
X114904951Y-54706781D01*
X114904951Y-54706781D02*
X114855337Y-54988154D01*
X114855337Y-54988154D02*
X114885695Y-55090214D01*
X114885695Y-55090214D02*
X114924322Y-55145379D01*
X114924322Y-55145379D02*
X115009844Y-55208813D01*
X115009844Y-55208813D02*
X115150531Y-55233619D01*
X115150531Y-55233619D02*
X115252591Y-55203262D01*
X115252591Y-55203262D02*
X115307756Y-55164635D01*
X115307756Y-55164635D02*
X115371189Y-55079113D01*
X115371189Y-55079113D02*
X115420803Y-54797739D01*
X115420803Y-54797739D02*
X115390445Y-54695679D01*
X115390445Y-54695679D02*
X115351819Y-54640514D01*
X115351819Y-54640514D02*
X115266296Y-54577081D01*
X115266296Y-54577081D02*
X115125610Y-54552274D01*
X115782148Y-54668039D02*
X116182234Y-55415537D01*
X115666383Y-55324578D02*
X116298000Y-54758998D01*
X116416713Y-55456881D02*
X116791877Y-55523033D01*
X116499517Y-55809958D02*
X116648358Y-54965837D01*
X116648358Y-54965837D02*
X116711791Y-54880314D01*
X116711791Y-54880314D02*
X116813852Y-54849957D01*
X116813852Y-54849957D02*
X116907643Y-54866495D01*
X117235913Y-54924377D02*
X117120147Y-55580916D01*
X117153223Y-55393333D02*
X117183581Y-55495394D01*
X117183581Y-55495394D02*
X117222207Y-55550558D01*
X117222207Y-55550558D02*
X117307730Y-55613992D01*
X117307730Y-55613992D02*
X117401521Y-55630530D01*
X117986243Y-55056681D02*
X117884182Y-55087039D01*
X117884182Y-55087039D02*
X117829018Y-55125665D01*
X117829018Y-55125665D02*
X117765584Y-55211187D01*
X117765584Y-55211187D02*
X117715971Y-55492561D01*
X117715971Y-55492561D02*
X117746328Y-55594621D01*
X117746328Y-55594621D02*
X117784955Y-55649786D01*
X117784955Y-55649786D02*
X117870477Y-55713219D01*
X117870477Y-55713219D02*
X118011164Y-55738026D01*
X118011164Y-55738026D02*
X118113224Y-55707669D01*
X118113224Y-55707669D02*
X118168389Y-55669042D01*
X118168389Y-55669042D02*
X118231822Y-55583520D01*
X118231822Y-55583520D02*
X118281436Y-55302146D01*
X118281436Y-55302146D02*
X118251078Y-55200086D01*
X118251078Y-55200086D02*
X118212452Y-55144921D01*
X118212452Y-55144921D02*
X118126929Y-55081488D01*
X118126929Y-55081488D02*
X117986243Y-55056681D01*
X118480120Y-55820716D02*
X118855285Y-55886868D01*
X118562924Y-56173792D02*
X118711766Y-55329671D01*
X118711766Y-55329671D02*
X118775199Y-55244149D01*
X118775199Y-55244149D02*
X118877259Y-55213791D01*
X118877259Y-55213791D02*
X118971050Y-55230329D01*
X114420366Y-52793141D02*
X114246717Y-53777949D01*
X114246717Y-53777949D02*
X114699021Y-53132397D01*
X114699021Y-53132397D02*
X114903256Y-53893714D01*
X114903256Y-53893714D02*
X115076904Y-52908906D01*
X115545860Y-52991596D02*
X115430095Y-53648134D01*
X115372212Y-53976404D02*
X115333585Y-53921239D01*
X115333585Y-53921239D02*
X115388750Y-53882612D01*
X115388750Y-53882612D02*
X115427376Y-53937777D01*
X115427376Y-53937777D02*
X115372212Y-53976404D01*
X115372212Y-53976404D02*
X115388750Y-53882612D01*
X116014816Y-53074285D02*
X115841167Y-54059093D01*
X116042455Y-53465988D02*
X116389981Y-53140437D01*
X116274215Y-53796976D02*
X115965202Y-53355659D01*
X117178937Y-53327905D02*
X117093415Y-53264472D01*
X117093415Y-53264472D02*
X116905832Y-53231396D01*
X116905832Y-53231396D02*
X116803772Y-53261753D01*
X116803772Y-53261753D02*
X116740339Y-53347276D01*
X116740339Y-53347276D02*
X116674187Y-53722440D01*
X116674187Y-53722440D02*
X116704545Y-53824501D01*
X116704545Y-53824501D02*
X116790067Y-53887934D01*
X116790067Y-53887934D02*
X116977649Y-53921010D01*
X116977649Y-53921010D02*
X117079710Y-53890652D01*
X117079710Y-53890652D02*
X117143143Y-53805130D01*
X117143143Y-53805130D02*
X117159681Y-53711339D01*
X117159681Y-53711339D02*
X116707263Y-53534858D01*
X114699930Y-51207656D02*
X114526281Y-52192464D01*
X114526281Y-52192464D02*
X115262677Y-51306883D01*
X115262677Y-51306883D02*
X115089029Y-52291691D01*
X115731633Y-51389573D02*
X115615867Y-52046111D01*
X115557985Y-52374381D02*
X115519358Y-52319216D01*
X115519358Y-52319216D02*
X115574523Y-52280589D01*
X115574523Y-52280589D02*
X115613149Y-52335754D01*
X115613149Y-52335754D02*
X115557985Y-52374381D01*
X115557985Y-52374381D02*
X115574523Y-52280589D01*
X116084823Y-52128801D02*
X116200589Y-51472262D01*
X116101361Y-52035010D02*
X116139988Y-52090174D01*
X116139988Y-52090174D02*
X116225510Y-52153608D01*
X116225510Y-52153608D02*
X116366197Y-52178415D01*
X116366197Y-52178415D02*
X116468257Y-52148057D01*
X116468257Y-52148057D02*
X116531690Y-52062535D01*
X116531690Y-52062535D02*
X116622649Y-51546683D01*
X117458501Y-51742420D02*
X117372979Y-51678987D01*
X117372979Y-51678987D02*
X117185396Y-51645911D01*
X117185396Y-51645911D02*
X117083336Y-51676268D01*
X117083336Y-51676268D02*
X117019903Y-51761791D01*
X117019903Y-51761791D02*
X116953751Y-52136955D01*
X116953751Y-52136955D02*
X116984109Y-52239016D01*
X116984109Y-52239016D02*
X117069631Y-52302449D01*
X117069631Y-52302449D02*
X117257213Y-52335525D01*
X117257213Y-52335525D02*
X117359274Y-52305167D01*
X117359274Y-52305167D02*
X117422707Y-52219645D01*
X117422707Y-52219645D02*
X117439245Y-52125854D01*
X117439245Y-52125854D02*
X116986827Y-51949373D01*
X117935726Y-51778214D02*
X117819961Y-52434753D01*
X117853037Y-52247170D02*
X117883394Y-52349230D01*
X117883394Y-52349230D02*
X117922021Y-52404395D01*
X117922021Y-52404395D02*
X118007543Y-52467828D01*
X118007543Y-52467828D02*
X118101334Y-52484366D01*
X114888535Y-50138022D02*
X115216804Y-50195905D01*
X115448450Y-49704860D02*
X114979494Y-49622171D01*
X114979494Y-49622171D02*
X114805845Y-50606979D01*
X114805845Y-50606979D02*
X115274802Y-50689668D01*
X115870510Y-49779281D02*
X115754745Y-50435820D01*
X115696862Y-50764089D02*
X115658235Y-50708924D01*
X115658235Y-50708924D02*
X115713400Y-50670298D01*
X115713400Y-50670298D02*
X115752027Y-50725462D01*
X115752027Y-50725462D02*
X115696862Y-50764089D01*
X115696862Y-50764089D02*
X115713400Y-50670298D01*
X116645761Y-50592930D02*
X116786333Y-49795704D01*
X116786333Y-49795704D02*
X116755976Y-49693644D01*
X116755976Y-49693644D02*
X116717349Y-49638480D01*
X116717349Y-49638480D02*
X116631827Y-49575046D01*
X116631827Y-49575046D02*
X116491140Y-49550239D01*
X116491140Y-49550239D02*
X116389080Y-49580597D01*
X116753257Y-49983287D02*
X116667735Y-49919853D01*
X116667735Y-49919853D02*
X116480153Y-49886777D01*
X116480153Y-49886777D02*
X116378093Y-49917135D01*
X116378093Y-49917135D02*
X116322928Y-49955762D01*
X116322928Y-49955762D02*
X116259494Y-50041284D01*
X116259494Y-50041284D02*
X116209881Y-50322658D01*
X116209881Y-50322658D02*
X116240238Y-50424718D01*
X116240238Y-50424718D02*
X116278865Y-50479882D01*
X116278865Y-50479882D02*
X116364387Y-50543316D01*
X116364387Y-50543316D02*
X116551970Y-50576392D01*
X116551970Y-50576392D02*
X116654030Y-50546034D01*
X117230482Y-50019081D02*
X117056834Y-51003889D01*
X117652543Y-50093502D02*
X117561584Y-50609353D01*
X117561584Y-50609353D02*
X117498151Y-50694875D01*
X117498151Y-50694875D02*
X117396091Y-50725233D01*
X117396091Y-50725233D02*
X117255404Y-50700426D01*
X117255404Y-50700426D02*
X117169882Y-50636993D01*
X117169882Y-50636993D02*
X117131255Y-50581828D01*
X117865047Y-50807923D02*
X118240212Y-50874074D01*
X117947851Y-51160999D02*
X118096692Y-50316878D01*
X118096692Y-50316878D02*
X118160126Y-50231356D01*
X118160126Y-50231356D02*
X118262186Y-50200998D01*
X118262186Y-50200998D02*
X118355977Y-50217536D01*
X114991618Y-49004956D02*
X115399744Y-48061493D01*
X115399744Y-48061493D02*
X115463292Y-48798003D01*
X115463292Y-48798003D02*
X115774909Y-48127644D01*
X115774909Y-48127644D02*
X115835739Y-49153797D01*
X116384552Y-48235141D02*
X116210904Y-49219949D01*
X116806613Y-48309561D02*
X116715654Y-48825413D01*
X116715654Y-48825413D02*
X116652220Y-48910935D01*
X116652220Y-48910935D02*
X116550160Y-48941293D01*
X116550160Y-48941293D02*
X116409473Y-48916486D01*
X116409473Y-48916486D02*
X116323951Y-48853053D01*
X116323951Y-48853053D02*
X116285325Y-48797888D01*
X117275569Y-48392251D02*
X117159803Y-49048790D01*
X117101921Y-49377059D02*
X117063294Y-49321894D01*
X117063294Y-49321894D02*
X117118458Y-49283268D01*
X117118458Y-49283268D02*
X117157085Y-49338432D01*
X117157085Y-49338432D02*
X117101921Y-49377059D01*
X117101921Y-49377059D02*
X117118458Y-49283268D01*
X117689360Y-48513567D02*
X117791420Y-48483210D01*
X117791420Y-48483210D02*
X117979002Y-48516285D01*
X117979002Y-48516285D02*
X118064525Y-48579719D01*
X118064525Y-48579719D02*
X118094882Y-48681779D01*
X118094882Y-48681779D02*
X118086613Y-48728675D01*
X118086613Y-48728675D02*
X118023180Y-48814197D01*
X118023180Y-48814197D02*
X117921120Y-48844555D01*
X117921120Y-48844555D02*
X117780433Y-48819748D01*
X117780433Y-48819748D02*
X117678373Y-48850106D01*
X117678373Y-48850106D02*
X117614939Y-48935628D01*
X117614939Y-48935628D02*
X117606670Y-48982523D01*
X117606670Y-48982523D02*
X117637028Y-49084584D01*
X117637028Y-49084584D02*
X117722550Y-49148017D01*
X117722550Y-49148017D02*
X117863237Y-49172824D01*
X117863237Y-49172824D02*
X117965297Y-49142466D01*
X118541750Y-48615513D02*
X118368102Y-49600321D01*
X118569389Y-49007216D02*
X118916915Y-48681665D01*
X118801149Y-49338203D02*
X118492136Y-48896887D01*
X119129419Y-49396086D02*
X119479662Y-48780892D01*
X119598375Y-49478776D02*
X119479662Y-48780892D01*
X119479662Y-48780892D02*
X119427216Y-48529876D01*
X119427216Y-48529876D02*
X119388589Y-48474712D01*
X119388589Y-48474712D02*
X119303067Y-48411278D01*
X99130190Y-74353912D02*
X99837297Y-75061019D01*
X99837297Y-75061019D02*
X100106671Y-74791645D01*
X100106671Y-74791645D02*
X100140343Y-74690630D01*
X100140343Y-74690630D02*
X100140343Y-74623286D01*
X100140343Y-74623286D02*
X100106671Y-74522271D01*
X100106671Y-74522271D02*
X100005656Y-74421256D01*
X100005656Y-74421256D02*
X99904641Y-74387584D01*
X99904641Y-74387584D02*
X99837297Y-74387584D01*
X99837297Y-74387584D02*
X99736282Y-74421256D01*
X99736282Y-74421256D02*
X99466908Y-74690630D01*
X100308702Y-73848836D02*
X99971984Y-73512119D01*
X100443389Y-74454928D02*
X100308702Y-73848836D01*
X100308702Y-73848836D02*
X100914793Y-73983523D01*
X100847450Y-72636653D02*
X100948465Y-73209073D01*
X100443389Y-73040714D02*
X101150495Y-73747821D01*
X101150495Y-73747821D02*
X101419869Y-73478447D01*
X101419869Y-73478447D02*
X101453541Y-73377432D01*
X101453541Y-73377432D02*
X101453541Y-73310088D01*
X101453541Y-73310088D02*
X101419869Y-73209073D01*
X101419869Y-73209073D02*
X101318854Y-73108058D01*
X101318854Y-73108058D02*
X101217839Y-73074386D01*
X101217839Y-73074386D02*
X101150495Y-73074386D01*
X101150495Y-73074386D02*
X101049480Y-73108058D01*
X101049480Y-73108058D02*
X100780106Y-73377432D01*
X101992289Y-72906027D02*
X102126976Y-72771340D01*
X102126976Y-72771340D02*
X102160648Y-72670325D01*
X102160648Y-72670325D02*
X102160648Y-72535638D01*
X102160648Y-72535638D02*
X102059633Y-72367279D01*
X102059633Y-72367279D02*
X101823930Y-72131577D01*
X101823930Y-72131577D02*
X101655572Y-72030561D01*
X101655572Y-72030561D02*
X101520885Y-72030561D01*
X101520885Y-72030561D02*
X101419869Y-72064233D01*
X101419869Y-72064233D02*
X101285182Y-72198920D01*
X101285182Y-72198920D02*
X101251511Y-72299936D01*
X101251511Y-72299936D02*
X101251511Y-72434623D01*
X101251511Y-72434623D02*
X101352526Y-72602981D01*
X101352526Y-72602981D02*
X101588228Y-72838684D01*
X101588228Y-72838684D02*
X101756587Y-72939699D01*
X101756587Y-72939699D02*
X101891274Y-72939699D01*
X101891274Y-72939699D02*
X101992289Y-72906027D01*
X112710588Y-91532561D02*
X112615350Y-91580180D01*
X112615350Y-91580180D02*
X112472493Y-91580180D01*
X112472493Y-91580180D02*
X112329636Y-91532561D01*
X112329636Y-91532561D02*
X112234398Y-91437323D01*
X112234398Y-91437323D02*
X112186779Y-91342085D01*
X112186779Y-91342085D02*
X112139160Y-91151609D01*
X112139160Y-91151609D02*
X112139160Y-91008752D01*
X112139160Y-91008752D02*
X112186779Y-90818276D01*
X112186779Y-90818276D02*
X112234398Y-90723038D01*
X112234398Y-90723038D02*
X112329636Y-90627800D01*
X112329636Y-90627800D02*
X112472493Y-90580180D01*
X112472493Y-90580180D02*
X112567731Y-90580180D01*
X112567731Y-90580180D02*
X112710588Y-90627800D01*
X112710588Y-90627800D02*
X112758207Y-90675419D01*
X112758207Y-90675419D02*
X112758207Y-91008752D01*
X112758207Y-91008752D02*
X112567731Y-91008752D01*
X113186779Y-90580180D02*
X113186779Y-91580180D01*
X113186779Y-91580180D02*
X113567731Y-91580180D01*
X113567731Y-91580180D02*
X113662969Y-91532561D01*
X113662969Y-91532561D02*
X113710588Y-91484942D01*
X113710588Y-91484942D02*
X113758207Y-91389704D01*
X113758207Y-91389704D02*
X113758207Y-91246847D01*
X113758207Y-91246847D02*
X113710588Y-91151609D01*
X113710588Y-91151609D02*
X113662969Y-91103990D01*
X113662969Y-91103990D02*
X113567731Y-91056371D01*
X113567731Y-91056371D02*
X113186779Y-91056371D01*
X114139160Y-90627800D02*
X114282017Y-90580180D01*
X114282017Y-90580180D02*
X114520112Y-90580180D01*
X114520112Y-90580180D02*
X114615350Y-90627800D01*
X114615350Y-90627800D02*
X114662969Y-90675419D01*
X114662969Y-90675419D02*
X114710588Y-90770657D01*
X114710588Y-90770657D02*
X114710588Y-90865895D01*
X114710588Y-90865895D02*
X114662969Y-90961133D01*
X114662969Y-90961133D02*
X114615350Y-91008752D01*
X114615350Y-91008752D02*
X114520112Y-91056371D01*
X114520112Y-91056371D02*
X114329636Y-91103990D01*
X114329636Y-91103990D02*
X114234398Y-91151609D01*
X114234398Y-91151609D02*
X114186779Y-91199228D01*
X114186779Y-91199228D02*
X114139160Y-91294466D01*
X114139160Y-91294466D02*
X114139160Y-91389704D01*
X114139160Y-91389704D02*
X114186779Y-91484942D01*
X114186779Y-91484942D02*
X114234398Y-91532561D01*
X114234398Y-91532561D02*
X114329636Y-91580180D01*
X114329636Y-91580180D02*
X114567731Y-91580180D01*
X114567731Y-91580180D02*
X114710588Y-91532561D01*
D10*
X83742108Y-71185713D02*
X84142108Y-71185713D01*
X83742108Y-70633333D02*
X83761156Y-70671428D01*
X83761156Y-70671428D02*
X83799251Y-70690475D01*
X83799251Y-70690475D02*
X84142108Y-70690475D01*
X83742108Y-70480951D02*
X84008775Y-70480951D01*
X84142108Y-70480951D02*
X84123060Y-70499999D01*
X84123060Y-70499999D02*
X84104013Y-70480951D01*
X84104013Y-70480951D02*
X84123060Y-70461904D01*
X84123060Y-70461904D02*
X84142108Y-70480951D01*
X84142108Y-70480951D02*
X84104013Y-70480951D01*
X83742108Y-70290475D02*
X84142108Y-70290475D01*
X83894489Y-70252380D02*
X83742108Y-70138094D01*
X84008775Y-70138094D02*
X83856394Y-70290475D01*
X83761156Y-69814284D02*
X83742108Y-69852380D01*
X83742108Y-69852380D02*
X83742108Y-69928570D01*
X83742108Y-69928570D02*
X83761156Y-69966665D01*
X83761156Y-69966665D02*
X83799251Y-69985713D01*
X83799251Y-69985713D02*
X83951632Y-69985713D01*
X83951632Y-69985713D02*
X83989727Y-69966665D01*
X83989727Y-69966665D02*
X84008775Y-69928570D01*
X84008775Y-69928570D02*
X84008775Y-69852380D01*
X84008775Y-69852380D02*
X83989727Y-69814284D01*
X83989727Y-69814284D02*
X83951632Y-69795237D01*
X83951632Y-69795237D02*
X83913536Y-69795237D01*
X83913536Y-69795237D02*
X83875441Y-69985713D01*
X84008775Y-69376189D02*
X84008775Y-69223808D01*
X84142108Y-69319046D02*
X83799251Y-69319046D01*
X83799251Y-69319046D02*
X83761156Y-69299999D01*
X83761156Y-69299999D02*
X83742108Y-69261904D01*
X83742108Y-69261904D02*
X83742108Y-69223808D01*
X83742108Y-69033333D02*
X83761156Y-69071428D01*
X83761156Y-69071428D02*
X83780203Y-69090475D01*
X83780203Y-69090475D02*
X83818298Y-69109523D01*
X83818298Y-69109523D02*
X83932584Y-69109523D01*
X83932584Y-69109523D02*
X83970679Y-69090475D01*
X83970679Y-69090475D02*
X83989727Y-69071428D01*
X83989727Y-69071428D02*
X84008775Y-69033333D01*
X84008775Y-69033333D02*
X84008775Y-68976190D01*
X84008775Y-68976190D02*
X83989727Y-68938094D01*
X83989727Y-68938094D02*
X83970679Y-68919047D01*
X83970679Y-68919047D02*
X83932584Y-68899999D01*
X83932584Y-68899999D02*
X83818298Y-68899999D01*
X83818298Y-68899999D02*
X83780203Y-68919047D01*
X83780203Y-68919047D02*
X83761156Y-68938094D01*
X83761156Y-68938094D02*
X83742108Y-68976190D01*
X83742108Y-68976190D02*
X83742108Y-69033333D01*
X83098130Y-71090475D02*
X83364797Y-71090475D01*
X83326701Y-71090475D02*
X83345749Y-71071428D01*
X83345749Y-71071428D02*
X83364797Y-71033333D01*
X83364797Y-71033333D02*
X83364797Y-70976190D01*
X83364797Y-70976190D02*
X83345749Y-70938094D01*
X83345749Y-70938094D02*
X83307654Y-70919047D01*
X83307654Y-70919047D02*
X83098130Y-70919047D01*
X83307654Y-70919047D02*
X83345749Y-70899999D01*
X83345749Y-70899999D02*
X83364797Y-70861904D01*
X83364797Y-70861904D02*
X83364797Y-70804761D01*
X83364797Y-70804761D02*
X83345749Y-70766666D01*
X83345749Y-70766666D02*
X83307654Y-70747618D01*
X83307654Y-70747618D02*
X83098130Y-70747618D01*
X83098130Y-70500000D02*
X83117178Y-70538095D01*
X83117178Y-70538095D02*
X83136225Y-70557142D01*
X83136225Y-70557142D02*
X83174320Y-70576190D01*
X83174320Y-70576190D02*
X83288606Y-70576190D01*
X83288606Y-70576190D02*
X83326701Y-70557142D01*
X83326701Y-70557142D02*
X83345749Y-70538095D01*
X83345749Y-70538095D02*
X83364797Y-70500000D01*
X83364797Y-70500000D02*
X83364797Y-70442857D01*
X83364797Y-70442857D02*
X83345749Y-70404761D01*
X83345749Y-70404761D02*
X83326701Y-70385714D01*
X83326701Y-70385714D02*
X83288606Y-70366666D01*
X83288606Y-70366666D02*
X83174320Y-70366666D01*
X83174320Y-70366666D02*
X83136225Y-70385714D01*
X83136225Y-70385714D02*
X83117178Y-70404761D01*
X83117178Y-70404761D02*
X83098130Y-70442857D01*
X83098130Y-70442857D02*
X83098130Y-70500000D01*
X83364797Y-70233333D02*
X83098130Y-70138095D01*
X83098130Y-70138095D02*
X83364797Y-70042856D01*
X83117178Y-69738094D02*
X83098130Y-69776190D01*
X83098130Y-69776190D02*
X83098130Y-69852380D01*
X83098130Y-69852380D02*
X83117178Y-69890475D01*
X83117178Y-69890475D02*
X83155273Y-69909523D01*
X83155273Y-69909523D02*
X83307654Y-69909523D01*
X83307654Y-69909523D02*
X83345749Y-69890475D01*
X83345749Y-69890475D02*
X83364797Y-69852380D01*
X83364797Y-69852380D02*
X83364797Y-69776190D01*
X83364797Y-69776190D02*
X83345749Y-69738094D01*
X83345749Y-69738094D02*
X83307654Y-69719047D01*
X83307654Y-69719047D02*
X83269558Y-69719047D01*
X83269558Y-69719047D02*
X83231463Y-69909523D01*
X83098130Y-69242856D02*
X83364797Y-69242856D01*
X83498130Y-69242856D02*
X83479082Y-69261904D01*
X83479082Y-69261904D02*
X83460035Y-69242856D01*
X83460035Y-69242856D02*
X83479082Y-69223809D01*
X83479082Y-69223809D02*
X83498130Y-69242856D01*
X83498130Y-69242856D02*
X83460035Y-69242856D01*
X83364797Y-69109523D02*
X83364797Y-68957142D01*
X83498130Y-69052380D02*
X83155273Y-69052380D01*
X83155273Y-69052380D02*
X83117178Y-69033333D01*
X83117178Y-69033333D02*
X83098130Y-68995238D01*
X83098130Y-68995238D02*
X83098130Y-68957142D01*
X82454152Y-70938094D02*
X82720819Y-70938094D01*
X82682723Y-70938094D02*
X82701771Y-70919047D01*
X82701771Y-70919047D02*
X82720819Y-70880952D01*
X82720819Y-70880952D02*
X82720819Y-70823809D01*
X82720819Y-70823809D02*
X82701771Y-70785713D01*
X82701771Y-70785713D02*
X82663676Y-70766666D01*
X82663676Y-70766666D02*
X82454152Y-70766666D01*
X82663676Y-70766666D02*
X82701771Y-70747618D01*
X82701771Y-70747618D02*
X82720819Y-70709523D01*
X82720819Y-70709523D02*
X82720819Y-70652380D01*
X82720819Y-70652380D02*
X82701771Y-70614285D01*
X82701771Y-70614285D02*
X82663676Y-70595237D01*
X82663676Y-70595237D02*
X82454152Y-70595237D01*
X82454152Y-70347619D02*
X82473200Y-70385714D01*
X82473200Y-70385714D02*
X82492247Y-70404761D01*
X82492247Y-70404761D02*
X82530342Y-70423809D01*
X82530342Y-70423809D02*
X82644628Y-70423809D01*
X82644628Y-70423809D02*
X82682723Y-70404761D01*
X82682723Y-70404761D02*
X82701771Y-70385714D01*
X82701771Y-70385714D02*
X82720819Y-70347619D01*
X82720819Y-70347619D02*
X82720819Y-70290476D01*
X82720819Y-70290476D02*
X82701771Y-70252380D01*
X82701771Y-70252380D02*
X82682723Y-70233333D01*
X82682723Y-70233333D02*
X82644628Y-70214285D01*
X82644628Y-70214285D02*
X82530342Y-70214285D01*
X82530342Y-70214285D02*
X82492247Y-70233333D01*
X82492247Y-70233333D02*
X82473200Y-70252380D01*
X82473200Y-70252380D02*
X82454152Y-70290476D01*
X82454152Y-70290476D02*
X82454152Y-70347619D01*
X82720819Y-70080952D02*
X82454152Y-69985714D01*
X82454152Y-69985714D02*
X82720819Y-69890475D01*
X82473200Y-69585713D02*
X82454152Y-69623809D01*
X82454152Y-69623809D02*
X82454152Y-69699999D01*
X82454152Y-69699999D02*
X82473200Y-69738094D01*
X82473200Y-69738094D02*
X82511295Y-69757142D01*
X82511295Y-69757142D02*
X82663676Y-69757142D01*
X82663676Y-69757142D02*
X82701771Y-69738094D01*
X82701771Y-69738094D02*
X82720819Y-69699999D01*
X82720819Y-69699999D02*
X82720819Y-69623809D01*
X82720819Y-69623809D02*
X82701771Y-69585713D01*
X82701771Y-69585713D02*
X82663676Y-69566666D01*
X82663676Y-69566666D02*
X82625580Y-69566666D01*
X82625580Y-69566666D02*
X82587485Y-69757142D01*
X82454152Y-69090475D02*
X82720819Y-69090475D01*
X82854152Y-69090475D02*
X82835104Y-69109523D01*
X82835104Y-69109523D02*
X82816057Y-69090475D01*
X82816057Y-69090475D02*
X82835104Y-69071428D01*
X82835104Y-69071428D02*
X82854152Y-69090475D01*
X82854152Y-69090475D02*
X82816057Y-69090475D01*
X82720819Y-68957142D02*
X82720819Y-68804761D01*
X82854152Y-68899999D02*
X82511295Y-68899999D01*
X82511295Y-68899999D02*
X82473200Y-68880952D01*
X82473200Y-68880952D02*
X82454152Y-68842857D01*
X82454152Y-68842857D02*
X82454152Y-68804761D01*
D11*
X109139321Y-53725829D02*
X108670365Y-53643140D01*
X108670365Y-53643140D02*
X108496716Y-54627948D01*
X109467590Y-53783712D02*
X109351825Y-54440251D01*
X109293942Y-54768520D02*
X109255315Y-54713355D01*
X109255315Y-54713355D02*
X109310480Y-54674729D01*
X109310480Y-54674729D02*
X109349107Y-54729893D01*
X109349107Y-54729893D02*
X109293942Y-54768520D01*
X109293942Y-54768520D02*
X109310480Y-54674729D01*
X109936546Y-53866402D02*
X109820780Y-54522940D01*
X109837318Y-54429149D02*
X109875945Y-54484314D01*
X109875945Y-54484314D02*
X109961467Y-54547747D01*
X109961467Y-54547747D02*
X110102154Y-54572554D01*
X110102154Y-54572554D02*
X110204214Y-54542196D01*
X110204214Y-54542196D02*
X110267648Y-54456674D01*
X110267648Y-54456674D02*
X110358606Y-53940822D01*
X110267648Y-54456674D02*
X110298005Y-54558734D01*
X110298005Y-54558734D02*
X110383528Y-54622168D01*
X110383528Y-54622168D02*
X110524214Y-54646975D01*
X110524214Y-54646975D02*
X110626275Y-54616617D01*
X110626275Y-54616617D02*
X110689708Y-54531095D01*
X110689708Y-54531095D02*
X110780667Y-54015243D01*
X111671683Y-54172353D02*
X111580724Y-54688205D01*
X111580724Y-54688205D02*
X111517291Y-54773727D01*
X111517291Y-54773727D02*
X111415231Y-54804085D01*
X111415231Y-54804085D02*
X111227648Y-54771009D01*
X111227648Y-54771009D02*
X111142126Y-54707575D01*
X111663414Y-54219249D02*
X111577892Y-54155815D01*
X111577892Y-54155815D02*
X111343414Y-54114470D01*
X111343414Y-54114470D02*
X111241353Y-54144828D01*
X111241353Y-54144828D02*
X111177920Y-54230350D01*
X111177920Y-54230350D02*
X111161382Y-54324142D01*
X111161382Y-54324142D02*
X111191740Y-54426202D01*
X111191740Y-54426202D02*
X111277262Y-54489635D01*
X111277262Y-54489635D02*
X111511740Y-54530980D01*
X111511740Y-54530980D02*
X111597262Y-54594414D01*
X108963863Y-53075538D02*
X109151445Y-53108614D01*
X109151445Y-53108614D02*
X109253505Y-53078257D01*
X109253505Y-53078257D02*
X109363835Y-53001003D01*
X109363835Y-53001003D02*
X109443806Y-52821690D01*
X109443806Y-52821690D02*
X109501689Y-52493421D01*
X109501689Y-52493421D02*
X109487869Y-52297569D01*
X109487869Y-52297569D02*
X109410616Y-52187240D01*
X109410616Y-52187240D02*
X109325093Y-52123806D01*
X109325093Y-52123806D02*
X109137511Y-52090731D01*
X109137511Y-52090731D02*
X109035451Y-52121088D01*
X109035451Y-52121088D02*
X108925122Y-52198342D01*
X108925122Y-52198342D02*
X108845150Y-52377655D01*
X108845150Y-52377655D02*
X108787268Y-52705924D01*
X108787268Y-52705924D02*
X108801087Y-52901776D01*
X108801087Y-52901776D02*
X108878341Y-53012105D01*
X108878341Y-53012105D02*
X108963863Y-53075538D01*
X109926467Y-52278199D02*
X110028528Y-52247841D01*
X110028528Y-52247841D02*
X110216110Y-52280917D01*
X110216110Y-52280917D02*
X110301632Y-52344350D01*
X110301632Y-52344350D02*
X110331990Y-52446410D01*
X110331990Y-52446410D02*
X110323721Y-52493306D01*
X110323721Y-52493306D02*
X110260287Y-52578828D01*
X110260287Y-52578828D02*
X110158227Y-52609186D01*
X110158227Y-52609186D02*
X110017540Y-52584379D01*
X110017540Y-52584379D02*
X109915480Y-52614737D01*
X109915480Y-52614737D02*
X109852047Y-52700259D01*
X109852047Y-52700259D02*
X109843778Y-52747155D01*
X109843778Y-52747155D02*
X109874135Y-52849215D01*
X109874135Y-52849215D02*
X109959658Y-52912648D01*
X109959658Y-52912648D02*
X110100345Y-52937455D01*
X110100345Y-52937455D02*
X110202405Y-52907098D01*
X111192649Y-52501461D02*
X111107127Y-52438027D01*
X111107127Y-52438027D02*
X110919544Y-52404951D01*
X110919544Y-52404951D02*
X110817484Y-52435309D01*
X110817484Y-52435309D02*
X110762320Y-52473936D01*
X110762320Y-52473936D02*
X110698886Y-52559458D01*
X110698886Y-52559458D02*
X110649272Y-52840831D01*
X110649272Y-52840831D02*
X110679630Y-52942892D01*
X110679630Y-52942892D02*
X110718257Y-52998056D01*
X110718257Y-52998056D02*
X110803779Y-53061490D01*
X110803779Y-53061490D02*
X110991361Y-53094566D01*
X110991361Y-53094566D02*
X111093421Y-53064208D01*
X112045039Y-52603406D02*
X111954080Y-53119258D01*
X111954080Y-53119258D02*
X111890647Y-53204780D01*
X111890647Y-53204780D02*
X111788587Y-53235138D01*
X111788587Y-53235138D02*
X111601004Y-53202062D01*
X111601004Y-53202062D02*
X111515482Y-53138629D01*
X112036770Y-52650302D02*
X111951248Y-52586868D01*
X111951248Y-52586868D02*
X111716770Y-52545524D01*
X111716770Y-52545524D02*
X111614710Y-52575881D01*
X111614710Y-52575881D02*
X111551276Y-52661403D01*
X111551276Y-52661403D02*
X111534738Y-52755195D01*
X111534738Y-52755195D02*
X111565096Y-52857255D01*
X111565096Y-52857255D02*
X111650618Y-52920688D01*
X111650618Y-52920688D02*
X111885096Y-52962033D01*
X111885096Y-52962033D02*
X111970618Y-53025467D01*
X112513995Y-52686096D02*
X112398230Y-53342634D01*
X112431306Y-53155052D02*
X112461663Y-53257112D01*
X112461663Y-53257112D02*
X112500290Y-53312277D01*
X112500290Y-53312277D02*
X112585812Y-53375710D01*
X112585812Y-53375710D02*
X112679603Y-53392248D01*
X109792240Y-50571397D02*
X109381281Y-50982471D01*
X109229493Y-50472170D02*
X109055844Y-51456978D01*
X109055844Y-51456978D02*
X109431009Y-51523129D01*
X109431009Y-51523129D02*
X109533069Y-51492772D01*
X109533069Y-51492772D02*
X109588234Y-51454145D01*
X109588234Y-51454145D02*
X109651668Y-51368623D01*
X109651668Y-51368623D02*
X109676474Y-51227936D01*
X109676474Y-51227936D02*
X109646117Y-51125876D01*
X109646117Y-51125876D02*
X109607490Y-51070711D01*
X109607490Y-51070711D02*
X109521968Y-51007278D01*
X109521968Y-51007278D02*
X109146803Y-50941126D01*
X110354987Y-50670625D02*
X110252927Y-50700983D01*
X110252927Y-50700983D02*
X110197762Y-50739609D01*
X110197762Y-50739609D02*
X110134329Y-50825131D01*
X110134329Y-50825131D02*
X110084715Y-51106505D01*
X110084715Y-51106505D02*
X110115073Y-51208565D01*
X110115073Y-51208565D02*
X110153699Y-51263730D01*
X110153699Y-51263730D02*
X110239222Y-51327163D01*
X110239222Y-51327163D02*
X110379909Y-51351970D01*
X110379909Y-51351970D02*
X110481969Y-51321613D01*
X110481969Y-51321613D02*
X110537133Y-51282986D01*
X110537133Y-51282986D02*
X110600567Y-51197464D01*
X110600567Y-51197464D02*
X110650181Y-50916090D01*
X110650181Y-50916090D02*
X110619823Y-50814030D01*
X110619823Y-50814030D02*
X110581196Y-50758865D01*
X110581196Y-50758865D02*
X110495674Y-50695432D01*
X110495674Y-50695432D02*
X110354987Y-50670625D01*
X111105317Y-50802928D02*
X110989552Y-51459467D01*
X111006089Y-51365676D02*
X111044716Y-51420840D01*
X111044716Y-51420840D02*
X111130238Y-51484274D01*
X111130238Y-51484274D02*
X111270925Y-51509081D01*
X111270925Y-51509081D02*
X111372985Y-51478723D01*
X111372985Y-51478723D02*
X111436419Y-51393201D01*
X111436419Y-51393201D02*
X111527377Y-50877349D01*
X111436419Y-51393201D02*
X111466777Y-51495261D01*
X111466777Y-51495261D02*
X111552299Y-51558694D01*
X111552299Y-51558694D02*
X111692986Y-51583501D01*
X111692986Y-51583501D02*
X111795046Y-51553143D01*
X111795046Y-51553143D02*
X111858479Y-51467621D01*
X111858479Y-51467621D02*
X111949438Y-50951770D01*
X112785290Y-51147506D02*
X112699767Y-51084073D01*
X112699767Y-51084073D02*
X112512185Y-51050997D01*
X112512185Y-51050997D02*
X112410125Y-51081355D01*
X112410125Y-51081355D02*
X112346691Y-51166877D01*
X112346691Y-51166877D02*
X112280540Y-51542042D01*
X112280540Y-51542042D02*
X112310897Y-51644102D01*
X112310897Y-51644102D02*
X112396419Y-51707536D01*
X112396419Y-51707536D02*
X112584002Y-51740611D01*
X112584002Y-51740611D02*
X112686062Y-51710254D01*
X112686062Y-51710254D02*
X112749496Y-51624731D01*
X112749496Y-51624731D02*
X112766033Y-51530940D01*
X112766033Y-51530940D02*
X112313615Y-51354459D01*
X113403202Y-51208107D02*
X113301141Y-51238465D01*
X113301141Y-51238465D02*
X113245977Y-51277092D01*
X113245977Y-51277092D02*
X113182543Y-51362614D01*
X113182543Y-51362614D02*
X113132930Y-51643988D01*
X113132930Y-51643988D02*
X113163287Y-51746048D01*
X113163287Y-51746048D02*
X113201914Y-51801212D01*
X113201914Y-51801212D02*
X113287436Y-51864646D01*
X113287436Y-51864646D02*
X113428123Y-51889453D01*
X113428123Y-51889453D02*
X113530183Y-51859095D01*
X113530183Y-51859095D02*
X113585348Y-51820468D01*
X113585348Y-51820468D02*
X113648781Y-51734946D01*
X113648781Y-51734946D02*
X113698395Y-51453572D01*
X113698395Y-51453572D02*
X113668037Y-51351512D01*
X113668037Y-51351512D02*
X113629411Y-51296348D01*
X113629411Y-51296348D02*
X113543888Y-51232914D01*
X113543888Y-51232914D02*
X113403202Y-51208107D01*
X109412547Y-49159789D02*
X109881503Y-49242479D01*
X109368370Y-48861878D02*
X109522991Y-49904568D01*
X109522991Y-49904568D02*
X110024908Y-48977643D01*
X110493865Y-49060333D02*
X110391804Y-49090691D01*
X110391804Y-49090691D02*
X110328371Y-49176213D01*
X110328371Y-49176213D02*
X110179530Y-50020334D01*
X110753264Y-49783023D02*
X110926913Y-48798216D01*
X110761533Y-49736128D02*
X110847056Y-49799561D01*
X110847056Y-49799561D02*
X111034638Y-49832637D01*
X111034638Y-49832637D02*
X111136698Y-49802279D01*
X111136698Y-49802279D02*
X111191863Y-49763653D01*
X111191863Y-49763653D02*
X111255296Y-49678130D01*
X111255296Y-49678130D02*
X111304910Y-49396757D01*
X111304910Y-49396757D02*
X111274552Y-49294697D01*
X111274552Y-49294697D02*
X111235926Y-49239532D01*
X111235926Y-49239532D02*
X111150403Y-49176099D01*
X111150403Y-49176099D02*
X110962821Y-49143023D01*
X110962821Y-49143023D02*
X110860761Y-49173380D01*
X111760046Y-49283595D02*
X111586398Y-50268403D01*
X112182107Y-49358016D02*
X112091148Y-49873867D01*
X112091148Y-49873867D02*
X112027715Y-49959390D01*
X112027715Y-49959390D02*
X111925655Y-49989747D01*
X111925655Y-49989747D02*
X111784968Y-49964940D01*
X111784968Y-49964940D02*
X111699446Y-49901507D01*
X111699446Y-49901507D02*
X111660819Y-49846342D01*
X113073124Y-49515126D02*
X112982165Y-50030978D01*
X112982165Y-50030978D02*
X112918731Y-50116500D01*
X112918731Y-50116500D02*
X112816671Y-50146858D01*
X112816671Y-50146858D02*
X112629089Y-50113782D01*
X112629089Y-50113782D02*
X112543567Y-50050348D01*
X113064855Y-49562022D02*
X112979332Y-49498588D01*
X112979332Y-49498588D02*
X112744854Y-49457243D01*
X112744854Y-49457243D02*
X112642794Y-49487601D01*
X112642794Y-49487601D02*
X112579361Y-49573123D01*
X112579361Y-49573123D02*
X112562823Y-49666914D01*
X112562823Y-49666914D02*
X112593180Y-49768975D01*
X112593180Y-49768975D02*
X112678703Y-49832408D01*
X112678703Y-49832408D02*
X112913181Y-49873753D01*
X112913181Y-49873753D02*
X112998703Y-49937186D01*
X99009875Y-54026191D02*
X98009875Y-54026191D01*
X98009875Y-54026191D02*
X98009875Y-54407143D01*
X98009875Y-54407143D02*
X98057494Y-54502381D01*
X98057494Y-54502381D02*
X98105113Y-54550000D01*
X98105113Y-54550000D02*
X98200351Y-54597619D01*
X98200351Y-54597619D02*
X98343208Y-54597619D01*
X98343208Y-54597619D02*
X98438446Y-54550000D01*
X98438446Y-54550000D02*
X98486065Y-54502381D01*
X98486065Y-54502381D02*
X98533684Y-54407143D01*
X98533684Y-54407143D02*
X98533684Y-54026191D01*
X99009875Y-55026191D02*
X98009875Y-55026191D01*
X98914636Y-56073809D02*
X98962256Y-56026190D01*
X98962256Y-56026190D02*
X99009875Y-55883333D01*
X99009875Y-55883333D02*
X99009875Y-55788095D01*
X99009875Y-55788095D02*
X98962256Y-55645238D01*
X98962256Y-55645238D02*
X98867017Y-55550000D01*
X98867017Y-55550000D02*
X98771779Y-55502381D01*
X98771779Y-55502381D02*
X98581303Y-55454762D01*
X98581303Y-55454762D02*
X98438446Y-55454762D01*
X98438446Y-55454762D02*
X98247970Y-55502381D01*
X98247970Y-55502381D02*
X98152732Y-55550000D01*
X98152732Y-55550000D02*
X98057494Y-55645238D01*
X98057494Y-55645238D02*
X98009875Y-55788095D01*
X98009875Y-55788095D02*
X98009875Y-55883333D01*
X98009875Y-55883333D02*
X98057494Y-56026190D01*
X98057494Y-56026190D02*
X98105113Y-56073809D01*
X98009875Y-56692857D02*
X98009875Y-56883333D01*
X98009875Y-56883333D02*
X98057494Y-56978571D01*
X98057494Y-56978571D02*
X98152732Y-57073809D01*
X98152732Y-57073809D02*
X98343208Y-57121428D01*
X98343208Y-57121428D02*
X98676541Y-57121428D01*
X98676541Y-57121428D02*
X98867017Y-57073809D01*
X98867017Y-57073809D02*
X98962256Y-56978571D01*
X98962256Y-56978571D02*
X99009875Y-56883333D01*
X99009875Y-56883333D02*
X99009875Y-56692857D01*
X99009875Y-56692857D02*
X98962256Y-56597619D01*
X98962256Y-56597619D02*
X98867017Y-56502381D01*
X98867017Y-56502381D02*
X98676541Y-56454762D01*
X98676541Y-56454762D02*
X98343208Y-56454762D01*
X98343208Y-56454762D02*
X98152732Y-56502381D01*
X98152732Y-56502381D02*
X98057494Y-56597619D01*
X98057494Y-56597619D02*
X98009875Y-56692857D01*
X100619819Y-53311905D02*
X99619819Y-53311905D01*
X99619819Y-53311905D02*
X99619819Y-53692857D01*
X99619819Y-53692857D02*
X99667438Y-53788095D01*
X99667438Y-53788095D02*
X99715057Y-53835714D01*
X99715057Y-53835714D02*
X99810295Y-53883333D01*
X99810295Y-53883333D02*
X99953152Y-53883333D01*
X99953152Y-53883333D02*
X100048390Y-53835714D01*
X100048390Y-53835714D02*
X100096009Y-53788095D01*
X100096009Y-53788095D02*
X100143628Y-53692857D01*
X100143628Y-53692857D02*
X100143628Y-53311905D01*
X100619819Y-54883333D02*
X100143628Y-54550000D01*
X100619819Y-54311905D02*
X99619819Y-54311905D01*
X99619819Y-54311905D02*
X99619819Y-54692857D01*
X99619819Y-54692857D02*
X99667438Y-54788095D01*
X99667438Y-54788095D02*
X99715057Y-54835714D01*
X99715057Y-54835714D02*
X99810295Y-54883333D01*
X99810295Y-54883333D02*
X99953152Y-54883333D01*
X99953152Y-54883333D02*
X100048390Y-54835714D01*
X100048390Y-54835714D02*
X100096009Y-54788095D01*
X100096009Y-54788095D02*
X100143628Y-54692857D01*
X100143628Y-54692857D02*
X100143628Y-54311905D01*
X99619819Y-55502381D02*
X99619819Y-55692857D01*
X99619819Y-55692857D02*
X99667438Y-55788095D01*
X99667438Y-55788095D02*
X99762676Y-55883333D01*
X99762676Y-55883333D02*
X99953152Y-55930952D01*
X99953152Y-55930952D02*
X100286485Y-55930952D01*
X100286485Y-55930952D02*
X100476961Y-55883333D01*
X100476961Y-55883333D02*
X100572200Y-55788095D01*
X100572200Y-55788095D02*
X100619819Y-55692857D01*
X100619819Y-55692857D02*
X100619819Y-55502381D01*
X100619819Y-55502381D02*
X100572200Y-55407143D01*
X100572200Y-55407143D02*
X100476961Y-55311905D01*
X100476961Y-55311905D02*
X100286485Y-55264286D01*
X100286485Y-55264286D02*
X99953152Y-55264286D01*
X99953152Y-55264286D02*
X99762676Y-55311905D01*
X99762676Y-55311905D02*
X99667438Y-55407143D01*
X99667438Y-55407143D02*
X99619819Y-55502381D01*
X100096009Y-56692857D02*
X100143628Y-56835714D01*
X100143628Y-56835714D02*
X100191247Y-56883333D01*
X100191247Y-56883333D02*
X100286485Y-56930952D01*
X100286485Y-56930952D02*
X100429342Y-56930952D01*
X100429342Y-56930952D02*
X100524580Y-56883333D01*
X100524580Y-56883333D02*
X100572200Y-56835714D01*
X100572200Y-56835714D02*
X100619819Y-56740476D01*
X100619819Y-56740476D02*
X100619819Y-56359524D01*
X100619819Y-56359524D02*
X99619819Y-56359524D01*
X99619819Y-56359524D02*
X99619819Y-56692857D01*
X99619819Y-56692857D02*
X99667438Y-56788095D01*
X99667438Y-56788095D02*
X99715057Y-56835714D01*
X99715057Y-56835714D02*
X99810295Y-56883333D01*
X99810295Y-56883333D02*
X99905533Y-56883333D01*
X99905533Y-56883333D02*
X100000771Y-56835714D01*
X100000771Y-56835714D02*
X100048390Y-56788095D01*
X100048390Y-56788095D02*
X100096009Y-56692857D01*
X100096009Y-56692857D02*
X100096009Y-56359524D01*
X100096009Y-57359524D02*
X100096009Y-57692857D01*
X100619819Y-57835714D02*
X100619819Y-57359524D01*
X100619819Y-57359524D02*
X99619819Y-57359524D01*
X99619819Y-57359524D02*
X99619819Y-57835714D01*
X101059875Y-84586779D02*
X101869398Y-84586779D01*
X101869398Y-84586779D02*
X101964636Y-84634398D01*
X101964636Y-84634398D02*
X102012256Y-84682017D01*
X102012256Y-84682017D02*
X102059875Y-84777255D01*
X102059875Y-84777255D02*
X102059875Y-84967731D01*
X102059875Y-84967731D02*
X102012256Y-85062969D01*
X102012256Y-85062969D02*
X101964636Y-85110588D01*
X101964636Y-85110588D02*
X101869398Y-85158207D01*
X101869398Y-85158207D02*
X101059875Y-85158207D01*
X101774160Y-85586779D02*
X101774160Y-86062969D01*
X102059875Y-85491541D02*
X101059875Y-85824874D01*
X101059875Y-85824874D02*
X102059875Y-86158207D01*
X102059875Y-87062969D02*
X101583684Y-86729636D01*
X102059875Y-86491541D02*
X101059875Y-86491541D01*
X101059875Y-86491541D02*
X101059875Y-86872493D01*
X101059875Y-86872493D02*
X101107494Y-86967731D01*
X101107494Y-86967731D02*
X101155113Y-87015350D01*
X101155113Y-87015350D02*
X101250351Y-87062969D01*
X101250351Y-87062969D02*
X101393208Y-87062969D01*
X101393208Y-87062969D02*
X101488446Y-87015350D01*
X101488446Y-87015350D02*
X101536065Y-86967731D01*
X101536065Y-86967731D02*
X101583684Y-86872493D01*
X101583684Y-86872493D02*
X101583684Y-86491541D01*
X101059875Y-87348684D02*
X101059875Y-87920112D01*
X102059875Y-87634398D02*
X101059875Y-87634398D01*
X103669819Y-84586779D02*
X102669819Y-84586779D01*
X102669819Y-84586779D02*
X102669819Y-84824874D01*
X102669819Y-84824874D02*
X102717438Y-84967731D01*
X102717438Y-84967731D02*
X102812676Y-85062969D01*
X102812676Y-85062969D02*
X102907914Y-85110588D01*
X102907914Y-85110588D02*
X103098390Y-85158207D01*
X103098390Y-85158207D02*
X103241247Y-85158207D01*
X103241247Y-85158207D02*
X103431723Y-85110588D01*
X103431723Y-85110588D02*
X103526961Y-85062969D01*
X103526961Y-85062969D02*
X103622200Y-84967731D01*
X103622200Y-84967731D02*
X103669819Y-84824874D01*
X103669819Y-84824874D02*
X103669819Y-84586779D01*
X103146009Y-85586779D02*
X103146009Y-85920112D01*
X103669819Y-86062969D02*
X103669819Y-85586779D01*
X103669819Y-85586779D02*
X102669819Y-85586779D01*
X102669819Y-85586779D02*
X102669819Y-86062969D01*
X103146009Y-86824874D02*
X103193628Y-86967731D01*
X103193628Y-86967731D02*
X103241247Y-87015350D01*
X103241247Y-87015350D02*
X103336485Y-87062969D01*
X103336485Y-87062969D02*
X103479342Y-87062969D01*
X103479342Y-87062969D02*
X103574580Y-87015350D01*
X103574580Y-87015350D02*
X103622200Y-86967731D01*
X103622200Y-86967731D02*
X103669819Y-86872493D01*
X103669819Y-86872493D02*
X103669819Y-86491541D01*
X103669819Y-86491541D02*
X102669819Y-86491541D01*
X102669819Y-86491541D02*
X102669819Y-86824874D01*
X102669819Y-86824874D02*
X102717438Y-86920112D01*
X102717438Y-86920112D02*
X102765057Y-86967731D01*
X102765057Y-86967731D02*
X102860295Y-87015350D01*
X102860295Y-87015350D02*
X102955533Y-87015350D01*
X102955533Y-87015350D02*
X103050771Y-86967731D01*
X103050771Y-86967731D02*
X103098390Y-86920112D01*
X103098390Y-86920112D02*
X103146009Y-86824874D01*
X103146009Y-86824874D02*
X103146009Y-86491541D01*
X102669819Y-87491541D02*
X103479342Y-87491541D01*
X103479342Y-87491541D02*
X103574580Y-87539160D01*
X103574580Y-87539160D02*
X103622200Y-87586779D01*
X103622200Y-87586779D02*
X103669819Y-87682017D01*
X103669819Y-87682017D02*
X103669819Y-87872493D01*
X103669819Y-87872493D02*
X103622200Y-87967731D01*
X103622200Y-87967731D02*
X103574580Y-88015350D01*
X103574580Y-88015350D02*
X103479342Y-88062969D01*
X103479342Y-88062969D02*
X102669819Y-88062969D01*
X102717438Y-89062969D02*
X102669819Y-88967731D01*
X102669819Y-88967731D02*
X102669819Y-88824874D01*
X102669819Y-88824874D02*
X102717438Y-88682017D01*
X102717438Y-88682017D02*
X102812676Y-88586779D01*
X102812676Y-88586779D02*
X102907914Y-88539160D01*
X102907914Y-88539160D02*
X103098390Y-88491541D01*
X103098390Y-88491541D02*
X103241247Y-88491541D01*
X103241247Y-88491541D02*
X103431723Y-88539160D01*
X103431723Y-88539160D02*
X103526961Y-88586779D01*
X103526961Y-88586779D02*
X103622200Y-88682017D01*
X103622200Y-88682017D02*
X103669819Y-88824874D01*
X103669819Y-88824874D02*
X103669819Y-88920112D01*
X103669819Y-88920112D02*
X103622200Y-89062969D01*
X103622200Y-89062969D02*
X103574580Y-89110588D01*
X103574580Y-89110588D02*
X103241247Y-89110588D01*
X103241247Y-89110588D02*
X103241247Y-88920112D01*
X123561904Y-63613934D02*
X123704761Y-63566315D01*
X123704761Y-63566315D02*
X123752380Y-63518696D01*
X123752380Y-63518696D02*
X123799999Y-63423458D01*
X123799999Y-63423458D02*
X123799999Y-63280601D01*
X123799999Y-63280601D02*
X123752380Y-63185363D01*
X123752380Y-63185363D02*
X123704761Y-63137744D01*
X123704761Y-63137744D02*
X123609523Y-63090124D01*
X123609523Y-63090124D02*
X123228571Y-63090124D01*
X123228571Y-63090124D02*
X123228571Y-64090124D01*
X123228571Y-64090124D02*
X123561904Y-64090124D01*
X123561904Y-64090124D02*
X123657142Y-64042505D01*
X123657142Y-64042505D02*
X123704761Y-63994886D01*
X123704761Y-63994886D02*
X123752380Y-63899648D01*
X123752380Y-63899648D02*
X123752380Y-63804410D01*
X123752380Y-63804410D02*
X123704761Y-63709172D01*
X123704761Y-63709172D02*
X123657142Y-63661553D01*
X123657142Y-63661553D02*
X123561904Y-63613934D01*
X123561904Y-63613934D02*
X123228571Y-63613934D01*
X124180952Y-63375839D02*
X124657142Y-63375839D01*
X124085714Y-63090124D02*
X124419047Y-64090124D01*
X124419047Y-64090124D02*
X124752380Y-63090124D01*
X124942857Y-64090124D02*
X125514285Y-64090124D01*
X125228571Y-63090124D02*
X125228571Y-64090124D01*
X122061905Y-61480180D02*
X122061905Y-62480180D01*
X122061905Y-62480180D02*
X122442857Y-62480180D01*
X122442857Y-62480180D02*
X122538095Y-62432561D01*
X122538095Y-62432561D02*
X122585714Y-62384942D01*
X122585714Y-62384942D02*
X122633333Y-62289704D01*
X122633333Y-62289704D02*
X122633333Y-62146847D01*
X122633333Y-62146847D02*
X122585714Y-62051609D01*
X122585714Y-62051609D02*
X122538095Y-62003990D01*
X122538095Y-62003990D02*
X122442857Y-61956371D01*
X122442857Y-61956371D02*
X122061905Y-61956371D01*
X123633333Y-61480180D02*
X123300000Y-61956371D01*
X123061905Y-61480180D02*
X123061905Y-62480180D01*
X123061905Y-62480180D02*
X123442857Y-62480180D01*
X123442857Y-62480180D02*
X123538095Y-62432561D01*
X123538095Y-62432561D02*
X123585714Y-62384942D01*
X123585714Y-62384942D02*
X123633333Y-62289704D01*
X123633333Y-62289704D02*
X123633333Y-62146847D01*
X123633333Y-62146847D02*
X123585714Y-62051609D01*
X123585714Y-62051609D02*
X123538095Y-62003990D01*
X123538095Y-62003990D02*
X123442857Y-61956371D01*
X123442857Y-61956371D02*
X123061905Y-61956371D01*
X124252381Y-62480180D02*
X124442857Y-62480180D01*
X124442857Y-62480180D02*
X124538095Y-62432561D01*
X124538095Y-62432561D02*
X124633333Y-62337323D01*
X124633333Y-62337323D02*
X124680952Y-62146847D01*
X124680952Y-62146847D02*
X124680952Y-61813514D01*
X124680952Y-61813514D02*
X124633333Y-61623038D01*
X124633333Y-61623038D02*
X124538095Y-61527800D01*
X124538095Y-61527800D02*
X124442857Y-61480180D01*
X124442857Y-61480180D02*
X124252381Y-61480180D01*
X124252381Y-61480180D02*
X124157143Y-61527800D01*
X124157143Y-61527800D02*
X124061905Y-61623038D01*
X124061905Y-61623038D02*
X124014286Y-61813514D01*
X124014286Y-61813514D02*
X124014286Y-62146847D01*
X124014286Y-62146847D02*
X124061905Y-62337323D01*
X124061905Y-62337323D02*
X124157143Y-62432561D01*
X124157143Y-62432561D02*
X124252381Y-62480180D01*
X125442857Y-62003990D02*
X125585714Y-61956371D01*
X125585714Y-61956371D02*
X125633333Y-61908752D01*
X125633333Y-61908752D02*
X125680952Y-61813514D01*
X125680952Y-61813514D02*
X125680952Y-61670657D01*
X125680952Y-61670657D02*
X125633333Y-61575419D01*
X125633333Y-61575419D02*
X125585714Y-61527800D01*
X125585714Y-61527800D02*
X125490476Y-61480180D01*
X125490476Y-61480180D02*
X125109524Y-61480180D01*
X125109524Y-61480180D02*
X125109524Y-62480180D01*
X125109524Y-62480180D02*
X125442857Y-62480180D01*
X125442857Y-62480180D02*
X125538095Y-62432561D01*
X125538095Y-62432561D02*
X125585714Y-62384942D01*
X125585714Y-62384942D02*
X125633333Y-62289704D01*
X125633333Y-62289704D02*
X125633333Y-62194466D01*
X125633333Y-62194466D02*
X125585714Y-62099228D01*
X125585714Y-62099228D02*
X125538095Y-62051609D01*
X125538095Y-62051609D02*
X125442857Y-62003990D01*
X125442857Y-62003990D02*
X125109524Y-62003990D01*
X126109524Y-62003990D02*
X126442857Y-62003990D01*
X126585714Y-61480180D02*
X126109524Y-61480180D01*
X126109524Y-61480180D02*
X126109524Y-62480180D01*
X126109524Y-62480180D02*
X126585714Y-62480180D01*
X85266753Y-75841666D02*
X84500708Y-76484454D01*
X84500708Y-76484454D02*
X84745580Y-76776280D01*
X84745580Y-76776280D02*
X84843276Y-76818628D01*
X84843276Y-76818628D02*
X84910363Y-76824497D01*
X84910363Y-76824497D02*
X85013929Y-76799758D01*
X85013929Y-76799758D02*
X85123364Y-76707931D01*
X85123364Y-76707931D02*
X85165711Y-76610235D01*
X85165711Y-76610235D02*
X85171581Y-76543147D01*
X85171581Y-76543147D02*
X85146841Y-76439582D01*
X85146841Y-76439582D02*
X84901970Y-76147755D01*
X85082278Y-77177542D02*
X86001367Y-76717145D01*
X86001367Y-76717145D02*
X85576628Y-77322193D01*
X85576628Y-77322193D02*
X86246239Y-77008972D01*
X86246239Y-77008972D02*
X85633239Y-77834151D01*
X87011462Y-77920929D02*
X86432416Y-77971671D01*
X86644155Y-77483190D02*
X85878110Y-78125977D01*
X85878110Y-78125977D02*
X86122982Y-78417804D01*
X86122982Y-78417804D02*
X86220678Y-78460152D01*
X86220678Y-78460152D02*
X86287765Y-78466021D01*
X86287765Y-78466021D02*
X86391331Y-78441281D01*
X86391331Y-78441281D02*
X86500765Y-78349455D01*
X86500765Y-78349455D02*
X86543113Y-78251758D01*
X86543113Y-78251758D02*
X86548983Y-78184671D01*
X86548983Y-78184671D02*
X86524243Y-78081106D01*
X86524243Y-78081106D02*
X86279371Y-77789279D01*
X114359875Y-64836779D02*
X113359875Y-64836779D01*
X113359875Y-64836779D02*
X113359875Y-65074874D01*
X113359875Y-65074874D02*
X113407494Y-65217731D01*
X113407494Y-65217731D02*
X113502732Y-65312969D01*
X113502732Y-65312969D02*
X113597970Y-65360588D01*
X113597970Y-65360588D02*
X113788446Y-65408207D01*
X113788446Y-65408207D02*
X113931303Y-65408207D01*
X113931303Y-65408207D02*
X114121779Y-65360588D01*
X114121779Y-65360588D02*
X114217017Y-65312969D01*
X114217017Y-65312969D02*
X114312256Y-65217731D01*
X114312256Y-65217731D02*
X114359875Y-65074874D01*
X114359875Y-65074874D02*
X114359875Y-64836779D01*
X114312256Y-65789160D02*
X114359875Y-65932017D01*
X114359875Y-65932017D02*
X114359875Y-66170112D01*
X114359875Y-66170112D02*
X114312256Y-66265350D01*
X114312256Y-66265350D02*
X114264636Y-66312969D01*
X114264636Y-66312969D02*
X114169398Y-66360588D01*
X114169398Y-66360588D02*
X114074160Y-66360588D01*
X114074160Y-66360588D02*
X113978922Y-66312969D01*
X113978922Y-66312969D02*
X113931303Y-66265350D01*
X113931303Y-66265350D02*
X113883684Y-66170112D01*
X113883684Y-66170112D02*
X113836065Y-65979636D01*
X113836065Y-65979636D02*
X113788446Y-65884398D01*
X113788446Y-65884398D02*
X113740827Y-65836779D01*
X113740827Y-65836779D02*
X113645589Y-65789160D01*
X113645589Y-65789160D02*
X113550351Y-65789160D01*
X113550351Y-65789160D02*
X113455113Y-65836779D01*
X113455113Y-65836779D02*
X113407494Y-65884398D01*
X113407494Y-65884398D02*
X113359875Y-65979636D01*
X113359875Y-65979636D02*
X113359875Y-66217731D01*
X113359875Y-66217731D02*
X113407494Y-66360588D01*
X114359875Y-66789160D02*
X113359875Y-66789160D01*
X113836065Y-66789160D02*
X113836065Y-67360588D01*
X114359875Y-67360588D02*
X113359875Y-67360588D01*
X113359875Y-68027255D02*
X113359875Y-68217731D01*
X113359875Y-68217731D02*
X113407494Y-68312969D01*
X113407494Y-68312969D02*
X113502732Y-68408207D01*
X113502732Y-68408207D02*
X113693208Y-68455826D01*
X113693208Y-68455826D02*
X114026541Y-68455826D01*
X114026541Y-68455826D02*
X114217017Y-68408207D01*
X114217017Y-68408207D02*
X114312256Y-68312969D01*
X114312256Y-68312969D02*
X114359875Y-68217731D01*
X114359875Y-68217731D02*
X114359875Y-68027255D01*
X114359875Y-68027255D02*
X114312256Y-67932017D01*
X114312256Y-67932017D02*
X114217017Y-67836779D01*
X114217017Y-67836779D02*
X114026541Y-67789160D01*
X114026541Y-67789160D02*
X113693208Y-67789160D01*
X113693208Y-67789160D02*
X113502732Y-67836779D01*
X113502732Y-67836779D02*
X113407494Y-67932017D01*
X113407494Y-67932017D02*
X113359875Y-68027255D01*
X113359875Y-68741541D02*
X113359875Y-69312969D01*
X114359875Y-69027255D02*
X113359875Y-69027255D01*
X105566666Y-72842319D02*
X105899999Y-72366128D01*
X106138094Y-72842319D02*
X106138094Y-71842319D01*
X106138094Y-71842319D02*
X105757142Y-71842319D01*
X105757142Y-71842319D02*
X105661904Y-71889938D01*
X105661904Y-71889938D02*
X105614285Y-71937557D01*
X105614285Y-71937557D02*
X105566666Y-72032795D01*
X105566666Y-72032795D02*
X105566666Y-72175652D01*
X105566666Y-72175652D02*
X105614285Y-72270890D01*
X105614285Y-72270890D02*
X105661904Y-72318509D01*
X105661904Y-72318509D02*
X105757142Y-72366128D01*
X105757142Y-72366128D02*
X106138094Y-72366128D01*
X105090475Y-72842319D02*
X104899999Y-72842319D01*
X104899999Y-72842319D02*
X104804761Y-72794700D01*
X104804761Y-72794700D02*
X104757142Y-72747080D01*
X104757142Y-72747080D02*
X104661904Y-72604223D01*
X104661904Y-72604223D02*
X104614285Y-72413747D01*
X104614285Y-72413747D02*
X104614285Y-72032795D01*
X104614285Y-72032795D02*
X104661904Y-71937557D01*
X104661904Y-71937557D02*
X104709523Y-71889938D01*
X104709523Y-71889938D02*
X104804761Y-71842319D01*
X104804761Y-71842319D02*
X104995237Y-71842319D01*
X104995237Y-71842319D02*
X105090475Y-71889938D01*
X105090475Y-71889938D02*
X105138094Y-71937557D01*
X105138094Y-71937557D02*
X105185713Y-72032795D01*
X105185713Y-72032795D02*
X105185713Y-72270890D01*
X105185713Y-72270890D02*
X105138094Y-72366128D01*
X105138094Y-72366128D02*
X105090475Y-72413747D01*
X105090475Y-72413747D02*
X104995237Y-72461366D01*
X104995237Y-72461366D02*
X104804761Y-72461366D01*
X104804761Y-72461366D02*
X104709523Y-72413747D01*
X104709523Y-72413747D02*
X104661904Y-72366128D01*
X104661904Y-72366128D02*
X104614285Y-72270890D01*
X122332962Y-87926174D02*
X122905381Y-87825159D01*
X122737023Y-88330235D02*
X123444129Y-87623128D01*
X123444129Y-87623128D02*
X123174755Y-87353754D01*
X123174755Y-87353754D02*
X123073740Y-87320082D01*
X123073740Y-87320082D02*
X123006397Y-87320082D01*
X123006397Y-87320082D02*
X122905381Y-87353754D01*
X122905381Y-87353754D02*
X122804366Y-87454769D01*
X122804366Y-87454769D02*
X122770694Y-87555785D01*
X122770694Y-87555785D02*
X122770694Y-87623128D01*
X122770694Y-87623128D02*
X122804366Y-87724143D01*
X122804366Y-87724143D02*
X123073740Y-87993517D01*
X121659527Y-87252739D02*
X122063588Y-87656800D01*
X121861557Y-87454769D02*
X122568664Y-86747663D01*
X122568664Y-86747663D02*
X122534992Y-86916021D01*
X122534992Y-86916021D02*
X122534992Y-87050708D01*
X122534992Y-87050708D02*
X122568664Y-87151724D01*
X121726870Y-85905869D02*
X122063588Y-86242586D01*
X122063588Y-86242586D02*
X121760542Y-86612975D01*
X121760542Y-86612975D02*
X121760542Y-86545632D01*
X121760542Y-86545632D02*
X121726870Y-86444617D01*
X121726870Y-86444617D02*
X121558511Y-86276258D01*
X121558511Y-86276258D02*
X121457496Y-86242586D01*
X121457496Y-86242586D02*
X121390152Y-86242586D01*
X121390152Y-86242586D02*
X121289137Y-86276258D01*
X121289137Y-86276258D02*
X121120778Y-86444617D01*
X121120778Y-86444617D02*
X121087107Y-86545632D01*
X121087107Y-86545632D02*
X121087107Y-86612975D01*
X121087107Y-86612975D02*
X121120778Y-86713991D01*
X121120778Y-86713991D02*
X121289137Y-86882349D01*
X121289137Y-86882349D02*
X121390152Y-86916021D01*
X121390152Y-86916021D02*
X121457496Y-86916021D01*
X91076174Y-65017036D02*
X90975159Y-64444617D01*
X91480235Y-64612975D02*
X90773128Y-63905869D01*
X90773128Y-63905869D02*
X90503754Y-64175243D01*
X90503754Y-64175243D02*
X90470082Y-64276258D01*
X90470082Y-64276258D02*
X90470082Y-64343601D01*
X90470082Y-64343601D02*
X90503754Y-64444617D01*
X90503754Y-64444617D02*
X90604769Y-64545632D01*
X90604769Y-64545632D02*
X90705785Y-64579304D01*
X90705785Y-64579304D02*
X90773128Y-64579304D01*
X90773128Y-64579304D02*
X90874143Y-64545632D01*
X90874143Y-64545632D02*
X91143517Y-64276258D01*
X90167037Y-64646647D02*
X90099693Y-64646647D01*
X90099693Y-64646647D02*
X89998678Y-64680319D01*
X89998678Y-64680319D02*
X89830319Y-64848678D01*
X89830319Y-64848678D02*
X89796647Y-64949693D01*
X89796647Y-64949693D02*
X89796647Y-65017036D01*
X89796647Y-65017036D02*
X89830319Y-65118052D01*
X89830319Y-65118052D02*
X89897663Y-65185395D01*
X89897663Y-65185395D02*
X90032350Y-65252739D01*
X90032350Y-65252739D02*
X90840472Y-65252739D01*
X90840472Y-65252739D02*
X90402739Y-65690471D01*
X89459930Y-65219067D02*
X89022197Y-65656800D01*
X89022197Y-65656800D02*
X89527273Y-65690472D01*
X89527273Y-65690472D02*
X89426258Y-65791487D01*
X89426258Y-65791487D02*
X89392586Y-65892502D01*
X89392586Y-65892502D02*
X89392586Y-65959846D01*
X89392586Y-65959846D02*
X89426258Y-66060861D01*
X89426258Y-66060861D02*
X89594617Y-66229220D01*
X89594617Y-66229220D02*
X89695632Y-66262891D01*
X89695632Y-66262891D02*
X89762975Y-66262891D01*
X89762975Y-66262891D02*
X89863991Y-66229220D01*
X89863991Y-66229220D02*
X90066021Y-66027189D01*
X90066021Y-66027189D02*
X90099693Y-65926174D01*
X90099693Y-65926174D02*
X90099693Y-65858830D01*
X92426173Y-66417036D02*
X92325158Y-65844617D01*
X92830234Y-66012975D02*
X92123127Y-65305869D01*
X92123127Y-65305869D02*
X91853753Y-65575243D01*
X91853753Y-65575243D02*
X91820081Y-65676258D01*
X91820081Y-65676258D02*
X91820081Y-65743601D01*
X91820081Y-65743601D02*
X91853753Y-65844617D01*
X91853753Y-65844617D02*
X91954768Y-65945632D01*
X91954768Y-65945632D02*
X92055784Y-65979304D01*
X92055784Y-65979304D02*
X92123127Y-65979304D01*
X92123127Y-65979304D02*
X92224142Y-65945632D01*
X92224142Y-65945632D02*
X92493516Y-65676258D01*
X91517036Y-66046647D02*
X91449692Y-66046647D01*
X91449692Y-66046647D02*
X91348677Y-66080319D01*
X91348677Y-66080319D02*
X91180318Y-66248678D01*
X91180318Y-66248678D02*
X91146646Y-66349693D01*
X91146646Y-66349693D02*
X91146646Y-66417036D01*
X91146646Y-66417036D02*
X91180318Y-66518052D01*
X91180318Y-66518052D02*
X91247662Y-66585395D01*
X91247662Y-66585395D02*
X91382349Y-66652739D01*
X91382349Y-66652739D02*
X92190471Y-66652739D01*
X92190471Y-66652739D02*
X91752738Y-67090471D01*
X90843600Y-66720082D02*
X90776257Y-66720082D01*
X90776257Y-66720082D02*
X90675242Y-66753754D01*
X90675242Y-66753754D02*
X90506883Y-66922113D01*
X90506883Y-66922113D02*
X90473211Y-67023128D01*
X90473211Y-67023128D02*
X90473211Y-67090472D01*
X90473211Y-67090472D02*
X90506883Y-67191487D01*
X90506883Y-67191487D02*
X90574226Y-67258830D01*
X90574226Y-67258830D02*
X90708913Y-67326174D01*
X90708913Y-67326174D02*
X91517035Y-67326174D01*
X91517035Y-67326174D02*
X91079303Y-67763907D01*
X115366666Y-74319580D02*
X115414285Y-74367200D01*
X115414285Y-74367200D02*
X115557142Y-74414819D01*
X115557142Y-74414819D02*
X115652380Y-74414819D01*
X115652380Y-74414819D02*
X115795237Y-74367200D01*
X115795237Y-74367200D02*
X115890475Y-74271961D01*
X115890475Y-74271961D02*
X115938094Y-74176723D01*
X115938094Y-74176723D02*
X115985713Y-73986247D01*
X115985713Y-73986247D02*
X115985713Y-73843390D01*
X115985713Y-73843390D02*
X115938094Y-73652914D01*
X115938094Y-73652914D02*
X115890475Y-73557676D01*
X115890475Y-73557676D02*
X115795237Y-73462438D01*
X115795237Y-73462438D02*
X115652380Y-73414819D01*
X115652380Y-73414819D02*
X115557142Y-73414819D01*
X115557142Y-73414819D02*
X115414285Y-73462438D01*
X115414285Y-73462438D02*
X115366666Y-73510057D01*
X115033332Y-73414819D02*
X114366666Y-73414819D01*
X114366666Y-73414819D02*
X114795237Y-74414819D01*
X90289580Y-68489222D02*
X90337200Y-68441603D01*
X90337200Y-68441603D02*
X90384819Y-68298746D01*
X90384819Y-68298746D02*
X90384819Y-68203508D01*
X90384819Y-68203508D02*
X90337200Y-68060651D01*
X90337200Y-68060651D02*
X90241961Y-67965413D01*
X90241961Y-67965413D02*
X90146723Y-67917794D01*
X90146723Y-67917794D02*
X89956247Y-67870175D01*
X89956247Y-67870175D02*
X89813390Y-67870175D01*
X89813390Y-67870175D02*
X89622914Y-67917794D01*
X89622914Y-67917794D02*
X89527676Y-67965413D01*
X89527676Y-67965413D02*
X89432438Y-68060651D01*
X89432438Y-68060651D02*
X89384819Y-68203508D01*
X89384819Y-68203508D02*
X89384819Y-68298746D01*
X89384819Y-68298746D02*
X89432438Y-68441603D01*
X89432438Y-68441603D02*
X89480057Y-68489222D01*
X90384819Y-69441603D02*
X90384819Y-68870175D01*
X90384819Y-69155889D02*
X89384819Y-69155889D01*
X89384819Y-69155889D02*
X89527676Y-69060651D01*
X89527676Y-69060651D02*
X89622914Y-68965413D01*
X89622914Y-68965413D02*
X89670533Y-68870175D01*
X90384819Y-69917794D02*
X90384819Y-70108270D01*
X90384819Y-70108270D02*
X90337200Y-70203508D01*
X90337200Y-70203508D02*
X90289580Y-70251127D01*
X90289580Y-70251127D02*
X90146723Y-70346365D01*
X90146723Y-70346365D02*
X89956247Y-70393984D01*
X89956247Y-70393984D02*
X89575295Y-70393984D01*
X89575295Y-70393984D02*
X89480057Y-70346365D01*
X89480057Y-70346365D02*
X89432438Y-70298746D01*
X89432438Y-70298746D02*
X89384819Y-70203508D01*
X89384819Y-70203508D02*
X89384819Y-70013032D01*
X89384819Y-70013032D02*
X89432438Y-69917794D01*
X89432438Y-69917794D02*
X89480057Y-69870175D01*
X89480057Y-69870175D02*
X89575295Y-69822556D01*
X89575295Y-69822556D02*
X89813390Y-69822556D01*
X89813390Y-69822556D02*
X89908628Y-69870175D01*
X89908628Y-69870175D02*
X89956247Y-69917794D01*
X89956247Y-69917794D02*
X90003866Y-70013032D01*
X90003866Y-70013032D02*
X90003866Y-70203508D01*
X90003866Y-70203508D02*
X89956247Y-70298746D01*
X89956247Y-70298746D02*
X89908628Y-70346365D01*
X89908628Y-70346365D02*
X89813390Y-70393984D01*
X91204819Y-55216666D02*
X91919104Y-55216666D01*
X91919104Y-55216666D02*
X92061961Y-55169047D01*
X92061961Y-55169047D02*
X92157200Y-55073809D01*
X92157200Y-55073809D02*
X92204819Y-54930952D01*
X92204819Y-54930952D02*
X92204819Y-54835714D01*
X91204819Y-55597619D02*
X91204819Y-56264285D01*
X91204819Y-56264285D02*
X92204819Y-55835714D01*
X111716666Y-78849580D02*
X111764285Y-78897200D01*
X111764285Y-78897200D02*
X111907142Y-78944819D01*
X111907142Y-78944819D02*
X112002380Y-78944819D01*
X112002380Y-78944819D02*
X112145237Y-78897200D01*
X112145237Y-78897200D02*
X112240475Y-78801961D01*
X112240475Y-78801961D02*
X112288094Y-78706723D01*
X112288094Y-78706723D02*
X112335713Y-78516247D01*
X112335713Y-78516247D02*
X112335713Y-78373390D01*
X112335713Y-78373390D02*
X112288094Y-78182914D01*
X112288094Y-78182914D02*
X112240475Y-78087676D01*
X112240475Y-78087676D02*
X112145237Y-77992438D01*
X112145237Y-77992438D02*
X112002380Y-77944819D01*
X112002380Y-77944819D02*
X111907142Y-77944819D01*
X111907142Y-77944819D02*
X111764285Y-77992438D01*
X111764285Y-77992438D02*
X111716666Y-78040057D01*
X110764285Y-78944819D02*
X111335713Y-78944819D01*
X111049999Y-78944819D02*
X111049999Y-77944819D01*
X111049999Y-77944819D02*
X111145237Y-78087676D01*
X111145237Y-78087676D02*
X111240475Y-78182914D01*
X111240475Y-78182914D02*
X111335713Y-78230533D01*
X119759580Y-79333333D02*
X119807200Y-79285714D01*
X119807200Y-79285714D02*
X119854819Y-79142857D01*
X119854819Y-79142857D02*
X119854819Y-79047619D01*
X119854819Y-79047619D02*
X119807200Y-78904762D01*
X119807200Y-78904762D02*
X119711961Y-78809524D01*
X119711961Y-78809524D02*
X119616723Y-78761905D01*
X119616723Y-78761905D02*
X119426247Y-78714286D01*
X119426247Y-78714286D02*
X119283390Y-78714286D01*
X119283390Y-78714286D02*
X119092914Y-78761905D01*
X119092914Y-78761905D02*
X118997676Y-78809524D01*
X118997676Y-78809524D02*
X118902438Y-78904762D01*
X118902438Y-78904762D02*
X118854819Y-79047619D01*
X118854819Y-79047619D02*
X118854819Y-79142857D01*
X118854819Y-79142857D02*
X118902438Y-79285714D01*
X118902438Y-79285714D02*
X118950057Y-79333333D01*
X118854819Y-80238095D02*
X118854819Y-79761905D01*
X118854819Y-79761905D02*
X119331009Y-79714286D01*
X119331009Y-79714286D02*
X119283390Y-79761905D01*
X119283390Y-79761905D02*
X119235771Y-79857143D01*
X119235771Y-79857143D02*
X119235771Y-80095238D01*
X119235771Y-80095238D02*
X119283390Y-80190476D01*
X119283390Y-80190476D02*
X119331009Y-80238095D01*
X119331009Y-80238095D02*
X119426247Y-80285714D01*
X119426247Y-80285714D02*
X119664342Y-80285714D01*
X119664342Y-80285714D02*
X119759580Y-80238095D01*
X119759580Y-80238095D02*
X119807200Y-80190476D01*
X119807200Y-80190476D02*
X119854819Y-80095238D01*
X119854819Y-80095238D02*
X119854819Y-79857143D01*
X119854819Y-79857143D02*
X119807200Y-79761905D01*
X119807200Y-79761905D02*
X119759580Y-79714286D01*
X126142857Y-81454819D02*
X126476190Y-80978628D01*
X126714285Y-81454819D02*
X126714285Y-80454819D01*
X126714285Y-80454819D02*
X126333333Y-80454819D01*
X126333333Y-80454819D02*
X126238095Y-80502438D01*
X126238095Y-80502438D02*
X126190476Y-80550057D01*
X126190476Y-80550057D02*
X126142857Y-80645295D01*
X126142857Y-80645295D02*
X126142857Y-80788152D01*
X126142857Y-80788152D02*
X126190476Y-80883390D01*
X126190476Y-80883390D02*
X126238095Y-80931009D01*
X126238095Y-80931009D02*
X126333333Y-80978628D01*
X126333333Y-80978628D02*
X126714285Y-80978628D01*
X125190476Y-81454819D02*
X125761904Y-81454819D01*
X125476190Y-81454819D02*
X125476190Y-80454819D01*
X125476190Y-80454819D02*
X125571428Y-80597676D01*
X125571428Y-80597676D02*
X125666666Y-80692914D01*
X125666666Y-80692914D02*
X125761904Y-80740533D01*
X124333333Y-80454819D02*
X124523809Y-80454819D01*
X124523809Y-80454819D02*
X124619047Y-80502438D01*
X124619047Y-80502438D02*
X124666666Y-80550057D01*
X124666666Y-80550057D02*
X124761904Y-80692914D01*
X124761904Y-80692914D02*
X124809523Y-80883390D01*
X124809523Y-80883390D02*
X124809523Y-81264342D01*
X124809523Y-81264342D02*
X124761904Y-81359580D01*
X124761904Y-81359580D02*
X124714285Y-81407200D01*
X124714285Y-81407200D02*
X124619047Y-81454819D01*
X124619047Y-81454819D02*
X124428571Y-81454819D01*
X124428571Y-81454819D02*
X124333333Y-81407200D01*
X124333333Y-81407200D02*
X124285714Y-81359580D01*
X124285714Y-81359580D02*
X124238095Y-81264342D01*
X124238095Y-81264342D02*
X124238095Y-81026247D01*
X124238095Y-81026247D02*
X124285714Y-80931009D01*
X124285714Y-80931009D02*
X124333333Y-80883390D01*
X124333333Y-80883390D02*
X124428571Y-80835771D01*
X124428571Y-80835771D02*
X124619047Y-80835771D01*
X124619047Y-80835771D02*
X124714285Y-80883390D01*
X124714285Y-80883390D02*
X124761904Y-80931009D01*
X124761904Y-80931009D02*
X124809523Y-81026247D01*
X80454912Y-75418103D02*
X80914046Y-75965278D01*
X80914046Y-75965278D02*
X81042351Y-76044104D01*
X81042351Y-76044104D02*
X81176526Y-76055842D01*
X81176526Y-76055842D02*
X81316570Y-76000494D01*
X81316570Y-76000494D02*
X81389526Y-75939276D01*
X79725346Y-76030282D02*
X80090129Y-75724193D01*
X80090129Y-75724193D02*
X80432697Y-76058367D01*
X80432697Y-76058367D02*
X80365609Y-76052497D01*
X80365609Y-76052497D02*
X80262044Y-76077237D01*
X80262044Y-76077237D02*
X80079652Y-76230282D01*
X80079652Y-76230282D02*
X80037305Y-76327978D01*
X80037305Y-76327978D02*
X80031435Y-76395065D01*
X80031435Y-76395065D02*
X80056175Y-76498630D01*
X80056175Y-76498630D02*
X80209219Y-76681022D01*
X80209219Y-76681022D02*
X80306916Y-76723370D01*
X80306916Y-76723370D02*
X80374003Y-76729239D01*
X80374003Y-76729239D02*
X80477568Y-76704500D01*
X80477568Y-76704500D02*
X80659960Y-76551455D01*
X80659960Y-76551455D02*
X80702308Y-76453759D01*
X80702308Y-76453759D02*
X80708177Y-76386671D01*
X102866666Y-82127319D02*
X103199999Y-81651128D01*
X103438094Y-82127319D02*
X103438094Y-81127319D01*
X103438094Y-81127319D02*
X103057142Y-81127319D01*
X103057142Y-81127319D02*
X102961904Y-81174938D01*
X102961904Y-81174938D02*
X102914285Y-81222557D01*
X102914285Y-81222557D02*
X102866666Y-81317795D01*
X102866666Y-81317795D02*
X102866666Y-81460652D01*
X102866666Y-81460652D02*
X102914285Y-81555890D01*
X102914285Y-81555890D02*
X102961904Y-81603509D01*
X102961904Y-81603509D02*
X103057142Y-81651128D01*
X103057142Y-81651128D02*
X103438094Y-81651128D01*
X102009523Y-81127319D02*
X102199999Y-81127319D01*
X102199999Y-81127319D02*
X102295237Y-81174938D01*
X102295237Y-81174938D02*
X102342856Y-81222557D01*
X102342856Y-81222557D02*
X102438094Y-81365414D01*
X102438094Y-81365414D02*
X102485713Y-81555890D01*
X102485713Y-81555890D02*
X102485713Y-81936842D01*
X102485713Y-81936842D02*
X102438094Y-82032080D01*
X102438094Y-82032080D02*
X102390475Y-82079700D01*
X102390475Y-82079700D02*
X102295237Y-82127319D01*
X102295237Y-82127319D02*
X102104761Y-82127319D01*
X102104761Y-82127319D02*
X102009523Y-82079700D01*
X102009523Y-82079700D02*
X101961904Y-82032080D01*
X101961904Y-82032080D02*
X101914285Y-81936842D01*
X101914285Y-81936842D02*
X101914285Y-81698747D01*
X101914285Y-81698747D02*
X101961904Y-81603509D01*
X101961904Y-81603509D02*
X102009523Y-81555890D01*
X102009523Y-81555890D02*
X102104761Y-81508271D01*
X102104761Y-81508271D02*
X102295237Y-81508271D01*
X102295237Y-81508271D02*
X102390475Y-81555890D01*
X102390475Y-81555890D02*
X102438094Y-81603509D01*
X102438094Y-81603509D02*
X102485713Y-81698747D01*
X107233333Y-83004819D02*
X107233333Y-83719104D01*
X107233333Y-83719104D02*
X107280952Y-83861961D01*
X107280952Y-83861961D02*
X107376190Y-83957200D01*
X107376190Y-83957200D02*
X107519047Y-84004819D01*
X107519047Y-84004819D02*
X107614285Y-84004819D01*
X106709523Y-84004819D02*
X106519047Y-84004819D01*
X106519047Y-84004819D02*
X106423809Y-83957200D01*
X106423809Y-83957200D02*
X106376190Y-83909580D01*
X106376190Y-83909580D02*
X106280952Y-83766723D01*
X106280952Y-83766723D02*
X106233333Y-83576247D01*
X106233333Y-83576247D02*
X106233333Y-83195295D01*
X106233333Y-83195295D02*
X106280952Y-83100057D01*
X106280952Y-83100057D02*
X106328571Y-83052438D01*
X106328571Y-83052438D02*
X106423809Y-83004819D01*
X106423809Y-83004819D02*
X106614285Y-83004819D01*
X106614285Y-83004819D02*
X106709523Y-83052438D01*
X106709523Y-83052438D02*
X106757142Y-83100057D01*
X106757142Y-83100057D02*
X106804761Y-83195295D01*
X106804761Y-83195295D02*
X106804761Y-83433390D01*
X106804761Y-83433390D02*
X106757142Y-83528628D01*
X106757142Y-83528628D02*
X106709523Y-83576247D01*
X106709523Y-83576247D02*
X106614285Y-83623866D01*
X106614285Y-83623866D02*
X106423809Y-83623866D01*
X106423809Y-83623866D02*
X106328571Y-83576247D01*
X106328571Y-83576247D02*
X106280952Y-83528628D01*
X106280952Y-83528628D02*
X106233333Y-83433390D01*
X126104819Y-68090476D02*
X126819104Y-68090476D01*
X126819104Y-68090476D02*
X126961961Y-68042857D01*
X126961961Y-68042857D02*
X127057200Y-67947619D01*
X127057200Y-67947619D02*
X127104819Y-67804762D01*
X127104819Y-67804762D02*
X127104819Y-67709524D01*
X127104819Y-69090476D02*
X127104819Y-68519048D01*
X127104819Y-68804762D02*
X126104819Y-68804762D01*
X126104819Y-68804762D02*
X126247676Y-68709524D01*
X126247676Y-68709524D02*
X126342914Y-68614286D01*
X126342914Y-68614286D02*
X126390533Y-68519048D01*
X127104819Y-70042857D02*
X127104819Y-69471429D01*
X127104819Y-69757143D02*
X126104819Y-69757143D01*
X126104819Y-69757143D02*
X126247676Y-69661905D01*
X126247676Y-69661905D02*
X126342914Y-69566667D01*
X126342914Y-69566667D02*
X126390533Y-69471429D01*
X112954819Y-62616666D02*
X113669104Y-62616666D01*
X113669104Y-62616666D02*
X113811961Y-62569047D01*
X113811961Y-62569047D02*
X113907200Y-62473809D01*
X113907200Y-62473809D02*
X113954819Y-62330952D01*
X113954819Y-62330952D02*
X113954819Y-62235714D01*
X112954819Y-62997619D02*
X112954819Y-63616666D01*
X112954819Y-63616666D02*
X113335771Y-63283333D01*
X113335771Y-63283333D02*
X113335771Y-63426190D01*
X113335771Y-63426190D02*
X113383390Y-63521428D01*
X113383390Y-63521428D02*
X113431009Y-63569047D01*
X113431009Y-63569047D02*
X113526247Y-63616666D01*
X113526247Y-63616666D02*
X113764342Y-63616666D01*
X113764342Y-63616666D02*
X113859580Y-63569047D01*
X113859580Y-63569047D02*
X113907200Y-63521428D01*
X113907200Y-63521428D02*
X113954819Y-63426190D01*
X113954819Y-63426190D02*
X113954819Y-63140476D01*
X113954819Y-63140476D02*
X113907200Y-63045238D01*
X113907200Y-63045238D02*
X113859580Y-62997619D01*
X124044999Y-44895404D02*
X123904427Y-45692630D01*
X123904427Y-45692630D02*
X123840993Y-45778152D01*
X123840993Y-45778152D02*
X123785828Y-45816779D01*
X123785828Y-45816779D02*
X123683768Y-45847136D01*
X123683768Y-45847136D02*
X123496186Y-45814061D01*
X123496186Y-45814061D02*
X123410664Y-45750627D01*
X123410664Y-45750627D02*
X123372037Y-45695462D01*
X123372037Y-45695462D02*
X123341679Y-45593402D01*
X123341679Y-45593402D02*
X123482252Y-44796177D01*
X122533352Y-44967336D02*
X122417587Y-45623874D01*
X122833982Y-44633516D02*
X122944426Y-45378295D01*
X122944426Y-45378295D02*
X122334783Y-45270798D01*
X95059580Y-40207142D02*
X95107200Y-40159523D01*
X95107200Y-40159523D02*
X95154819Y-40016666D01*
X95154819Y-40016666D02*
X95154819Y-39921428D01*
X95154819Y-39921428D02*
X95107200Y-39778571D01*
X95107200Y-39778571D02*
X95011961Y-39683333D01*
X95011961Y-39683333D02*
X94916723Y-39635714D01*
X94916723Y-39635714D02*
X94726247Y-39588095D01*
X94726247Y-39588095D02*
X94583390Y-39588095D01*
X94583390Y-39588095D02*
X94392914Y-39635714D01*
X94392914Y-39635714D02*
X94297676Y-39683333D01*
X94297676Y-39683333D02*
X94202438Y-39778571D01*
X94202438Y-39778571D02*
X94154819Y-39921428D01*
X94154819Y-39921428D02*
X94154819Y-40016666D01*
X94154819Y-40016666D02*
X94202438Y-40159523D01*
X94202438Y-40159523D02*
X94250057Y-40207142D01*
X95154819Y-41159523D02*
X95154819Y-40588095D01*
X95154819Y-40873809D02*
X94154819Y-40873809D01*
X94154819Y-40873809D02*
X94297676Y-40778571D01*
X94297676Y-40778571D02*
X94392914Y-40683333D01*
X94392914Y-40683333D02*
X94440533Y-40588095D01*
X94488152Y-42016666D02*
X95154819Y-42016666D01*
X94107200Y-41778571D02*
X94821485Y-41540476D01*
X94821485Y-41540476D02*
X94821485Y-42159523D01*
X93643517Y-71549693D02*
X92936410Y-70842587D01*
X92936410Y-70842587D02*
X92768051Y-71010945D01*
X92768051Y-71010945D02*
X92700708Y-71145632D01*
X92700708Y-71145632D02*
X92700708Y-71280319D01*
X92700708Y-71280319D02*
X92734380Y-71381335D01*
X92734380Y-71381335D02*
X92835395Y-71549693D01*
X92835395Y-71549693D02*
X92936410Y-71650709D01*
X92936410Y-71650709D02*
X93104769Y-71751724D01*
X93104769Y-71751724D02*
X93205784Y-71785396D01*
X93205784Y-71785396D02*
X93340471Y-71785396D01*
X93340471Y-71785396D02*
X93475158Y-71718052D01*
X93475158Y-71718052D02*
X93643517Y-71549693D01*
X92296647Y-71482350D02*
X91858914Y-71920083D01*
X91858914Y-71920083D02*
X92363990Y-71953754D01*
X92363990Y-71953754D02*
X92262975Y-72054770D01*
X92262975Y-72054770D02*
X92229303Y-72155785D01*
X92229303Y-72155785D02*
X92229303Y-72223128D01*
X92229303Y-72223128D02*
X92262975Y-72324144D01*
X92262975Y-72324144D02*
X92431334Y-72492502D01*
X92431334Y-72492502D02*
X92532349Y-72526174D01*
X92532349Y-72526174D02*
X92599693Y-72526174D01*
X92599693Y-72526174D02*
X92700708Y-72492502D01*
X92700708Y-72492502D02*
X92902738Y-72290472D01*
X92902738Y-72290472D02*
X92936410Y-72189457D01*
X92936410Y-72189457D02*
X92936410Y-72122113D01*
X79279820Y-69225595D02*
X80089343Y-69225595D01*
X80089343Y-69225595D02*
X80184581Y-69273214D01*
X80184581Y-69273214D02*
X80232201Y-69320833D01*
X80232201Y-69320833D02*
X80279820Y-69416071D01*
X80279820Y-69416071D02*
X80279820Y-69606547D01*
X80279820Y-69606547D02*
X80232201Y-69701785D01*
X80232201Y-69701785D02*
X80184581Y-69749404D01*
X80184581Y-69749404D02*
X80089343Y-69797023D01*
X80089343Y-69797023D02*
X79279820Y-69797023D01*
X80279820Y-70797023D02*
X80279820Y-70225595D01*
X80279820Y-70511309D02*
X79279820Y-70511309D01*
X79279820Y-70511309D02*
X79422677Y-70416071D01*
X79422677Y-70416071D02*
X79517915Y-70320833D01*
X79517915Y-70320833D02*
X79565534Y-70225595D01*
X104216666Y-76382319D02*
X104549999Y-75906128D01*
X104788094Y-76382319D02*
X104788094Y-75382319D01*
X104788094Y-75382319D02*
X104407142Y-75382319D01*
X104407142Y-75382319D02*
X104311904Y-75429938D01*
X104311904Y-75429938D02*
X104264285Y-75477557D01*
X104264285Y-75477557D02*
X104216666Y-75572795D01*
X104216666Y-75572795D02*
X104216666Y-75715652D01*
X104216666Y-75715652D02*
X104264285Y-75810890D01*
X104264285Y-75810890D02*
X104311904Y-75858509D01*
X104311904Y-75858509D02*
X104407142Y-75906128D01*
X104407142Y-75906128D02*
X104788094Y-75906128D01*
X103311904Y-75382319D02*
X103788094Y-75382319D01*
X103788094Y-75382319D02*
X103835713Y-75858509D01*
X103835713Y-75858509D02*
X103788094Y-75810890D01*
X103788094Y-75810890D02*
X103692856Y-75763271D01*
X103692856Y-75763271D02*
X103454761Y-75763271D01*
X103454761Y-75763271D02*
X103359523Y-75810890D01*
X103359523Y-75810890D02*
X103311904Y-75858509D01*
X103311904Y-75858509D02*
X103264285Y-75953747D01*
X103264285Y-75953747D02*
X103264285Y-76191842D01*
X103264285Y-76191842D02*
X103311904Y-76287080D01*
X103311904Y-76287080D02*
X103359523Y-76334700D01*
X103359523Y-76334700D02*
X103454761Y-76382319D01*
X103454761Y-76382319D02*
X103692856Y-76382319D01*
X103692856Y-76382319D02*
X103788094Y-76334700D01*
X103788094Y-76334700D02*
X103835713Y-76287080D01*
X121642857Y-77599580D02*
X121690476Y-77647200D01*
X121690476Y-77647200D02*
X121833333Y-77694819D01*
X121833333Y-77694819D02*
X121928571Y-77694819D01*
X121928571Y-77694819D02*
X122071428Y-77647200D01*
X122071428Y-77647200D02*
X122166666Y-77551961D01*
X122166666Y-77551961D02*
X122214285Y-77456723D01*
X122214285Y-77456723D02*
X122261904Y-77266247D01*
X122261904Y-77266247D02*
X122261904Y-77123390D01*
X122261904Y-77123390D02*
X122214285Y-76932914D01*
X122214285Y-76932914D02*
X122166666Y-76837676D01*
X122166666Y-76837676D02*
X122071428Y-76742438D01*
X122071428Y-76742438D02*
X121928571Y-76694819D01*
X121928571Y-76694819D02*
X121833333Y-76694819D01*
X121833333Y-76694819D02*
X121690476Y-76742438D01*
X121690476Y-76742438D02*
X121642857Y-76790057D01*
X120690476Y-77694819D02*
X121261904Y-77694819D01*
X120976190Y-77694819D02*
X120976190Y-76694819D01*
X120976190Y-76694819D02*
X121071428Y-76837676D01*
X121071428Y-76837676D02*
X121166666Y-76932914D01*
X121166666Y-76932914D02*
X121261904Y-76980533D01*
X119738095Y-77694819D02*
X120309523Y-77694819D01*
X120023809Y-77694819D02*
X120023809Y-76694819D01*
X120023809Y-76694819D02*
X120119047Y-76837676D01*
X120119047Y-76837676D02*
X120214285Y-76932914D01*
X120214285Y-76932914D02*
X120309523Y-76980533D01*
X122408121Y-75499171D02*
X122474441Y-75510865D01*
X122474441Y-75510865D02*
X122618776Y-75467933D01*
X122618776Y-75467933D02*
X122696790Y-75413307D01*
X122696790Y-75413307D02*
X122786499Y-75292360D01*
X122786499Y-75292360D02*
X122809887Y-75159719D01*
X122809887Y-75159719D02*
X122794268Y-75054391D01*
X122794268Y-75054391D02*
X122724023Y-74871049D01*
X122724023Y-74871049D02*
X122642083Y-74754028D01*
X122642083Y-74754028D02*
X122493823Y-74625312D01*
X122493823Y-74625312D02*
X122400190Y-74574611D01*
X122400190Y-74574611D02*
X122267549Y-74551222D01*
X122267549Y-74551222D02*
X122123214Y-74594155D01*
X122123214Y-74594155D02*
X122045199Y-74648781D01*
X122045199Y-74648781D02*
X121955491Y-74769728D01*
X121955491Y-74769728D02*
X121943797Y-74836048D01*
X121187040Y-75249671D02*
X121343069Y-75140418D01*
X121343069Y-75140418D02*
X121448397Y-75124799D01*
X121448397Y-75124799D02*
X121514717Y-75136493D01*
X121514717Y-75136493D02*
X121674671Y-75198888D01*
X121674671Y-75198888D02*
X121822931Y-75327604D01*
X121822931Y-75327604D02*
X122041436Y-75639662D01*
X122041436Y-75639662D02*
X122057055Y-75744990D01*
X122057055Y-75744990D02*
X122045361Y-75811310D01*
X122045361Y-75811310D02*
X121994660Y-75904944D01*
X121994660Y-75904944D02*
X121838631Y-76014196D01*
X121838631Y-76014196D02*
X121733303Y-76029815D01*
X121733303Y-76029815D02*
X121666983Y-76018121D01*
X121666983Y-76018121D02*
X121573349Y-75967420D01*
X121573349Y-75967420D02*
X121436784Y-75772384D01*
X121436784Y-75772384D02*
X121421165Y-75667056D01*
X121421165Y-75667056D02*
X121432859Y-75600736D01*
X121432859Y-75600736D02*
X121483560Y-75507102D01*
X121483560Y-75507102D02*
X121639589Y-75397849D01*
X121639589Y-75397849D02*
X121744917Y-75382230D01*
X121744917Y-75382230D02*
X121811237Y-75393924D01*
X121811237Y-75393924D02*
X121904871Y-75444626D01*
X95421203Y-72950201D02*
X94916127Y-73455277D01*
X94916127Y-73455277D02*
X94848783Y-73589964D01*
X94848783Y-73589964D02*
X94848783Y-73724651D01*
X94848783Y-73724651D02*
X94916127Y-73859338D01*
X94916127Y-73859338D02*
X94983470Y-73926682D01*
X94545737Y-72546140D02*
X94074333Y-73017544D01*
X94983470Y-72445124D02*
X94646753Y-73118559D01*
X94646753Y-73118559D02*
X94209020Y-72680827D01*
X112466666Y-70199580D02*
X112514285Y-70247200D01*
X112514285Y-70247200D02*
X112657142Y-70294819D01*
X112657142Y-70294819D02*
X112752380Y-70294819D01*
X112752380Y-70294819D02*
X112895237Y-70247200D01*
X112895237Y-70247200D02*
X112990475Y-70151961D01*
X112990475Y-70151961D02*
X113038094Y-70056723D01*
X113038094Y-70056723D02*
X113085713Y-69866247D01*
X113085713Y-69866247D02*
X113085713Y-69723390D01*
X113085713Y-69723390D02*
X113038094Y-69532914D01*
X113038094Y-69532914D02*
X112990475Y-69437676D01*
X112990475Y-69437676D02*
X112895237Y-69342438D01*
X112895237Y-69342438D02*
X112752380Y-69294819D01*
X112752380Y-69294819D02*
X112657142Y-69294819D01*
X112657142Y-69294819D02*
X112514285Y-69342438D01*
X112514285Y-69342438D02*
X112466666Y-69390057D01*
X112085713Y-69390057D02*
X112038094Y-69342438D01*
X112038094Y-69342438D02*
X111942856Y-69294819D01*
X111942856Y-69294819D02*
X111704761Y-69294819D01*
X111704761Y-69294819D02*
X111609523Y-69342438D01*
X111609523Y-69342438D02*
X111561904Y-69390057D01*
X111561904Y-69390057D02*
X111514285Y-69485295D01*
X111514285Y-69485295D02*
X111514285Y-69580533D01*
X111514285Y-69580533D02*
X111561904Y-69723390D01*
X111561904Y-69723390D02*
X112133332Y-70294819D01*
X112133332Y-70294819D02*
X111514285Y-70294819D01*
X98876174Y-63367036D02*
X98775159Y-62794617D01*
X99280235Y-62962975D02*
X98573128Y-62255869D01*
X98573128Y-62255869D02*
X98303754Y-62525243D01*
X98303754Y-62525243D02*
X98270082Y-62626258D01*
X98270082Y-62626258D02*
X98270082Y-62693601D01*
X98270082Y-62693601D02*
X98303754Y-62794617D01*
X98303754Y-62794617D02*
X98404769Y-62895632D01*
X98404769Y-62895632D02*
X98505785Y-62929304D01*
X98505785Y-62929304D02*
X98573128Y-62929304D01*
X98573128Y-62929304D02*
X98674143Y-62895632D01*
X98674143Y-62895632D02*
X98943517Y-62626258D01*
X98202739Y-64040471D02*
X98606800Y-63636410D01*
X98404769Y-63838441D02*
X97697663Y-63131334D01*
X97697663Y-63131334D02*
X97866021Y-63165006D01*
X97866021Y-63165006D02*
X98000708Y-63165006D01*
X98000708Y-63165006D02*
X98101724Y-63131334D01*
X97259930Y-63569067D02*
X96822197Y-64006800D01*
X96822197Y-64006800D02*
X97327273Y-64040472D01*
X97327273Y-64040472D02*
X97226258Y-64141487D01*
X97226258Y-64141487D02*
X97192586Y-64242502D01*
X97192586Y-64242502D02*
X97192586Y-64309846D01*
X97192586Y-64309846D02*
X97226258Y-64410861D01*
X97226258Y-64410861D02*
X97394617Y-64579220D01*
X97394617Y-64579220D02*
X97495632Y-64612891D01*
X97495632Y-64612891D02*
X97562975Y-64612891D01*
X97562975Y-64612891D02*
X97663991Y-64579220D01*
X97663991Y-64579220D02*
X97866021Y-64377189D01*
X97866021Y-64377189D02*
X97899693Y-64276174D01*
X97899693Y-64276174D02*
X97899693Y-64208830D01*
X125092857Y-78384819D02*
X125426190Y-77908628D01*
X125664285Y-78384819D02*
X125664285Y-77384819D01*
X125664285Y-77384819D02*
X125283333Y-77384819D01*
X125283333Y-77384819D02*
X125188095Y-77432438D01*
X125188095Y-77432438D02*
X125140476Y-77480057D01*
X125140476Y-77480057D02*
X125092857Y-77575295D01*
X125092857Y-77575295D02*
X125092857Y-77718152D01*
X125092857Y-77718152D02*
X125140476Y-77813390D01*
X125140476Y-77813390D02*
X125188095Y-77861009D01*
X125188095Y-77861009D02*
X125283333Y-77908628D01*
X125283333Y-77908628D02*
X125664285Y-77908628D01*
X124140476Y-78384819D02*
X124711904Y-78384819D01*
X124426190Y-78384819D02*
X124426190Y-77384819D01*
X124426190Y-77384819D02*
X124521428Y-77527676D01*
X124521428Y-77527676D02*
X124616666Y-77622914D01*
X124616666Y-77622914D02*
X124711904Y-77670533D01*
X123664285Y-78384819D02*
X123473809Y-78384819D01*
X123473809Y-78384819D02*
X123378571Y-78337200D01*
X123378571Y-78337200D02*
X123330952Y-78289580D01*
X123330952Y-78289580D02*
X123235714Y-78146723D01*
X123235714Y-78146723D02*
X123188095Y-77956247D01*
X123188095Y-77956247D02*
X123188095Y-77575295D01*
X123188095Y-77575295D02*
X123235714Y-77480057D01*
X123235714Y-77480057D02*
X123283333Y-77432438D01*
X123283333Y-77432438D02*
X123378571Y-77384819D01*
X123378571Y-77384819D02*
X123569047Y-77384819D01*
X123569047Y-77384819D02*
X123664285Y-77432438D01*
X123664285Y-77432438D02*
X123711904Y-77480057D01*
X123711904Y-77480057D02*
X123759523Y-77575295D01*
X123759523Y-77575295D02*
X123759523Y-77813390D01*
X123759523Y-77813390D02*
X123711904Y-77908628D01*
X123711904Y-77908628D02*
X123664285Y-77956247D01*
X123664285Y-77956247D02*
X123569047Y-78003866D01*
X123569047Y-78003866D02*
X123378571Y-78003866D01*
X123378571Y-78003866D02*
X123283333Y-77956247D01*
X123283333Y-77956247D02*
X123235714Y-77908628D01*
X123235714Y-77908628D02*
X123188095Y-77813390D01*
D12*
%TO.C,R9*%
X105577064Y-73302500D02*
X105122936Y-73302500D01*
X105577064Y-74772500D02*
X105122936Y-74772500D01*
%TO.C,R15*%
X123840835Y-85107218D02*
X123519718Y-85428335D01*
X124880282Y-86146665D02*
X124559165Y-86467782D01*
%TO.C,R23*%
X92190835Y-62169718D02*
X91869718Y-62490835D01*
X93230282Y-63209165D02*
X92909165Y-63530282D01*
%TO.C,R22*%
X93740835Y-63669718D02*
X93419718Y-63990835D01*
X94780282Y-64709165D02*
X94459165Y-65030282D01*
%TO.C,C7*%
X115092164Y-72439999D02*
X115307836Y-72440000D01*
X115092164Y-73160000D02*
X115307836Y-73160001D01*
%TO.C,C19*%
X87515000Y-69393332D02*
X87515000Y-68870828D01*
X88985000Y-69393332D02*
X88985000Y-68870828D01*
%TO.C,J7*%
X93040000Y-54110000D02*
X93040000Y-56990000D01*
X95010000Y-52940000D02*
X96160000Y-52940000D01*
X95010000Y-58160000D02*
X96160000Y-58160000D01*
X96160000Y-52940000D02*
X96160000Y-53990000D01*
X96160000Y-53990000D02*
X97150000Y-53990000D01*
X96160000Y-58160000D02*
X96160000Y-57110000D01*
%TO.C,C1*%
X111657836Y-79290000D02*
X111442164Y-79289999D01*
X111657836Y-80010001D02*
X111442164Y-80010000D01*
%TO.C,C5*%
X121057836Y-79140000D02*
X120842164Y-79139999D01*
X121057836Y-79860001D02*
X120842164Y-79860000D01*
%TO.C,R16*%
X125272936Y-82202500D02*
X125727064Y-82202500D01*
X125272936Y-83672500D02*
X125727064Y-83672500D01*
%TO.C,J5*%
X79346668Y-78542461D02*
X82962398Y-75508503D01*
X80206056Y-78617647D02*
X82887211Y-76367891D01*
X80963022Y-77186179D02*
X81355122Y-77653466D01*
X81780885Y-80494456D02*
X82163907Y-80173062D01*
X81845164Y-80571061D02*
X82228186Y-80249667D01*
X81958880Y-76350555D02*
X82350980Y-76817842D01*
X82099629Y-80096458D02*
X81716606Y-80417852D01*
X82228186Y-80249667D02*
X82099629Y-80096458D01*
X82887211Y-76367891D02*
X84140647Y-77861677D01*
X82962398Y-75508503D02*
X86896258Y-80196695D01*
X83280528Y-83230652D02*
X79346668Y-78542461D01*
X83355715Y-82371265D02*
X80206056Y-78617647D01*
X84140647Y-77861677D02*
X84607934Y-77469577D01*
X84783435Y-78627722D02*
X86036870Y-80121508D01*
X84896882Y-81874371D02*
X84504781Y-81407084D01*
X85250722Y-78235621D02*
X84783435Y-78627722D01*
X85764952Y-78848457D02*
X85918161Y-78719899D01*
X85841556Y-78784178D02*
X86034392Y-79013991D01*
X85892740Y-81038747D02*
X85500639Y-80571460D01*
X85918161Y-78719899D02*
X86110997Y-78949713D01*
X86036870Y-80121508D02*
X83355715Y-82371265D01*
X86110997Y-78949713D02*
X85957788Y-79078270D01*
X86515423Y-79276116D02*
X87318908Y-80233672D01*
X86896258Y-80196695D02*
X83280528Y-83230652D01*
X87318908Y-80233672D02*
X86361352Y-81037157D01*
%TO.C,R6*%
X102927064Y-79092500D02*
X102472936Y-79092500D01*
X102927064Y-80562500D02*
X102472936Y-80562500D01*
%TO.C,J9*%
X104290000Y-86810000D02*
X104290000Y-87960000D01*
X104290000Y-87960000D02*
X105340000Y-87960000D01*
X108340000Y-84840000D02*
X105460000Y-84840000D01*
X108460000Y-87960000D02*
X108460000Y-88950000D01*
X109510000Y-86810000D02*
X109510000Y-87960000D01*
X109510000Y-87960000D02*
X108460000Y-87960000D01*
%TO.C,J11*%
X120840000Y-64840000D02*
X125560000Y-64840000D01*
X120840000Y-72960000D02*
X120840000Y-64840000D01*
X121450000Y-65450000D02*
X124950000Y-65450000D01*
X121450000Y-67900000D02*
X121950000Y-67900000D01*
X121450000Y-68000000D02*
X121950000Y-68000000D01*
X121450000Y-69900000D02*
X121950000Y-69900000D01*
X121450000Y-70000000D02*
X121950000Y-70000000D01*
X121450000Y-72350000D02*
X121450000Y-65450000D01*
X121950000Y-67800000D02*
X121450000Y-67800000D01*
X121950000Y-68000000D02*
X121950000Y-67800000D01*
X121950000Y-69800000D02*
X121450000Y-69800000D01*
X121950000Y-70000000D02*
X121950000Y-69800000D01*
X122950000Y-64840000D02*
X122950000Y-65450000D01*
X122950000Y-72960000D02*
X122950000Y-72350000D01*
X124250000Y-64840000D02*
X124250000Y-65450000D01*
X124250000Y-72960000D02*
X124250000Y-72350000D01*
X124950000Y-65450000D02*
X124950000Y-67400000D01*
X124950000Y-67400000D02*
X125560000Y-67400000D01*
X124950000Y-70400000D02*
X124950000Y-72350000D01*
X124950000Y-72350000D02*
X121450000Y-72350000D01*
X125560000Y-64840000D02*
X125560000Y-72960000D01*
X125560000Y-70400000D02*
X124950000Y-70400000D01*
X125560000Y-71200000D02*
X125760000Y-71200000D01*
X125560000Y-72960000D02*
X120840000Y-72960000D01*
X125660000Y-71200000D02*
X125660000Y-71500000D01*
X125760000Y-71200000D02*
X125760000Y-71500000D01*
X125760000Y-71500000D02*
X125560000Y-71500000D01*
X125860000Y-72010000D02*
X125860000Y-73260000D01*
X125860000Y-73260000D02*
X124610000Y-73260000D01*
%TO.C,J3*%
X115040000Y-63810000D02*
X115040000Y-69690000D01*
X117010000Y-62640000D02*
X118160000Y-62640000D01*
X117010000Y-70860000D02*
X118160000Y-70860000D01*
X118160000Y-62640000D02*
X118160000Y-63690000D01*
X118160000Y-63690000D02*
X119150000Y-63690000D01*
X118160000Y-70860000D02*
X118160000Y-69810000D01*
%TO.C,U4*%
X104445426Y-59353058D02*
X104514887Y-58959133D01*
X107258525Y-43399171D02*
X107189068Y-43793094D01*
X120399313Y-62166157D02*
X104445426Y-59353058D01*
X120468770Y-61772234D02*
X120399313Y-62166157D01*
X123212412Y-46212270D02*
X107258525Y-43399171D01*
X123964785Y-46206837D02*
X123670088Y-46496057D01*
X123492077Y-46123486D01*
X123964785Y-46206837D01*
G36*
X123964785Y-46206837D02*
G01*
X123670088Y-46496057D01*
X123492077Y-46123486D01*
X123964785Y-46206837D01*
G37*
%TO.C,C14*%
X96838748Y-39965000D02*
X97361252Y-39965000D01*
X96838748Y-41435000D02*
X97361252Y-41435000D01*
%TO.C,D3*%
X93461665Y-66661621D02*
X90626167Y-69497119D01*
X93461665Y-66661621D02*
X94875879Y-68075835D01*
X94875879Y-68075835D02*
X92040381Y-70911333D01*
%TO.C,U1*%
X81050000Y-68362500D02*
X81050000Y-68137500D01*
X81050000Y-72137500D02*
X81050000Y-71612500D01*
X81050000Y-72137500D02*
X81575000Y-72137500D01*
X81515000Y-67837499D02*
X81290000Y-67837499D01*
X85350000Y-67837500D02*
X84825000Y-67837500D01*
X85350000Y-67837500D02*
X85350000Y-68362500D01*
X85350000Y-72137500D02*
X84825000Y-72137500D01*
X85350000Y-72137500D02*
X85350000Y-71612500D01*
X81050000Y-67837500D02*
X80720000Y-68077500D01*
X80720000Y-67597500D01*
X81050000Y-67837500D01*
G36*
X81050000Y-67837500D02*
G01*
X80720000Y-68077500D01*
X80720000Y-67597500D01*
X81050000Y-67837500D01*
G37*
%TO.C,R5*%
X104277064Y-76842500D02*
X103822936Y-76842500D01*
X104277064Y-78312500D02*
X103822936Y-78312500D01*
%TO.C,C11*%
X121107836Y-78040000D02*
X120892164Y-78040000D01*
X121107836Y-78760000D02*
X120892164Y-78760000D01*
%TO.C,C6*%
X121105178Y-74116957D02*
X121281847Y-73993253D01*
X121518153Y-74706747D02*
X121694822Y-74583043D01*
%TO.C,J4*%
X93517482Y-70305025D02*
X96855026Y-66967481D01*
X94380152Y-70305025D02*
X96855026Y-67830151D01*
X95009477Y-68813030D02*
X95440812Y-69244365D01*
X95928716Y-67893791D02*
X96360051Y-68325126D01*
X96112564Y-72037437D02*
X96466117Y-71683883D01*
X96183274Y-72108147D02*
X96536828Y-71754594D01*
X96395406Y-71613173D02*
X96041853Y-71966726D01*
X96536828Y-71754594D02*
X96395406Y-71613173D01*
X96855026Y-66967481D02*
X101182519Y-71294975D01*
X96855026Y-67830151D02*
X98233884Y-69209010D01*
X97844975Y-73769848D02*
X94380152Y-70305025D01*
X97844975Y-74632519D02*
X93517482Y-70305025D01*
X98233884Y-69209010D02*
X98665219Y-68777675D01*
X98940991Y-69916116D02*
X100319849Y-71294975D01*
X99336971Y-73140523D02*
X98905635Y-72709188D01*
X99372326Y-69484781D02*
X98940991Y-69916116D01*
X99938011Y-70050467D02*
X100079433Y-69909045D01*
X100008722Y-69979756D02*
X100220854Y-70191888D01*
X100079433Y-69909045D02*
X100291565Y-70121177D01*
X100256209Y-72221285D02*
X99824874Y-71789949D01*
X100291565Y-70121177D02*
X100150143Y-70262599D01*
X100319849Y-71294975D02*
X97844975Y-73769848D01*
X100722900Y-70411091D02*
X101606783Y-71294975D01*
X101182519Y-71294975D02*
X97844975Y-74632519D01*
X101606783Y-71294975D02*
X100722900Y-72178858D01*
%TO.C,C2*%
X112407836Y-70640000D02*
X112192164Y-70639999D01*
X112407836Y-71360001D02*
X112192164Y-71360000D01*
%TO.C,R13*%
X95340835Y-65057218D02*
X95019718Y-65378335D01*
X96380282Y-66096665D02*
X96059165Y-66417782D01*
%TO.C,R19*%
X124603641Y-78720000D02*
X124296359Y-78720000D01*
X124603641Y-79480000D02*
X124296359Y-79480000D01*
%TD*%
%LPC*%
D13*
%TO.C,J8*%
X89878606Y-58416978D03*
D14*
X91164181Y-59949067D03*
%TD*%
D15*
%TO.C,M2*%
X92250000Y-88000000D03*
%TD*%
D16*
%TO.C,J1*%
X92799818Y-47605449D03*
D17*
X87708650Y-52696617D03*
D18*
X88337975Y-41884954D03*
X92290702Y-46346798D03*
X86450000Y-52187500D03*
X81988156Y-48234773D03*
%TD*%
D15*
%TO.C,REF\u002A\u002A*%
X110600000Y-41350000D03*
%TD*%
%TO.C,M2*%
X128900000Y-56800000D03*
%TD*%
D19*
%TO.C,J10*%
X120489231Y-43844593D03*
D14*
X118519615Y-43497297D03*
X116550000Y-43150000D03*
X114580384Y-42802704D03*
%TD*%
D20*
%TO.C,J2*%
X99450000Y-46660000D03*
D21*
X96910000Y-44120000D03*
X96910000Y-49200000D03*
X101990000Y-44120000D03*
X101990000Y-49200000D03*
%TD*%
D15*
%TO.C,REF\u002A\u002A*%
X79550000Y-55500000D03*
%TD*%
D22*
%TO.C,U3*%
X111399999Y-89100000D03*
D23*
X112399999Y-89099999D03*
X113400000Y-89100000D03*
X114399999Y-89100000D03*
X115399999Y-89100000D03*
%TD*%
D22*
%TO.C,J6*%
X121400000Y-81200000D03*
D23*
X122400000Y-81200000D03*
X121400000Y-82200000D03*
X122400000Y-82200000D03*
X121400000Y-83200000D03*
X122400000Y-83200000D03*
%TD*%
D24*
%TO.C,R9*%
X106262500Y-74037500D03*
X104437500Y-74037500D03*
%TD*%
D25*
%TO.C,R15*%
X124845234Y-85142265D03*
X123554766Y-86432735D03*
%TD*%
%TO.C,R23*%
X93195235Y-62204765D03*
X91904765Y-63495235D03*
%TD*%
%TO.C,R22*%
X94745235Y-63704765D03*
X93454765Y-64995235D03*
%TD*%
D26*
%TO.C,C7*%
X114720000Y-72800000D03*
X115680000Y-72800000D03*
%TD*%
D27*
%TO.C,C19*%
X88250000Y-70082080D03*
X88250000Y-68182080D03*
%TD*%
D28*
%TO.C,J7*%
X96375000Y-54550000D03*
X96375000Y-55550000D03*
X96375000Y-56550000D03*
D29*
X93850000Y-53250000D03*
X93850000Y-57850000D03*
%TD*%
D30*
%TO.C,C1*%
X112030000Y-79650000D03*
X111070000Y-79650000D03*
%TD*%
%TO.C,C5*%
X121430000Y-79500000D03*
X120470000Y-79500000D03*
%TD*%
D31*
%TO.C,R16*%
X124587500Y-82937500D03*
X126412500Y-82937500D03*
%TD*%
D32*
%TO.C,J5*%
X84185575Y-79782089D03*
D33*
X82900000Y-78250000D03*
%TD*%
D24*
%TO.C,R6*%
X103612500Y-79827500D03*
X101787500Y-79827500D03*
%TD*%
D34*
%TO.C,J9*%
X107900000Y-88175000D03*
X106900000Y-88175000D03*
X105900000Y-88175000D03*
D35*
X109200000Y-85650000D03*
X104600000Y-85650000D03*
%TD*%
D36*
%TO.C,J11*%
X123750000Y-70900000D03*
D37*
X123750000Y-68900000D03*
X123750000Y-66900000D03*
%TD*%
D28*
%TO.C,J3*%
X118375000Y-64250000D03*
X118375000Y-65250000D03*
X118375000Y-66250000D03*
X118375000Y-67250000D03*
X118375000Y-68250000D03*
X118375000Y-69250000D03*
D29*
X115850000Y-62950000D03*
X115850000Y-70550000D03*
%TD*%
D38*
%TO.C,U4*%
X122455135Y-47195712D03*
X122107838Y-49165328D03*
X121760541Y-51134943D03*
X121413247Y-53104559D03*
X121065949Y-55074174D03*
X120718652Y-57043789D03*
X120371356Y-59013405D03*
X120024060Y-60983022D03*
X105202703Y-58369616D03*
X105550000Y-56400000D03*
X105897297Y-54430385D03*
X106244591Y-52460769D03*
X106591889Y-50491154D03*
X106939186Y-48521539D03*
X107286482Y-46551923D03*
X107633778Y-44582306D03*
%TD*%
D39*
%TO.C,C14*%
X96150000Y-40700000D03*
X98050000Y-40700000D03*
%TD*%
D40*
%TO.C,D3*%
X93666726Y-67870774D03*
X91333274Y-70204226D03*
%TD*%
D41*
%TO.C,U1*%
X81950000Y-68037500D03*
X82450000Y-68037500D03*
X82950000Y-68037500D03*
X83450000Y-68037500D03*
X83950000Y-68037500D03*
X84450000Y-68037500D03*
D42*
X85150000Y-68737500D03*
X85150000Y-69237500D03*
X85150000Y-69737500D03*
X85150000Y-70237500D03*
X85150000Y-70737500D03*
X85150000Y-71237500D03*
D41*
X84450000Y-71937500D03*
X83950000Y-71937500D03*
X83450000Y-71937500D03*
X82950000Y-71937500D03*
X82450000Y-71937500D03*
X81950000Y-71937500D03*
D42*
X81250000Y-71237500D03*
X81250000Y-70737500D03*
X81250000Y-70237500D03*
X81250000Y-69737500D03*
X81250000Y-69237500D03*
X81250000Y-68737500D03*
%TD*%
D24*
%TO.C,R5*%
X104962500Y-77577500D03*
X103137500Y-77577500D03*
%TD*%
D30*
%TO.C,C11*%
X121480000Y-78400000D03*
X120520000Y-78400000D03*
%TD*%
D43*
%TO.C,C6*%
X121006807Y-74625317D03*
X121793193Y-74074683D03*
%TD*%
D44*
%TO.C,J4*%
X98446016Y-71118198D03*
D45*
X97031802Y-69703984D03*
%TD*%
D30*
%TO.C,C2*%
X112780000Y-71000000D03*
X111820000Y-71000000D03*
%TD*%
D25*
%TO.C,R13*%
X96345235Y-65092265D03*
X95054765Y-66382735D03*
%TD*%
D46*
%TO.C,R19*%
X124960000Y-79100000D03*
X123940000Y-79100000D03*
%TD*%
%LPD*%
M02*
