%TF.GenerationSoftware,KiCad,Pcbnew,9.0.3+dfsg-1*%
%TF.CreationDate,2026-03-11T10:20:49+01:00*%
%TF.ProjectId,CanSat,43616e53-6174-42e6-9b69-6361645f7063,v2.1.0*%
%TF.SameCoordinates,Original*%
%TF.FileFunction,Soldermask,Top*%
%TF.FilePolarity,Negative*%
%FSLAX46Y46*%
G04 Gerber Fmt 4.6, Leading zero omitted, Abs format (unit mm)*
G04 Created by KiCad (PCBNEW 9.0.3+dfsg-1) date 2026-03-11 10:20:49*
%MOMM*%
%LPD*%
G01*
G04 APERTURE LIST*
G04 Aperture macros list*
%AMRoundRect*
0 Rectangle with rounded corners*
0 $1 Rounding radius*
0 $2 $3 $4 $5 $6 $7 $8 $9 X,Y pos of 4 corners*
0 Add a 4 corners polygon primitive as box body*
4,1,4,$2,$3,$4,$5,$6,$7,$8,$9,$2,$3,0*
0 Add four circle primitives for the rounded corners*
1,1,$1+$1,$2,$3*
1,1,$1+$1,$4,$5*
1,1,$1+$1,$6,$7*
1,1,$1+$1,$8,$9*
0 Add four rect primitives between the rounded corners*
20,1,$1+$1,$2,$3,$4,$5,0*
20,1,$1+$1,$4,$5,$6,$7,0*
20,1,$1+$1,$6,$7,$8,$9,0*
20,1,$1+$1,$8,$9,$2,$3,0*%
%AMHorizOval*
0 Thick line with rounded ends*
0 $1 width*
0 $2 $3 position (X,Y) of the first rounded end (center of the circle)*
0 $4 $5 position (X,Y) of the second rounded end (center of the circle)*
0 Add line between two ends*
20,1,$1,$2,$3,$4,$5,0*
0 Add two circle primitives to create the rounded ends*
1,1,$1,$2,$3*
1,1,$1,$4,$5*%
%AMRotRect*
0 Rectangle, with rotation*
0 The origin of the aperture is its center*
0 $1 length*
0 $2 width*
0 $3 Rotation angle, in degrees counterclockwise*
0 Add horizontal line*
21,1,$1,$2,0,0,$3*%
%AMFreePoly0*
4,1,18,-0.437500,0.050000,-0.433694,0.069134,-0.422855,0.085355,-0.406634,0.096194,-0.387500,0.100000,0.387500,0.100000,0.437500,0.050000,0.437500,-0.050000,0.433694,-0.069134,0.422855,-0.085355,0.406634,-0.096194,0.387500,-0.100000,-0.387500,-0.100000,-0.406634,-0.096194,-0.422855,-0.085355,-0.433694,-0.069134,-0.437500,-0.050000,-0.437500,0.050000,-0.437500,0.050000,$1*%
%AMFreePoly1*
4,1,18,-0.437500,0.050000,-0.433694,0.069134,-0.422855,0.085355,-0.406634,0.096194,-0.387500,0.100000,0.387500,0.100000,0.406634,0.096194,0.422855,0.085355,0.433694,0.069134,0.437500,0.050000,0.437500,-0.050000,0.387500,-0.100000,-0.387500,-0.100000,-0.406634,-0.096194,-0.422855,-0.085355,-0.433694,-0.069134,-0.437500,-0.050000,-0.437500,0.050000,-0.437500,0.050000,$1*%
%AMFreePoly2*
4,1,18,-0.100000,0.387500,-0.050000,0.437500,0.050000,0.437500,0.069134,0.433694,0.085355,0.422855,0.096194,0.406634,0.100000,0.387500,0.100000,-0.387500,0.096194,-0.406634,0.085355,-0.422855,0.069134,-0.433694,0.050000,-0.437500,-0.050000,-0.437500,-0.069134,-0.433694,-0.085355,-0.422855,-0.096194,-0.406634,-0.100000,-0.387500,-0.100000,0.387500,-0.100000,0.387500,$1*%
%AMFreePoly3*
4,1,18,-0.100000,0.387500,-0.096194,0.406634,-0.085355,0.422855,-0.069134,0.433694,-0.050000,0.437500,0.050000,0.437500,0.100000,0.387500,0.100000,-0.387500,0.096194,-0.406634,0.085355,-0.422855,0.069134,-0.433694,0.050000,-0.437500,-0.050000,-0.437500,-0.069134,-0.433694,-0.085355,-0.422855,-0.096194,-0.406634,-0.100000,-0.387500,-0.100000,0.387500,-0.100000,0.387500,$1*%
%AMFreePoly4*
4,1,18,-0.437500,0.050000,-0.433694,0.069134,-0.422855,0.085355,-0.406634,0.096194,-0.387500,0.100000,0.387500,0.100000,0.406634,0.096194,0.422855,0.085355,0.433694,0.069134,0.437500,0.050000,0.437500,-0.050000,0.433694,-0.069134,0.422855,-0.085355,0.406634,-0.096194,0.387500,-0.100000,-0.387500,-0.100000,-0.437500,-0.050000,-0.437500,0.050000,-0.437500,0.050000,$1*%
%AMFreePoly5*
4,1,18,-0.437500,0.050000,-0.387500,0.100000,0.387500,0.100000,0.406634,0.096194,0.422855,0.085355,0.433694,0.069134,0.437500,0.050000,0.437500,-0.050000,0.433694,-0.069134,0.422855,-0.085355,0.406634,-0.096194,0.387500,-0.100000,-0.387500,-0.100000,-0.406634,-0.096194,-0.422855,-0.085355,-0.433694,-0.069134,-0.437500,-0.050000,-0.437500,0.050000,-0.437500,0.050000,$1*%
%AMFreePoly6*
4,1,18,-0.100000,0.387500,-0.096194,0.406634,-0.085355,0.422855,-0.069134,0.433694,-0.050000,0.437500,0.050000,0.437500,0.069134,0.433694,0.085355,0.422855,0.096194,0.406634,0.100000,0.387500,0.100000,-0.387500,0.050000,-0.437500,-0.050000,-0.437500,-0.069134,-0.433694,-0.085355,-0.422855,-0.096194,-0.406634,-0.100000,-0.387500,-0.100000,0.387500,-0.100000,0.387500,$1*%
%AMFreePoly7*
4,1,18,-0.100000,0.387500,-0.096194,0.406634,-0.085355,0.422855,-0.069134,0.433694,-0.050000,0.437500,0.050000,0.437500,0.069134,0.433694,0.085355,0.422855,0.096194,0.406634,0.100000,0.387500,0.100000,-0.387500,0.096194,-0.406634,0.085355,-0.422855,0.069134,-0.433694,0.050000,-0.437500,-0.050000,-0.437500,-0.100000,-0.387500,-0.100000,0.387500,-0.100000,0.387500,$1*%
G04 Aperture macros list end*
%ADD10R,2.400000X2.000000*%
%ADD11RoundRect,0.250000X0.375000X1.075000X-0.375000X1.075000X-0.375000X-1.075000X0.375000X-1.075000X0*%
%ADD12RoundRect,0.250000X-0.450000X0.262500X-0.450000X-0.262500X0.450000X-0.262500X0.450000X0.262500X0*%
%ADD13RotRect,0.850000X0.850000X40.000000*%
%ADD14C,0.850000*%
%ADD15RoundRect,0.147500X0.147500X0.172500X-0.147500X0.172500X-0.147500X-0.172500X0.147500X-0.172500X0*%
%ADD16FreePoly0,90.000000*%
%ADD17RoundRect,0.050000X0.050000X-0.387500X0.050000X0.387500X-0.050000X0.387500X-0.050000X-0.387500X0*%
%ADD18FreePoly1,90.000000*%
%ADD19FreePoly2,90.000000*%
%ADD20RoundRect,0.050000X0.387500X-0.050000X0.387500X0.050000X-0.387500X0.050000X-0.387500X-0.050000X0*%
%ADD21FreePoly3,90.000000*%
%ADD22FreePoly4,90.000000*%
%ADD23FreePoly5,90.000000*%
%ADD24FreePoly6,90.000000*%
%ADD25FreePoly7,90.000000*%
%ADD26RoundRect,0.153000X1.547000X1.547000X-1.547000X1.547000X-1.547000X-1.547000X1.547000X-1.547000X0*%
%ADD27RoundRect,0.250000X0.262500X0.450000X-0.262500X0.450000X-0.262500X-0.450000X0.262500X-0.450000X0*%
%ADD28RoundRect,0.250000X-0.295000X0.320000X-0.295000X-0.320000X0.295000X-0.320000X0.295000X0.320000X0*%
%ADD29RoundRect,0.250000X0.450000X-0.262500X0.450000X0.262500X-0.450000X0.262500X-0.450000X-0.262500X0*%
%ADD30RotRect,0.300000X0.700000X225.000000*%
%ADD31HorizOval,0.800000X-0.212132X0.212132X0.212132X-0.212132X0*%
%ADD32RoundRect,0.250000X0.295000X-0.320000X0.295000X0.320000X-0.295000X0.320000X-0.295000X-0.320000X0*%
%ADD33R,1.050000X0.650000*%
%ADD34R,0.450000X1.050000*%
%ADD35R,4.350000X3.450000*%
%ADD36RoundRect,0.250000X-0.017678X-0.434871X0.434871X0.017678X0.017678X0.434871X-0.434871X-0.017678X0*%
%ADD37RoundRect,0.250000X-0.520961X0.002332X-0.258461X-0.452332X0.520961X-0.002332X0.258461X0.452332X0*%
%ADD38RoundRect,0.250000X0.199806X0.386656X-0.401598X0.167763X-0.199806X-0.386656X0.401598X-0.167763X0*%
%ADD39RotRect,0.270000X0.520000X135.000000*%
%ADD40RotRect,0.360000X0.520000X135.000000*%
%ADD41R,0.850000X0.850000*%
%ADD42RoundRect,0.250000X-0.132583X0.503814X-0.503814X0.132583X0.132583X-0.503814X0.503814X-0.132583X0*%
%ADD43RoundRect,0.250000X-0.262500X-0.450000X0.262500X-0.450000X0.262500X0.450000X-0.262500X0.450000X0*%
%ADD44RoundRect,0.250000X-0.320000X-0.295000X0.320000X-0.295000X0.320000X0.295000X-0.320000X0.295000X0*%
%ADD45C,2.050000*%
%ADD46C,2.250000*%
%ADD47RotRect,0.850000X0.850000X45.000000*%
%ADD48R,1.300000X1.100000*%
%ADD49RotRect,0.500000X0.350000X200.000000*%
%ADD50RotRect,0.850000X0.850000X230.000000*%
%ADD51RotRect,1.050000X0.650000X220.000000*%
%ADD52RoundRect,0.033880X0.208120X-0.328120X0.208120X0.328120X-0.208120X0.328120X-0.208120X-0.328120X0*%
%ADD53RoundRect,0.050500X0.851500X-0.151500X0.851500X0.151500X-0.851500X0.151500X-0.851500X-0.151500X0*%
%ADD54RotRect,3.000000X3.000000X130.000000*%
%ADD55C,3.000000*%
G04 APERTURE END LIST*
D10*
%TO.C,BZ1*%
X97600000Y-86050000D03*
X97600000Y-90050000D03*
%TD*%
D11*
%TO.C,L1*%
X116600000Y-69600000D03*
X119400000Y-69600000D03*
%TD*%
D12*
%TO.C,R4*%
X108850000Y-75525000D03*
X108850000Y-77350000D03*
%TD*%
D13*
%TO.C,J8*%
X89878606Y-58416978D03*
D14*
X90521393Y-59183022D03*
%TD*%
D15*
%TO.C,D2*%
X119335000Y-84387500D03*
X118365000Y-84387500D03*
%TD*%
D16*
%TO.C,U5*%
X113000000Y-81825000D03*
D17*
X113400000Y-81825000D03*
X113800000Y-81825000D03*
X114200000Y-81825000D03*
X114600000Y-81825000D03*
X115000000Y-81825000D03*
X115400000Y-81825000D03*
X115800000Y-81825000D03*
X116200000Y-81825000D03*
X116600000Y-81825000D03*
X117000000Y-81825000D03*
X117400000Y-81825000D03*
X117800000Y-81825000D03*
X118200000Y-81825000D03*
D18*
X118600000Y-81825000D03*
D19*
X119237500Y-81187500D03*
D20*
X119237500Y-80787500D03*
X119237500Y-80387500D03*
X119237500Y-79987500D03*
X119237500Y-79587500D03*
X119237500Y-79187500D03*
X119237500Y-78787500D03*
X119237500Y-78387500D03*
X119237500Y-77987500D03*
X119237500Y-77587500D03*
X119237500Y-77187500D03*
X119237500Y-76787500D03*
X119237500Y-76387500D03*
X119237500Y-75987500D03*
D21*
X119237500Y-75587500D03*
D22*
X118600000Y-74950000D03*
D17*
X118200000Y-74950000D03*
X117800000Y-74950000D03*
X117400000Y-74950000D03*
X117000000Y-74950000D03*
X116600000Y-74950000D03*
X116200000Y-74950000D03*
X115800000Y-74950000D03*
X115400000Y-74950000D03*
X115000000Y-74950000D03*
X114600000Y-74950000D03*
X114200000Y-74950000D03*
X113800000Y-74950000D03*
X113400000Y-74950000D03*
D23*
X113000000Y-74950000D03*
D24*
X112362500Y-75587500D03*
D20*
X112362500Y-75987500D03*
X112362500Y-76387500D03*
X112362500Y-76787500D03*
X112362500Y-77187500D03*
X112362500Y-77587500D03*
X112362500Y-77987500D03*
X112362500Y-78387500D03*
X112362500Y-78787500D03*
X112362500Y-79187500D03*
X112362500Y-79587500D03*
X112362500Y-79987500D03*
X112362500Y-80387500D03*
X112362500Y-80787500D03*
D25*
X112362500Y-81187500D03*
D26*
X115800000Y-78387500D03*
%TD*%
D27*
%TO.C,R7*%
X103662500Y-83087500D03*
X101837500Y-83087500D03*
%TD*%
D28*
%TO.C,C30*%
X103350000Y-76937500D03*
X103350000Y-78717500D03*
%TD*%
D29*
%TO.C,R23*%
X110800000Y-65400000D03*
X110800000Y-63575000D03*
%TD*%
D27*
%TO.C,R22*%
X118962500Y-57687500D03*
X117137500Y-57687500D03*
%TD*%
D30*
%TO.C,J1*%
X92665469Y-48673179D03*
X92311915Y-49026733D03*
X91958361Y-49380287D03*
X91604809Y-49733840D03*
X91251255Y-50087393D03*
X90897701Y-50440946D03*
X90544149Y-50794500D03*
X90190595Y-51148053D03*
X89837042Y-51501607D03*
X89483489Y-51855161D03*
X89129935Y-52208713D03*
X88776381Y-52562267D03*
X87751077Y-51183408D03*
X88104630Y-50829855D03*
X88458183Y-50476302D03*
X88811737Y-50122748D03*
X89165290Y-49769195D03*
X89518844Y-49415641D03*
X89872397Y-49062088D03*
X90225950Y-48708535D03*
X90579504Y-48354981D03*
X90933057Y-48001428D03*
X91286610Y-47647875D03*
X91640164Y-47294321D03*
D31*
X88337975Y-41884954D03*
X92290702Y-46346798D03*
X86450000Y-52187500D03*
X81988156Y-48234773D03*
%TD*%
D32*
%TO.C,C31*%
X113100000Y-51290000D03*
X113100000Y-49510000D03*
%TD*%
D33*
%TO.C,SW2*%
X120950000Y-56400000D03*
X125100000Y-56400000D03*
X120950000Y-58550000D03*
X125075000Y-58550000D03*
%TD*%
D32*
%TO.C,C15*%
X124350000Y-63840000D03*
X124350000Y-62060000D03*
%TD*%
D34*
%TO.C,IC1*%
X89145000Y-79632500D03*
X90415000Y-79632500D03*
X91685000Y-79632500D03*
X92955000Y-79632500D03*
X92955000Y-73932500D03*
X91685000Y-73932500D03*
X90415000Y-73932500D03*
X89145000Y-73932500D03*
D35*
X91050000Y-76782500D03*
%TD*%
D36*
%TO.C,C21*%
X86720675Y-62316825D03*
X87979325Y-61058175D03*
%TD*%
D28*
%TO.C,C17*%
X87000000Y-72897500D03*
X87000000Y-74677500D03*
%TD*%
D37*
%TO.C,R12*%
X93993750Y-81809752D03*
X94906250Y-83390248D03*
%TD*%
D29*
%TO.C,R3*%
X106850000Y-77950000D03*
X106850000Y-76125000D03*
%TD*%
D32*
%TO.C,C32*%
X115150000Y-51290000D03*
X115150000Y-49510000D03*
%TD*%
D38*
%TO.C,C27*%
X82336326Y-60495603D03*
X80663674Y-61104397D03*
%TD*%
D39*
%TO.C,D1*%
X93179325Y-41423860D03*
X92613640Y-40858174D03*
D40*
X92203518Y-41833982D03*
%TD*%
D41*
%TO.C,J7*%
X98050000Y-40900000D03*
D14*
X97050000Y-40900000D03*
X96050000Y-40900000D03*
%TD*%
D38*
%TO.C,C28*%
X81586326Y-58595602D03*
X79913674Y-59204398D03*
%TD*%
D42*
%TO.C,R11*%
X85595235Y-57104765D03*
X84304765Y-58395235D03*
%TD*%
D41*
%TO.C,J10*%
X118650000Y-42650000D03*
D14*
X117650000Y-42650000D03*
X116650000Y-42650000D03*
X115650000Y-42650000D03*
%TD*%
D43*
%TO.C,R18*%
X109887500Y-53200000D03*
X111712500Y-53200000D03*
%TD*%
D44*
%TO.C,C9*%
X106160000Y-72837500D03*
X107940000Y-72837500D03*
%TD*%
D45*
%TO.C,J2*%
X99450000Y-46660000D03*
D46*
X96910000Y-44120000D03*
X96910000Y-49200000D03*
X101990000Y-44120000D03*
X101990000Y-49200000D03*
%TD*%
D29*
%TO.C,R1*%
X130250000Y-73450000D03*
X130250000Y-71625000D03*
%TD*%
%TO.C,R20*%
X111400000Y-69850000D03*
X111400000Y-68025000D03*
%TD*%
D47*
%TO.C,U3*%
X88200000Y-63887500D03*
D14*
X88907107Y-64594606D03*
X89614214Y-65301714D03*
X90321320Y-66008820D03*
X91028427Y-66715927D03*
%TD*%
D28*
%TO.C,C18*%
X77900000Y-73147500D03*
X77900000Y-74927500D03*
%TD*%
D43*
%TO.C,R2*%
X124587500Y-80787500D03*
X126412500Y-80787500D03*
%TD*%
D48*
%TO.C,Y2*%
X127600000Y-76287500D03*
X125500000Y-76287500D03*
X125500000Y-77937500D03*
X127600000Y-77937500D03*
%TD*%
D49*
%TO.C,U8*%
X82050000Y-64387500D03*
X81827687Y-63776699D03*
X81605373Y-63165899D03*
X81383060Y-62555098D03*
X82886568Y-62007866D03*
X83108881Y-62618667D03*
X83331195Y-63229467D03*
X83553508Y-63840268D03*
%TD*%
D50*
%TO.C,J9*%
X93183023Y-62521394D03*
D14*
X92416979Y-61878606D03*
%TD*%
D33*
%TO.C,SW1*%
X122575000Y-51662500D03*
X126725000Y-51662500D03*
X122575000Y-53812500D03*
X126700000Y-53812500D03*
%TD*%
D28*
%TO.C,C13*%
X127900000Y-71647500D03*
X127900000Y-73427500D03*
%TD*%
%TO.C,C29*%
X96400000Y-77037500D03*
X96400000Y-78817500D03*
%TD*%
D51*
%TO.C,SW3*%
X93630539Y-85889713D03*
X90451454Y-88557282D03*
X92248546Y-84242718D03*
X89088612Y-86894217D03*
%TD*%
D42*
%TO.C,R10*%
X84245235Y-55454764D03*
X82954765Y-56745236D03*
%TD*%
D52*
%TO.C,U9*%
X99000000Y-79137500D03*
X99500000Y-79137500D03*
X100000000Y-79137500D03*
X100500000Y-79137500D03*
X100500000Y-76677500D03*
X100000000Y-76677500D03*
X99500000Y-76677500D03*
X99000000Y-76677500D03*
D53*
X99750000Y-77907500D03*
%TD*%
D27*
%TO.C,R21*%
X118962500Y-54987500D03*
X117137500Y-54987500D03*
%TD*%
D41*
%TO.C,J4*%
X98150000Y-68500000D03*
D14*
X97150000Y-68500000D03*
%TD*%
D41*
%TO.C,J6*%
X121400000Y-81200000D03*
D14*
X122400000Y-81200000D03*
X121400000Y-82200000D03*
X122400000Y-82200000D03*
X121400000Y-83200000D03*
X122400000Y-83200000D03*
%TD*%
D12*
%TO.C,R14*%
X127850000Y-60037500D03*
X127850000Y-61862500D03*
%TD*%
D27*
%TO.C,R8*%
X103612500Y-80937500D03*
X101787500Y-80937500D03*
%TD*%
D54*
%TO.C,J5*%
X87100000Y-83450000D03*
D55*
X83834639Y-79558494D03*
%TD*%
M02*
