%TF.GenerationSoftware,KiCad,Pcbnew,9.0.3+dfsg-1*%
%TF.CreationDate,2026-03-13T20:00:48+01:00*%
%TF.ProjectId,CanSat,43616e53-6174-42e6-9b69-6361645f7063,v3.1.1*%
%TF.SameCoordinates,Original*%
%TF.FileFunction,Soldermask,Bot*%
%TF.FilePolarity,Negative*%
%FSLAX46Y46*%
G04 Gerber Fmt 4.6, Leading zero omitted, Abs format (unit mm)*
G04 Created by KiCad (PCBNEW 9.0.3+dfsg-1) date 2026-03-13 20:00:48*
%MOMM*%
%LPD*%
G01*
G04 APERTURE LIST*
G04 Aperture macros list*
%AMRoundRect*
0 Rectangle with rounded corners*
0 $1 Rounding radius*
0 $2 $3 $4 $5 $6 $7 $8 $9 X,Y pos of 4 corners*
0 Add a 4 corners polygon primitive as box body*
4,1,4,$2,$3,$4,$5,$6,$7,$8,$9,$2,$3,0*
0 Add four circle primitives for the rounded corners*
1,1,$1+$1,$2,$3*
1,1,$1+$1,$4,$5*
1,1,$1+$1,$6,$7*
1,1,$1+$1,$8,$9*
0 Add four rect primitives between the rounded corners*
20,1,$1+$1,$2,$3,$4,$5,0*
20,1,$1+$1,$4,$5,$6,$7,0*
20,1,$1+$1,$6,$7,$8,$9,0*
20,1,$1+$1,$8,$9,$2,$3,0*%
%AMHorizOval*
0 Thick line with rounded ends*
0 $1 width*
0 $2 $3 position (X,Y) of the first rounded end (center of the circle)*
0 $4 $5 position (X,Y) of the second rounded end (center of the circle)*
0 Add line between two ends*
20,1,$1,$2,$3,$4,$5,0*
0 Add two circle primitives to create the rounded ends*
1,1,$1,$2,$3*
1,1,$1,$4,$5*%
%AMRotRect*
0 Rectangle, with rotation*
0 The origin of the aperture is its center*
0 $1 length*
0 $2 width*
0 $3 Rotation angle, in degrees counterclockwise*
0 Add horizontal line*
21,1,$1,$2,0,0,$3*%
G04 Aperture macros list end*
%ADD10RotRect,1.350000X1.350000X40.000000*%
%ADD11C,1.350000*%
%ADD12C,2.200000*%
%ADD13C,0.650000*%
%ADD14HorizOval,0.650000X-0.106066X-0.106066X0.106066X0.106066X0*%
%ADD15HorizOval,0.800000X-0.212132X0.212132X0.212132X-0.212132X0*%
%ADD16RotRect,1.350000X1.350000X260.000000*%
%ADD17C,2.050000*%
%ADD18C,2.250000*%
%ADD19R,0.850000X0.850000*%
%ADD20C,0.850000*%
%ADD21RoundRect,0.250000X-0.132583X0.503814X-0.503814X0.132583X0.132583X-0.503814X0.503814X-0.132583X0*%
%ADD22RoundRect,0.140000X-0.140000X-0.170000X0.140000X-0.170000X0.140000X0.170000X-0.140000X0.170000X0*%
%ADD23RoundRect,0.250000X0.475000X-0.250000X0.475000X0.250000X-0.475000X0.250000X-0.475000X-0.250000X0*%
%ADD24RoundRect,0.250000X0.113813X-0.524568X0.496835X-0.203174X-0.113813X0.524568X-0.496835X0.203174X0*%
%ADD25RoundRect,0.150000X-0.625000X0.150000X-0.625000X-0.150000X0.625000X-0.150000X0.625000X0.150000X0*%
%ADD26RoundRect,0.250000X-0.650000X0.350000X-0.650000X-0.350000X0.650000X-0.350000X0.650000X0.350000X0*%
%ADD27RoundRect,0.140000X0.140000X0.170000X-0.140000X0.170000X-0.140000X-0.170000X0.140000X-0.170000X0*%
%ADD28RoundRect,0.250000X-0.262500X-0.450000X0.262500X-0.450000X0.262500X0.450000X-0.262500X0.450000X0*%
%ADD29RoundRect,0.250000X0.703753X0.133627X0.253802X0.669858X-0.703753X-0.133627X-0.253802X-0.669858X0*%
%ADD30HorizOval,1.200000X0.210662X0.176767X-0.210662X-0.176767X0*%
%ADD31RoundRect,0.150000X0.150000X0.625000X-0.150000X0.625000X-0.150000X-0.625000X0.150000X-0.625000X0*%
%ADD32RoundRect,0.250000X0.350000X0.650000X-0.350000X0.650000X-0.350000X-0.650000X0.350000X-0.650000X0*%
%ADD33RoundRect,0.250000X0.625000X-0.350000X0.625000X0.350000X-0.625000X0.350000X-0.625000X-0.350000X0*%
%ADD34O,1.750000X1.200000*%
%ADD35RoundRect,0.317500X1.195048X0.111679X-1.084782X0.513674X-1.195048X-0.111679X1.084782X-0.513674X0*%
%ADD36RoundRect,0.250000X-0.250000X-0.475000X0.250000X-0.475000X0.250000X0.475000X-0.250000X0.475000X0*%
%ADD37RoundRect,0.225000X-0.106066X0.424264X-0.424264X0.106066X0.106066X-0.424264X0.424264X-0.106066X0*%
%ADD38RoundRect,0.075000X-0.075000X0.350000X-0.075000X-0.350000X0.075000X-0.350000X0.075000X0.350000X0*%
%ADD39RoundRect,0.075000X0.350000X0.075000X-0.350000X0.075000X-0.350000X-0.075000X0.350000X-0.075000X0*%
%ADD40RoundRect,0.140000X-0.017173X-0.219557X0.212189X-0.058955X0.017173X0.219557X-0.212189X0.058955X0*%
%ADD41RoundRect,0.250000X0.689429X0.194454X0.194454X0.689429X-0.689429X-0.194454X-0.194454X-0.689429X0*%
%ADD42HorizOval,1.200000X0.194454X0.194454X-0.194454X-0.194454X0*%
%ADD43RoundRect,0.135000X0.135000X0.185000X-0.135000X0.185000X-0.135000X-0.185000X0.135000X-0.185000X0*%
G04 APERTURE END LIST*
D10*
%TO.C,J8*%
X89878606Y-58416978D03*
D11*
X91164181Y-59949067D03*
%TD*%
D12*
%TO.C,M2*%
X92250000Y-88000000D03*
%TD*%
D13*
%TO.C,J1*%
X92799818Y-47605449D03*
D14*
X87708650Y-52696617D03*
D15*
X88337975Y-41884954D03*
X92290702Y-46346798D03*
X86450000Y-52187500D03*
X81988156Y-48234773D03*
%TD*%
D12*
%TO.C,REF\u002A\u002A*%
X110600000Y-41350000D03*
%TD*%
%TO.C,M2*%
X128900000Y-56800000D03*
%TD*%
D16*
%TO.C,J10*%
X120489231Y-43844593D03*
D11*
X118519615Y-43497297D03*
X116550000Y-43150000D03*
X114580384Y-42802704D03*
%TD*%
D17*
%TO.C,J2*%
X99450000Y-46660000D03*
D18*
X96910000Y-44120000D03*
X96910000Y-49200000D03*
X101990000Y-44120000D03*
X101990000Y-49200000D03*
%TD*%
D12*
%TO.C,REF\u002A\u002A*%
X79550000Y-55500000D03*
%TD*%
D19*
%TO.C,U3*%
X111399999Y-89100000D03*
D20*
X112399999Y-89099999D03*
X113400000Y-89100000D03*
X114399999Y-89100000D03*
X115399999Y-89100000D03*
%TD*%
D19*
%TO.C,J6*%
X121400000Y-81200000D03*
D20*
X122400000Y-81200000D03*
X121400000Y-82200000D03*
X122400000Y-82200000D03*
X121400000Y-83200000D03*
X122400000Y-83200000D03*
%TD*%
D21*
%TO.C,R15*%
X124845234Y-85142265D03*
X123554766Y-86432735D03*
%TD*%
%TO.C,R23*%
X93195235Y-62204765D03*
X91904765Y-63495235D03*
%TD*%
%TO.C,R22*%
X94745235Y-63704765D03*
X93454765Y-64995235D03*
%TD*%
D22*
%TO.C,C7*%
X114720000Y-72800000D03*
X115680000Y-72800000D03*
%TD*%
D23*
%TO.C,C19*%
X88250000Y-70082080D03*
X88250000Y-68182080D03*
%TD*%
D24*
%TO.C,C25*%
X85772258Y-65760648D03*
X87227742Y-64539352D03*
%TD*%
D25*
%TO.C,J7*%
X96375000Y-54550000D03*
X96375000Y-55550000D03*
X96375000Y-56550000D03*
D26*
X93850000Y-53250000D03*
X93850000Y-57850000D03*
%TD*%
D27*
%TO.C,C1*%
X112030000Y-79650000D03*
X111070000Y-79650000D03*
%TD*%
%TO.C,C5*%
X121430000Y-79500000D03*
X120470000Y-79500000D03*
%TD*%
D28*
%TO.C,R16*%
X124587500Y-82937500D03*
X126412500Y-82937500D03*
%TD*%
D29*
%TO.C,J5*%
X84185575Y-79782089D03*
D30*
X82900000Y-78250000D03*
%TD*%
D31*
%TO.C,J9*%
X107900000Y-88175000D03*
X106900000Y-88175000D03*
X105900000Y-88175000D03*
D32*
X109200000Y-85650000D03*
X104600000Y-85650000D03*
%TD*%
D33*
%TO.C,J11*%
X123750000Y-70900000D03*
D34*
X123750000Y-68900000D03*
X123750000Y-66900000D03*
%TD*%
D25*
%TO.C,J3*%
X118375000Y-64250000D03*
X118375000Y-65250000D03*
X118375000Y-66250000D03*
X118375000Y-67250000D03*
X118375000Y-68250000D03*
X118375000Y-69250000D03*
D26*
X115850000Y-62950000D03*
X115850000Y-70550000D03*
%TD*%
D35*
%TO.C,U4*%
X122455135Y-47195712D03*
X122107838Y-49165328D03*
X121760541Y-51134943D03*
X121413247Y-53104559D03*
X121065949Y-55074174D03*
X120718652Y-57043789D03*
X120371356Y-59013405D03*
X120024060Y-60983022D03*
X105202703Y-58369616D03*
X105550000Y-56400000D03*
X105897297Y-54430385D03*
X106244591Y-52460769D03*
X106591889Y-50491154D03*
X106939186Y-48521539D03*
X107286482Y-46551923D03*
X107633778Y-44582306D03*
%TD*%
D36*
%TO.C,C14*%
X96150000Y-40700000D03*
X98050000Y-40700000D03*
%TD*%
D37*
%TO.C,D3*%
X93666726Y-67870774D03*
X91333274Y-70204226D03*
%TD*%
D38*
%TO.C,U1*%
X81950000Y-68037500D03*
X82450000Y-68037500D03*
X82950000Y-68037500D03*
X83450000Y-68037500D03*
X83950000Y-68037500D03*
X84450000Y-68037500D03*
D39*
X85150000Y-68737500D03*
X85150000Y-69237500D03*
X85150000Y-69737500D03*
X85150000Y-70237500D03*
X85150000Y-70737500D03*
X85150000Y-71237500D03*
D38*
X84450000Y-71937500D03*
X83950000Y-71937500D03*
X83450000Y-71937500D03*
X82950000Y-71937500D03*
X82450000Y-71937500D03*
X81950000Y-71937500D03*
D39*
X81250000Y-71237500D03*
X81250000Y-70737500D03*
X81250000Y-70237500D03*
X81250000Y-69737500D03*
X81250000Y-69237500D03*
X81250000Y-68737500D03*
%TD*%
D27*
%TO.C,C11*%
X121480000Y-78400000D03*
X120520000Y-78400000D03*
%TD*%
D40*
%TO.C,C6*%
X121006807Y-74625317D03*
X121793193Y-74074683D03*
%TD*%
D41*
%TO.C,J4*%
X98446016Y-71118198D03*
D42*
X97031802Y-69703984D03*
%TD*%
D27*
%TO.C,C2*%
X112780000Y-71000000D03*
X111820000Y-71000000D03*
%TD*%
D21*
%TO.C,R13*%
X96345235Y-65092265D03*
X95054765Y-66382735D03*
%TD*%
D43*
%TO.C,R19*%
X124960000Y-79100000D03*
X123940000Y-79100000D03*
%TD*%
M02*
