%TF.GenerationSoftware,KiCad,Pcbnew,9.0.3+dfsg-1*%
%TF.CreationDate,2026-03-12T15:58:35+01:00*%
%TF.ProjectId,CanSat,43616e53-6174-42e6-9b69-6361645f7063,v3.0.0*%
%TF.SameCoordinates,Original*%
%TF.FileFunction,Legend,Bot*%
%TF.FilePolarity,Positive*%
%FSLAX46Y46*%
G04 Gerber Fmt 4.6, Leading zero omitted, Abs format (unit mm)*
G04 Created by KiCad (PCBNEW 9.0.3+dfsg-1) date 2026-03-12 15:58:35*
%MOMM*%
%LPD*%
G01*
G04 APERTURE LIST*
G04 Aperture macros list*
%AMRoundRect*
0 Rectangle with rounded corners*
0 $1 Rounding radius*
0 $2 $3 $4 $5 $6 $7 $8 $9 X,Y pos of 4 corners*
0 Add a 4 corners polygon primitive as box body*
4,1,4,$2,$3,$4,$5,$6,$7,$8,$9,$2,$3,0*
0 Add four circle primitives for the rounded corners*
1,1,$1+$1,$2,$3*
1,1,$1+$1,$4,$5*
1,1,$1+$1,$6,$7*
1,1,$1+$1,$8,$9*
0 Add four rect primitives between the rounded corners*
20,1,$1+$1,$2,$3,$4,$5,0*
20,1,$1+$1,$4,$5,$6,$7,0*
20,1,$1+$1,$6,$7,$8,$9,0*
20,1,$1+$1,$8,$9,$2,$3,0*%
%AMHorizOval*
0 Thick line with rounded ends*
0 $1 width*
0 $2 $3 position (X,Y) of the first rounded end (center of the circle)*
0 $4 $5 position (X,Y) of the second rounded end (center of the circle)*
0 Add line between two ends*
20,1,$1,$2,$3,$4,$5,0*
0 Add two circle primitives to create the rounded ends*
1,1,$1,$2,$3*
1,1,$1,$4,$5*%
%AMRotRect*
0 Rectangle, with rotation*
0 The origin of the aperture is its center*
0 $1 length*
0 $2 width*
0 $3 Rotation angle, in degrees counterclockwise*
0 Add horizontal line*
21,1,$1,$2,0,0,$3*%
G04 Aperture macros list end*
%ADD10C,0.150000*%
%ADD11C,0.120000*%
%ADD12RotRect,0.850000X0.850000X40.000000*%
%ADD13C,0.850000*%
%ADD14C,2.200000*%
%ADD15C,0.650000*%
%ADD16HorizOval,0.650000X-0.106066X-0.106066X0.106066X0.106066X0*%
%ADD17HorizOval,0.800000X-0.212132X0.212132X0.212132X-0.212132X0*%
%ADD18R,0.850000X0.850000*%
%ADD19C,2.050000*%
%ADD20C,2.250000*%
%ADD21RoundRect,0.250000X0.262500X0.450000X-0.262500X0.450000X-0.262500X-0.450000X0.262500X-0.450000X0*%
%ADD22RoundRect,0.250000X-0.132583X0.503814X-0.503814X0.132583X0.132583X-0.503814X0.503814X-0.132583X0*%
%ADD23RoundRect,0.140000X-0.140000X-0.170000X0.140000X-0.170000X0.140000X0.170000X-0.140000X0.170000X0*%
%ADD24RoundRect,0.250000X0.295000X-0.320000X0.295000X0.320000X-0.295000X0.320000X-0.295000X-0.320000X0*%
%ADD25RoundRect,0.140000X0.140000X0.170000X-0.140000X0.170000X-0.140000X-0.170000X0.140000X-0.170000X0*%
%ADD26RoundRect,0.250000X-0.262500X-0.450000X0.262500X-0.450000X0.262500X0.450000X-0.262500X0.450000X0*%
%ADD27RotRect,3.000000X3.000000X130.000000*%
%ADD28C,3.000000*%
%ADD29RoundRect,0.150000X-0.625000X0.150000X-0.625000X-0.150000X0.625000X-0.150000X0.625000X0.150000X0*%
%ADD30RoundRect,0.250000X-0.650000X0.350000X-0.650000X-0.350000X0.650000X-0.350000X0.650000X0.350000X0*%
%ADD31RoundRect,0.317500X1.195048X0.111679X-1.084782X0.513674X-1.195048X-0.111679X1.084782X-0.513674X0*%
%ADD32RoundRect,0.225000X-0.106066X0.424264X-0.424264X0.106066X0.106066X-0.424264X0.424264X-0.106066X0*%
%ADD33RoundRect,0.075000X-0.075000X0.350000X-0.075000X-0.350000X0.075000X-0.350000X0.075000X0.350000X0*%
%ADD34RoundRect,0.075000X0.350000X0.075000X-0.350000X0.075000X-0.350000X-0.075000X0.350000X-0.075000X0*%
%ADD35RoundRect,0.140000X-0.017173X-0.219557X0.212189X-0.058955X0.017173X0.219557X-0.212189X0.058955X0*%
%ADD36RoundRect,0.135000X0.135000X0.185000X-0.135000X0.185000X-0.135000X-0.185000X0.135000X-0.185000X0*%
G04 APERTURE END LIST*
D10*
X105566666Y-72842319D02*
X105899999Y-72366128D01*
X106138094Y-72842319D02*
X106138094Y-71842319D01*
X106138094Y-71842319D02*
X105757142Y-71842319D01*
X105757142Y-71842319D02*
X105661904Y-71889938D01*
X105661904Y-71889938D02*
X105614285Y-71937557D01*
X105614285Y-71937557D02*
X105566666Y-72032795D01*
X105566666Y-72032795D02*
X105566666Y-72175652D01*
X105566666Y-72175652D02*
X105614285Y-72270890D01*
X105614285Y-72270890D02*
X105661904Y-72318509D01*
X105661904Y-72318509D02*
X105757142Y-72366128D01*
X105757142Y-72366128D02*
X106138094Y-72366128D01*
X105090475Y-72842319D02*
X104899999Y-72842319D01*
X104899999Y-72842319D02*
X104804761Y-72794700D01*
X104804761Y-72794700D02*
X104757142Y-72747080D01*
X104757142Y-72747080D02*
X104661904Y-72604223D01*
X104661904Y-72604223D02*
X104614285Y-72413747D01*
X104614285Y-72413747D02*
X104614285Y-72032795D01*
X104614285Y-72032795D02*
X104661904Y-71937557D01*
X104661904Y-71937557D02*
X104709523Y-71889938D01*
X104709523Y-71889938D02*
X104804761Y-71842319D01*
X104804761Y-71842319D02*
X104995237Y-71842319D01*
X104995237Y-71842319D02*
X105090475Y-71889938D01*
X105090475Y-71889938D02*
X105138094Y-71937557D01*
X105138094Y-71937557D02*
X105185713Y-72032795D01*
X105185713Y-72032795D02*
X105185713Y-72270890D01*
X105185713Y-72270890D02*
X105138094Y-72366128D01*
X105138094Y-72366128D02*
X105090475Y-72413747D01*
X105090475Y-72413747D02*
X104995237Y-72461366D01*
X104995237Y-72461366D02*
X104804761Y-72461366D01*
X104804761Y-72461366D02*
X104709523Y-72413747D01*
X104709523Y-72413747D02*
X104661904Y-72366128D01*
X104661904Y-72366128D02*
X104614285Y-72270890D01*
X122332962Y-87926174D02*
X122905381Y-87825159D01*
X122737023Y-88330235D02*
X123444129Y-87623128D01*
X123444129Y-87623128D02*
X123174755Y-87353754D01*
X123174755Y-87353754D02*
X123073740Y-87320082D01*
X123073740Y-87320082D02*
X123006397Y-87320082D01*
X123006397Y-87320082D02*
X122905381Y-87353754D01*
X122905381Y-87353754D02*
X122804366Y-87454769D01*
X122804366Y-87454769D02*
X122770694Y-87555785D01*
X122770694Y-87555785D02*
X122770694Y-87623128D01*
X122770694Y-87623128D02*
X122804366Y-87724143D01*
X122804366Y-87724143D02*
X123073740Y-87993517D01*
X121659527Y-87252739D02*
X122063588Y-87656800D01*
X121861557Y-87454769D02*
X122568664Y-86747663D01*
X122568664Y-86747663D02*
X122534992Y-86916021D01*
X122534992Y-86916021D02*
X122534992Y-87050708D01*
X122534992Y-87050708D02*
X122568664Y-87151724D01*
X121726870Y-85905869D02*
X122063588Y-86242586D01*
X122063588Y-86242586D02*
X121760542Y-86612975D01*
X121760542Y-86612975D02*
X121760542Y-86545632D01*
X121760542Y-86545632D02*
X121726870Y-86444617D01*
X121726870Y-86444617D02*
X121558511Y-86276258D01*
X121558511Y-86276258D02*
X121457496Y-86242586D01*
X121457496Y-86242586D02*
X121390152Y-86242586D01*
X121390152Y-86242586D02*
X121289137Y-86276258D01*
X121289137Y-86276258D02*
X121120778Y-86444617D01*
X121120778Y-86444617D02*
X121087107Y-86545632D01*
X121087107Y-86545632D02*
X121087107Y-86612975D01*
X121087107Y-86612975D02*
X121120778Y-86713991D01*
X121120778Y-86713991D02*
X121289137Y-86882349D01*
X121289137Y-86882349D02*
X121390152Y-86916021D01*
X121390152Y-86916021D02*
X121457496Y-86916021D01*
X91076174Y-65017036D02*
X90975159Y-64444617D01*
X91480235Y-64612975D02*
X90773128Y-63905869D01*
X90773128Y-63905869D02*
X90503754Y-64175243D01*
X90503754Y-64175243D02*
X90470082Y-64276258D01*
X90470082Y-64276258D02*
X90470082Y-64343601D01*
X90470082Y-64343601D02*
X90503754Y-64444617D01*
X90503754Y-64444617D02*
X90604769Y-64545632D01*
X90604769Y-64545632D02*
X90705785Y-64579304D01*
X90705785Y-64579304D02*
X90773128Y-64579304D01*
X90773128Y-64579304D02*
X90874143Y-64545632D01*
X90874143Y-64545632D02*
X91143517Y-64276258D01*
X90167037Y-64646647D02*
X90099693Y-64646647D01*
X90099693Y-64646647D02*
X89998678Y-64680319D01*
X89998678Y-64680319D02*
X89830319Y-64848678D01*
X89830319Y-64848678D02*
X89796647Y-64949693D01*
X89796647Y-64949693D02*
X89796647Y-65017036D01*
X89796647Y-65017036D02*
X89830319Y-65118052D01*
X89830319Y-65118052D02*
X89897663Y-65185395D01*
X89897663Y-65185395D02*
X90032350Y-65252739D01*
X90032350Y-65252739D02*
X90840472Y-65252739D01*
X90840472Y-65252739D02*
X90402739Y-65690471D01*
X89459930Y-65219067D02*
X89022197Y-65656800D01*
X89022197Y-65656800D02*
X89527273Y-65690472D01*
X89527273Y-65690472D02*
X89426258Y-65791487D01*
X89426258Y-65791487D02*
X89392586Y-65892502D01*
X89392586Y-65892502D02*
X89392586Y-65959846D01*
X89392586Y-65959846D02*
X89426258Y-66060861D01*
X89426258Y-66060861D02*
X89594617Y-66229220D01*
X89594617Y-66229220D02*
X89695632Y-66262891D01*
X89695632Y-66262891D02*
X89762975Y-66262891D01*
X89762975Y-66262891D02*
X89863991Y-66229220D01*
X89863991Y-66229220D02*
X90066021Y-66027189D01*
X90066021Y-66027189D02*
X90099693Y-65926174D01*
X90099693Y-65926174D02*
X90099693Y-65858830D01*
X92426173Y-66417036D02*
X92325158Y-65844617D01*
X92830234Y-66012975D02*
X92123127Y-65305869D01*
X92123127Y-65305869D02*
X91853753Y-65575243D01*
X91853753Y-65575243D02*
X91820081Y-65676258D01*
X91820081Y-65676258D02*
X91820081Y-65743601D01*
X91820081Y-65743601D02*
X91853753Y-65844617D01*
X91853753Y-65844617D02*
X91954768Y-65945632D01*
X91954768Y-65945632D02*
X92055784Y-65979304D01*
X92055784Y-65979304D02*
X92123127Y-65979304D01*
X92123127Y-65979304D02*
X92224142Y-65945632D01*
X92224142Y-65945632D02*
X92493516Y-65676258D01*
X91517036Y-66046647D02*
X91449692Y-66046647D01*
X91449692Y-66046647D02*
X91348677Y-66080319D01*
X91348677Y-66080319D02*
X91180318Y-66248678D01*
X91180318Y-66248678D02*
X91146646Y-66349693D01*
X91146646Y-66349693D02*
X91146646Y-66417036D01*
X91146646Y-66417036D02*
X91180318Y-66518052D01*
X91180318Y-66518052D02*
X91247662Y-66585395D01*
X91247662Y-66585395D02*
X91382349Y-66652739D01*
X91382349Y-66652739D02*
X92190471Y-66652739D01*
X92190471Y-66652739D02*
X91752738Y-67090471D01*
X90843600Y-66720082D02*
X90776257Y-66720082D01*
X90776257Y-66720082D02*
X90675242Y-66753754D01*
X90675242Y-66753754D02*
X90506883Y-66922113D01*
X90506883Y-66922113D02*
X90473211Y-67023128D01*
X90473211Y-67023128D02*
X90473211Y-67090472D01*
X90473211Y-67090472D02*
X90506883Y-67191487D01*
X90506883Y-67191487D02*
X90574226Y-67258830D01*
X90574226Y-67258830D02*
X90708913Y-67326174D01*
X90708913Y-67326174D02*
X91517035Y-67326174D01*
X91517035Y-67326174D02*
X91079303Y-67763907D01*
X115366666Y-74319580D02*
X115414285Y-74367200D01*
X115414285Y-74367200D02*
X115557142Y-74414819D01*
X115557142Y-74414819D02*
X115652380Y-74414819D01*
X115652380Y-74414819D02*
X115795237Y-74367200D01*
X115795237Y-74367200D02*
X115890475Y-74271961D01*
X115890475Y-74271961D02*
X115938094Y-74176723D01*
X115938094Y-74176723D02*
X115985713Y-73986247D01*
X115985713Y-73986247D02*
X115985713Y-73843390D01*
X115985713Y-73843390D02*
X115938094Y-73652914D01*
X115938094Y-73652914D02*
X115890475Y-73557676D01*
X115890475Y-73557676D02*
X115795237Y-73462438D01*
X115795237Y-73462438D02*
X115652380Y-73414819D01*
X115652380Y-73414819D02*
X115557142Y-73414819D01*
X115557142Y-73414819D02*
X115414285Y-73462438D01*
X115414285Y-73462438D02*
X115366666Y-73510057D01*
X115033332Y-73414819D02*
X114366666Y-73414819D01*
X114366666Y-73414819D02*
X114795237Y-74414819D01*
X88942857Y-72059580D02*
X88990476Y-72107200D01*
X88990476Y-72107200D02*
X89133333Y-72154819D01*
X89133333Y-72154819D02*
X89228571Y-72154819D01*
X89228571Y-72154819D02*
X89371428Y-72107200D01*
X89371428Y-72107200D02*
X89466666Y-72011961D01*
X89466666Y-72011961D02*
X89514285Y-71916723D01*
X89514285Y-71916723D02*
X89561904Y-71726247D01*
X89561904Y-71726247D02*
X89561904Y-71583390D01*
X89561904Y-71583390D02*
X89514285Y-71392914D01*
X89514285Y-71392914D02*
X89466666Y-71297676D01*
X89466666Y-71297676D02*
X89371428Y-71202438D01*
X89371428Y-71202438D02*
X89228571Y-71154819D01*
X89228571Y-71154819D02*
X89133333Y-71154819D01*
X89133333Y-71154819D02*
X88990476Y-71202438D01*
X88990476Y-71202438D02*
X88942857Y-71250057D01*
X87990476Y-72154819D02*
X88561904Y-72154819D01*
X88276190Y-72154819D02*
X88276190Y-71154819D01*
X88276190Y-71154819D02*
X88371428Y-71297676D01*
X88371428Y-71297676D02*
X88466666Y-71392914D01*
X88466666Y-71392914D02*
X88561904Y-71440533D01*
X87514285Y-72154819D02*
X87323809Y-72154819D01*
X87323809Y-72154819D02*
X87228571Y-72107200D01*
X87228571Y-72107200D02*
X87180952Y-72059580D01*
X87180952Y-72059580D02*
X87085714Y-71916723D01*
X87085714Y-71916723D02*
X87038095Y-71726247D01*
X87038095Y-71726247D02*
X87038095Y-71345295D01*
X87038095Y-71345295D02*
X87085714Y-71250057D01*
X87085714Y-71250057D02*
X87133333Y-71202438D01*
X87133333Y-71202438D02*
X87228571Y-71154819D01*
X87228571Y-71154819D02*
X87419047Y-71154819D01*
X87419047Y-71154819D02*
X87514285Y-71202438D01*
X87514285Y-71202438D02*
X87561904Y-71250057D01*
X87561904Y-71250057D02*
X87609523Y-71345295D01*
X87609523Y-71345295D02*
X87609523Y-71583390D01*
X87609523Y-71583390D02*
X87561904Y-71678628D01*
X87561904Y-71678628D02*
X87514285Y-71726247D01*
X87514285Y-71726247D02*
X87419047Y-71773866D01*
X87419047Y-71773866D02*
X87228571Y-71773866D01*
X87228571Y-71773866D02*
X87133333Y-71726247D01*
X87133333Y-71726247D02*
X87085714Y-71678628D01*
X87085714Y-71678628D02*
X87038095Y-71583390D01*
X111716666Y-78849580D02*
X111764285Y-78897200D01*
X111764285Y-78897200D02*
X111907142Y-78944819D01*
X111907142Y-78944819D02*
X112002380Y-78944819D01*
X112002380Y-78944819D02*
X112145237Y-78897200D01*
X112145237Y-78897200D02*
X112240475Y-78801961D01*
X112240475Y-78801961D02*
X112288094Y-78706723D01*
X112288094Y-78706723D02*
X112335713Y-78516247D01*
X112335713Y-78516247D02*
X112335713Y-78373390D01*
X112335713Y-78373390D02*
X112288094Y-78182914D01*
X112288094Y-78182914D02*
X112240475Y-78087676D01*
X112240475Y-78087676D02*
X112145237Y-77992438D01*
X112145237Y-77992438D02*
X112002380Y-77944819D01*
X112002380Y-77944819D02*
X111907142Y-77944819D01*
X111907142Y-77944819D02*
X111764285Y-77992438D01*
X111764285Y-77992438D02*
X111716666Y-78040057D01*
X110764285Y-78944819D02*
X111335713Y-78944819D01*
X111049999Y-78944819D02*
X111049999Y-77944819D01*
X111049999Y-77944819D02*
X111145237Y-78087676D01*
X111145237Y-78087676D02*
X111240475Y-78182914D01*
X111240475Y-78182914D02*
X111335713Y-78230533D01*
X122966666Y-79909580D02*
X123014285Y-79957200D01*
X123014285Y-79957200D02*
X123157142Y-80004819D01*
X123157142Y-80004819D02*
X123252380Y-80004819D01*
X123252380Y-80004819D02*
X123395237Y-79957200D01*
X123395237Y-79957200D02*
X123490475Y-79861961D01*
X123490475Y-79861961D02*
X123538094Y-79766723D01*
X123538094Y-79766723D02*
X123585713Y-79576247D01*
X123585713Y-79576247D02*
X123585713Y-79433390D01*
X123585713Y-79433390D02*
X123538094Y-79242914D01*
X123538094Y-79242914D02*
X123490475Y-79147676D01*
X123490475Y-79147676D02*
X123395237Y-79052438D01*
X123395237Y-79052438D02*
X123252380Y-79004819D01*
X123252380Y-79004819D02*
X123157142Y-79004819D01*
X123157142Y-79004819D02*
X123014285Y-79052438D01*
X123014285Y-79052438D02*
X122966666Y-79100057D01*
X122061904Y-79004819D02*
X122538094Y-79004819D01*
X122538094Y-79004819D02*
X122585713Y-79481009D01*
X122585713Y-79481009D02*
X122538094Y-79433390D01*
X122538094Y-79433390D02*
X122442856Y-79385771D01*
X122442856Y-79385771D02*
X122204761Y-79385771D01*
X122204761Y-79385771D02*
X122109523Y-79433390D01*
X122109523Y-79433390D02*
X122061904Y-79481009D01*
X122061904Y-79481009D02*
X122014285Y-79576247D01*
X122014285Y-79576247D02*
X122014285Y-79814342D01*
X122014285Y-79814342D02*
X122061904Y-79909580D01*
X122061904Y-79909580D02*
X122109523Y-79957200D01*
X122109523Y-79957200D02*
X122204761Y-80004819D01*
X122204761Y-80004819D02*
X122442856Y-80004819D01*
X122442856Y-80004819D02*
X122538094Y-79957200D01*
X122538094Y-79957200D02*
X122585713Y-79909580D01*
X126142857Y-81454819D02*
X126476190Y-80978628D01*
X126714285Y-81454819D02*
X126714285Y-80454819D01*
X126714285Y-80454819D02*
X126333333Y-80454819D01*
X126333333Y-80454819D02*
X126238095Y-80502438D01*
X126238095Y-80502438D02*
X126190476Y-80550057D01*
X126190476Y-80550057D02*
X126142857Y-80645295D01*
X126142857Y-80645295D02*
X126142857Y-80788152D01*
X126142857Y-80788152D02*
X126190476Y-80883390D01*
X126190476Y-80883390D02*
X126238095Y-80931009D01*
X126238095Y-80931009D02*
X126333333Y-80978628D01*
X126333333Y-80978628D02*
X126714285Y-80978628D01*
X125190476Y-81454819D02*
X125761904Y-81454819D01*
X125476190Y-81454819D02*
X125476190Y-80454819D01*
X125476190Y-80454819D02*
X125571428Y-80597676D01*
X125571428Y-80597676D02*
X125666666Y-80692914D01*
X125666666Y-80692914D02*
X125761904Y-80740533D01*
X124333333Y-80454819D02*
X124523809Y-80454819D01*
X124523809Y-80454819D02*
X124619047Y-80502438D01*
X124619047Y-80502438D02*
X124666666Y-80550057D01*
X124666666Y-80550057D02*
X124761904Y-80692914D01*
X124761904Y-80692914D02*
X124809523Y-80883390D01*
X124809523Y-80883390D02*
X124809523Y-81264342D01*
X124809523Y-81264342D02*
X124761904Y-81359580D01*
X124761904Y-81359580D02*
X124714285Y-81407200D01*
X124714285Y-81407200D02*
X124619047Y-81454819D01*
X124619047Y-81454819D02*
X124428571Y-81454819D01*
X124428571Y-81454819D02*
X124333333Y-81407200D01*
X124333333Y-81407200D02*
X124285714Y-81359580D01*
X124285714Y-81359580D02*
X124238095Y-81264342D01*
X124238095Y-81264342D02*
X124238095Y-81026247D01*
X124238095Y-81026247D02*
X124285714Y-80931009D01*
X124285714Y-80931009D02*
X124333333Y-80883390D01*
X124333333Y-80883390D02*
X124428571Y-80835771D01*
X124428571Y-80835771D02*
X124619047Y-80835771D01*
X124619047Y-80835771D02*
X124714285Y-80883390D01*
X124714285Y-80883390D02*
X124761904Y-80931009D01*
X124761904Y-80931009D02*
X124809523Y-81026247D01*
X89990720Y-78143798D02*
X89443545Y-78602932D01*
X89443545Y-78602932D02*
X89364719Y-78731237D01*
X89364719Y-78731237D02*
X89352981Y-78865412D01*
X89352981Y-78865412D02*
X89408329Y-79005456D01*
X89408329Y-79005456D02*
X89469547Y-79078412D01*
X89378541Y-77414232D02*
X89684630Y-77779015D01*
X89684630Y-77779015D02*
X89350456Y-78121583D01*
X89350456Y-78121583D02*
X89356326Y-78054495D01*
X89356326Y-78054495D02*
X89331586Y-77950930D01*
X89331586Y-77950930D02*
X89178541Y-77768538D01*
X89178541Y-77768538D02*
X89080845Y-77726191D01*
X89080845Y-77726191D02*
X89013758Y-77720321D01*
X89013758Y-77720321D02*
X88910193Y-77745061D01*
X88910193Y-77745061D02*
X88727801Y-77898105D01*
X88727801Y-77898105D02*
X88685453Y-77995802D01*
X88685453Y-77995802D02*
X88679584Y-78062889D01*
X88679584Y-78062889D02*
X88704323Y-78166454D01*
X88704323Y-78166454D02*
X88857368Y-78348846D01*
X88857368Y-78348846D02*
X88955064Y-78391194D01*
X88955064Y-78391194D02*
X89022152Y-78397063D01*
X102866666Y-82127319D02*
X103199999Y-81651128D01*
X103438094Y-82127319D02*
X103438094Y-81127319D01*
X103438094Y-81127319D02*
X103057142Y-81127319D01*
X103057142Y-81127319D02*
X102961904Y-81174938D01*
X102961904Y-81174938D02*
X102914285Y-81222557D01*
X102914285Y-81222557D02*
X102866666Y-81317795D01*
X102866666Y-81317795D02*
X102866666Y-81460652D01*
X102866666Y-81460652D02*
X102914285Y-81555890D01*
X102914285Y-81555890D02*
X102961904Y-81603509D01*
X102961904Y-81603509D02*
X103057142Y-81651128D01*
X103057142Y-81651128D02*
X103438094Y-81651128D01*
X102009523Y-81127319D02*
X102199999Y-81127319D01*
X102199999Y-81127319D02*
X102295237Y-81174938D01*
X102295237Y-81174938D02*
X102342856Y-81222557D01*
X102342856Y-81222557D02*
X102438094Y-81365414D01*
X102438094Y-81365414D02*
X102485713Y-81555890D01*
X102485713Y-81555890D02*
X102485713Y-81936842D01*
X102485713Y-81936842D02*
X102438094Y-82032080D01*
X102438094Y-82032080D02*
X102390475Y-82079700D01*
X102390475Y-82079700D02*
X102295237Y-82127319D01*
X102295237Y-82127319D02*
X102104761Y-82127319D01*
X102104761Y-82127319D02*
X102009523Y-82079700D01*
X102009523Y-82079700D02*
X101961904Y-82032080D01*
X101961904Y-82032080D02*
X101914285Y-81936842D01*
X101914285Y-81936842D02*
X101914285Y-81698747D01*
X101914285Y-81698747D02*
X101961904Y-81603509D01*
X101961904Y-81603509D02*
X102009523Y-81555890D01*
X102009523Y-81555890D02*
X102104761Y-81508271D01*
X102104761Y-81508271D02*
X102295237Y-81508271D01*
X102295237Y-81508271D02*
X102390475Y-81555890D01*
X102390475Y-81555890D02*
X102438094Y-81603509D01*
X102438094Y-81603509D02*
X102485713Y-81698747D01*
X113204819Y-66416666D02*
X113919104Y-66416666D01*
X113919104Y-66416666D02*
X114061961Y-66369047D01*
X114061961Y-66369047D02*
X114157200Y-66273809D01*
X114157200Y-66273809D02*
X114204819Y-66130952D01*
X114204819Y-66130952D02*
X114204819Y-66035714D01*
X113204819Y-66797619D02*
X113204819Y-67416666D01*
X113204819Y-67416666D02*
X113585771Y-67083333D01*
X113585771Y-67083333D02*
X113585771Y-67226190D01*
X113585771Y-67226190D02*
X113633390Y-67321428D01*
X113633390Y-67321428D02*
X113681009Y-67369047D01*
X113681009Y-67369047D02*
X113776247Y-67416666D01*
X113776247Y-67416666D02*
X114014342Y-67416666D01*
X114014342Y-67416666D02*
X114109580Y-67369047D01*
X114109580Y-67369047D02*
X114157200Y-67321428D01*
X114157200Y-67321428D02*
X114204819Y-67226190D01*
X114204819Y-67226190D02*
X114204819Y-66940476D01*
X114204819Y-66940476D02*
X114157200Y-66845238D01*
X114157200Y-66845238D02*
X114109580Y-66797619D01*
X120194999Y-44295404D02*
X120054427Y-45092630D01*
X120054427Y-45092630D02*
X119990993Y-45178152D01*
X119990993Y-45178152D02*
X119935828Y-45216779D01*
X119935828Y-45216779D02*
X119833768Y-45247136D01*
X119833768Y-45247136D02*
X119646186Y-45214061D01*
X119646186Y-45214061D02*
X119560664Y-45150627D01*
X119560664Y-45150627D02*
X119522037Y-45095462D01*
X119522037Y-45095462D02*
X119491679Y-44993402D01*
X119491679Y-44993402D02*
X119632252Y-44196177D01*
X118683352Y-44367336D02*
X118567587Y-45023874D01*
X118983982Y-44033516D02*
X119094426Y-44778295D01*
X119094426Y-44778295D02*
X118484783Y-44670798D01*
X94743517Y-70149693D02*
X94036410Y-69442587D01*
X94036410Y-69442587D02*
X93868051Y-69610945D01*
X93868051Y-69610945D02*
X93800708Y-69745632D01*
X93800708Y-69745632D02*
X93800708Y-69880319D01*
X93800708Y-69880319D02*
X93834380Y-69981335D01*
X93834380Y-69981335D02*
X93935395Y-70149693D01*
X93935395Y-70149693D02*
X94036410Y-70250709D01*
X94036410Y-70250709D02*
X94204769Y-70351724D01*
X94204769Y-70351724D02*
X94305784Y-70385396D01*
X94305784Y-70385396D02*
X94440471Y-70385396D01*
X94440471Y-70385396D02*
X94575158Y-70318052D01*
X94575158Y-70318052D02*
X94743517Y-70149693D01*
X93396647Y-70082350D02*
X92958914Y-70520083D01*
X92958914Y-70520083D02*
X93463990Y-70553754D01*
X93463990Y-70553754D02*
X93362975Y-70654770D01*
X93362975Y-70654770D02*
X93329303Y-70755785D01*
X93329303Y-70755785D02*
X93329303Y-70823128D01*
X93329303Y-70823128D02*
X93362975Y-70924144D01*
X93362975Y-70924144D02*
X93531334Y-71092502D01*
X93531334Y-71092502D02*
X93632349Y-71126174D01*
X93632349Y-71126174D02*
X93699693Y-71126174D01*
X93699693Y-71126174D02*
X93800708Y-71092502D01*
X93800708Y-71092502D02*
X94002738Y-70890472D01*
X94002738Y-70890472D02*
X94036410Y-70789457D01*
X94036410Y-70789457D02*
X94036410Y-70722113D01*
X79279820Y-69225595D02*
X80089343Y-69225595D01*
X80089343Y-69225595D02*
X80184581Y-69273214D01*
X80184581Y-69273214D02*
X80232201Y-69320833D01*
X80232201Y-69320833D02*
X80279820Y-69416071D01*
X80279820Y-69416071D02*
X80279820Y-69606547D01*
X80279820Y-69606547D02*
X80232201Y-69701785D01*
X80232201Y-69701785D02*
X80184581Y-69749404D01*
X80184581Y-69749404D02*
X80089343Y-69797023D01*
X80089343Y-69797023D02*
X79279820Y-69797023D01*
X80279820Y-70797023D02*
X80279820Y-70225595D01*
X80279820Y-70511309D02*
X79279820Y-70511309D01*
X79279820Y-70511309D02*
X79422677Y-70416071D01*
X79422677Y-70416071D02*
X79517915Y-70320833D01*
X79517915Y-70320833D02*
X79565534Y-70225595D01*
X104216666Y-76382319D02*
X104549999Y-75906128D01*
X104788094Y-76382319D02*
X104788094Y-75382319D01*
X104788094Y-75382319D02*
X104407142Y-75382319D01*
X104407142Y-75382319D02*
X104311904Y-75429938D01*
X104311904Y-75429938D02*
X104264285Y-75477557D01*
X104264285Y-75477557D02*
X104216666Y-75572795D01*
X104216666Y-75572795D02*
X104216666Y-75715652D01*
X104216666Y-75715652D02*
X104264285Y-75810890D01*
X104264285Y-75810890D02*
X104311904Y-75858509D01*
X104311904Y-75858509D02*
X104407142Y-75906128D01*
X104407142Y-75906128D02*
X104788094Y-75906128D01*
X103311904Y-75382319D02*
X103788094Y-75382319D01*
X103788094Y-75382319D02*
X103835713Y-75858509D01*
X103835713Y-75858509D02*
X103788094Y-75810890D01*
X103788094Y-75810890D02*
X103692856Y-75763271D01*
X103692856Y-75763271D02*
X103454761Y-75763271D01*
X103454761Y-75763271D02*
X103359523Y-75810890D01*
X103359523Y-75810890D02*
X103311904Y-75858509D01*
X103311904Y-75858509D02*
X103264285Y-75953747D01*
X103264285Y-75953747D02*
X103264285Y-76191842D01*
X103264285Y-76191842D02*
X103311904Y-76287080D01*
X103311904Y-76287080D02*
X103359523Y-76334700D01*
X103359523Y-76334700D02*
X103454761Y-76382319D01*
X103454761Y-76382319D02*
X103692856Y-76382319D01*
X103692856Y-76382319D02*
X103788094Y-76334700D01*
X103788094Y-76334700D02*
X103835713Y-76287080D01*
X121642857Y-77599580D02*
X121690476Y-77647200D01*
X121690476Y-77647200D02*
X121833333Y-77694819D01*
X121833333Y-77694819D02*
X121928571Y-77694819D01*
X121928571Y-77694819D02*
X122071428Y-77647200D01*
X122071428Y-77647200D02*
X122166666Y-77551961D01*
X122166666Y-77551961D02*
X122214285Y-77456723D01*
X122214285Y-77456723D02*
X122261904Y-77266247D01*
X122261904Y-77266247D02*
X122261904Y-77123390D01*
X122261904Y-77123390D02*
X122214285Y-76932914D01*
X122214285Y-76932914D02*
X122166666Y-76837676D01*
X122166666Y-76837676D02*
X122071428Y-76742438D01*
X122071428Y-76742438D02*
X121928571Y-76694819D01*
X121928571Y-76694819D02*
X121833333Y-76694819D01*
X121833333Y-76694819D02*
X121690476Y-76742438D01*
X121690476Y-76742438D02*
X121642857Y-76790057D01*
X120690476Y-77694819D02*
X121261904Y-77694819D01*
X120976190Y-77694819D02*
X120976190Y-76694819D01*
X120976190Y-76694819D02*
X121071428Y-76837676D01*
X121071428Y-76837676D02*
X121166666Y-76932914D01*
X121166666Y-76932914D02*
X121261904Y-76980533D01*
X119738095Y-77694819D02*
X120309523Y-77694819D01*
X120023809Y-77694819D02*
X120023809Y-76694819D01*
X120023809Y-76694819D02*
X120119047Y-76837676D01*
X120119047Y-76837676D02*
X120214285Y-76932914D01*
X120214285Y-76932914D02*
X120309523Y-76980533D01*
X122408121Y-75499171D02*
X122474441Y-75510865D01*
X122474441Y-75510865D02*
X122618776Y-75467933D01*
X122618776Y-75467933D02*
X122696790Y-75413307D01*
X122696790Y-75413307D02*
X122786499Y-75292360D01*
X122786499Y-75292360D02*
X122809887Y-75159719D01*
X122809887Y-75159719D02*
X122794268Y-75054391D01*
X122794268Y-75054391D02*
X122724023Y-74871049D01*
X122724023Y-74871049D02*
X122642083Y-74754028D01*
X122642083Y-74754028D02*
X122493823Y-74625312D01*
X122493823Y-74625312D02*
X122400190Y-74574611D01*
X122400190Y-74574611D02*
X122267549Y-74551222D01*
X122267549Y-74551222D02*
X122123214Y-74594155D01*
X122123214Y-74594155D02*
X122045199Y-74648781D01*
X122045199Y-74648781D02*
X121955491Y-74769728D01*
X121955491Y-74769728D02*
X121943797Y-74836048D01*
X121187040Y-75249671D02*
X121343069Y-75140418D01*
X121343069Y-75140418D02*
X121448397Y-75124799D01*
X121448397Y-75124799D02*
X121514717Y-75136493D01*
X121514717Y-75136493D02*
X121674671Y-75198888D01*
X121674671Y-75198888D02*
X121822931Y-75327604D01*
X121822931Y-75327604D02*
X122041436Y-75639662D01*
X122041436Y-75639662D02*
X122057055Y-75744990D01*
X122057055Y-75744990D02*
X122045361Y-75811310D01*
X122045361Y-75811310D02*
X121994660Y-75904944D01*
X121994660Y-75904944D02*
X121838631Y-76014196D01*
X121838631Y-76014196D02*
X121733303Y-76029815D01*
X121733303Y-76029815D02*
X121666983Y-76018121D01*
X121666983Y-76018121D02*
X121573349Y-75967420D01*
X121573349Y-75967420D02*
X121436784Y-75772384D01*
X121436784Y-75772384D02*
X121421165Y-75667056D01*
X121421165Y-75667056D02*
X121432859Y-75600736D01*
X121432859Y-75600736D02*
X121483560Y-75507102D01*
X121483560Y-75507102D02*
X121639589Y-75397849D01*
X121639589Y-75397849D02*
X121744917Y-75382230D01*
X121744917Y-75382230D02*
X121811237Y-75393924D01*
X121811237Y-75393924D02*
X121904871Y-75444626D01*
X112466666Y-70199580D02*
X112514285Y-70247200D01*
X112514285Y-70247200D02*
X112657142Y-70294819D01*
X112657142Y-70294819D02*
X112752380Y-70294819D01*
X112752380Y-70294819D02*
X112895237Y-70247200D01*
X112895237Y-70247200D02*
X112990475Y-70151961D01*
X112990475Y-70151961D02*
X113038094Y-70056723D01*
X113038094Y-70056723D02*
X113085713Y-69866247D01*
X113085713Y-69866247D02*
X113085713Y-69723390D01*
X113085713Y-69723390D02*
X113038094Y-69532914D01*
X113038094Y-69532914D02*
X112990475Y-69437676D01*
X112990475Y-69437676D02*
X112895237Y-69342438D01*
X112895237Y-69342438D02*
X112752380Y-69294819D01*
X112752380Y-69294819D02*
X112657142Y-69294819D01*
X112657142Y-69294819D02*
X112514285Y-69342438D01*
X112514285Y-69342438D02*
X112466666Y-69390057D01*
X112085713Y-69390057D02*
X112038094Y-69342438D01*
X112038094Y-69342438D02*
X111942856Y-69294819D01*
X111942856Y-69294819D02*
X111704761Y-69294819D01*
X111704761Y-69294819D02*
X111609523Y-69342438D01*
X111609523Y-69342438D02*
X111561904Y-69390057D01*
X111561904Y-69390057D02*
X111514285Y-69485295D01*
X111514285Y-69485295D02*
X111514285Y-69580533D01*
X111514285Y-69580533D02*
X111561904Y-69723390D01*
X111561904Y-69723390D02*
X112133332Y-70294819D01*
X112133332Y-70294819D02*
X111514285Y-70294819D01*
X98876174Y-63367036D02*
X98775159Y-62794617D01*
X99280235Y-62962975D02*
X98573128Y-62255869D01*
X98573128Y-62255869D02*
X98303754Y-62525243D01*
X98303754Y-62525243D02*
X98270082Y-62626258D01*
X98270082Y-62626258D02*
X98270082Y-62693601D01*
X98270082Y-62693601D02*
X98303754Y-62794617D01*
X98303754Y-62794617D02*
X98404769Y-62895632D01*
X98404769Y-62895632D02*
X98505785Y-62929304D01*
X98505785Y-62929304D02*
X98573128Y-62929304D01*
X98573128Y-62929304D02*
X98674143Y-62895632D01*
X98674143Y-62895632D02*
X98943517Y-62626258D01*
X98202739Y-64040471D02*
X98606800Y-63636410D01*
X98404769Y-63838441D02*
X97697663Y-63131334D01*
X97697663Y-63131334D02*
X97866021Y-63165006D01*
X97866021Y-63165006D02*
X98000708Y-63165006D01*
X98000708Y-63165006D02*
X98101724Y-63131334D01*
X97259930Y-63569067D02*
X96822197Y-64006800D01*
X96822197Y-64006800D02*
X97327273Y-64040472D01*
X97327273Y-64040472D02*
X97226258Y-64141487D01*
X97226258Y-64141487D02*
X97192586Y-64242502D01*
X97192586Y-64242502D02*
X97192586Y-64309846D01*
X97192586Y-64309846D02*
X97226258Y-64410861D01*
X97226258Y-64410861D02*
X97394617Y-64579220D01*
X97394617Y-64579220D02*
X97495632Y-64612891D01*
X97495632Y-64612891D02*
X97562975Y-64612891D01*
X97562975Y-64612891D02*
X97663991Y-64579220D01*
X97663991Y-64579220D02*
X97866021Y-64377189D01*
X97866021Y-64377189D02*
X97899693Y-64276174D01*
X97899693Y-64276174D02*
X97899693Y-64208830D01*
X125092857Y-78384819D02*
X125426190Y-77908628D01*
X125664285Y-78384819D02*
X125664285Y-77384819D01*
X125664285Y-77384819D02*
X125283333Y-77384819D01*
X125283333Y-77384819D02*
X125188095Y-77432438D01*
X125188095Y-77432438D02*
X125140476Y-77480057D01*
X125140476Y-77480057D02*
X125092857Y-77575295D01*
X125092857Y-77575295D02*
X125092857Y-77718152D01*
X125092857Y-77718152D02*
X125140476Y-77813390D01*
X125140476Y-77813390D02*
X125188095Y-77861009D01*
X125188095Y-77861009D02*
X125283333Y-77908628D01*
X125283333Y-77908628D02*
X125664285Y-77908628D01*
X124140476Y-78384819D02*
X124711904Y-78384819D01*
X124426190Y-78384819D02*
X124426190Y-77384819D01*
X124426190Y-77384819D02*
X124521428Y-77527676D01*
X124521428Y-77527676D02*
X124616666Y-77622914D01*
X124616666Y-77622914D02*
X124711904Y-77670533D01*
X123664285Y-78384819D02*
X123473809Y-78384819D01*
X123473809Y-78384819D02*
X123378571Y-78337200D01*
X123378571Y-78337200D02*
X123330952Y-78289580D01*
X123330952Y-78289580D02*
X123235714Y-78146723D01*
X123235714Y-78146723D02*
X123188095Y-77956247D01*
X123188095Y-77956247D02*
X123188095Y-77575295D01*
X123188095Y-77575295D02*
X123235714Y-77480057D01*
X123235714Y-77480057D02*
X123283333Y-77432438D01*
X123283333Y-77432438D02*
X123378571Y-77384819D01*
X123378571Y-77384819D02*
X123569047Y-77384819D01*
X123569047Y-77384819D02*
X123664285Y-77432438D01*
X123664285Y-77432438D02*
X123711904Y-77480057D01*
X123711904Y-77480057D02*
X123759523Y-77575295D01*
X123759523Y-77575295D02*
X123759523Y-77813390D01*
X123759523Y-77813390D02*
X123711904Y-77908628D01*
X123711904Y-77908628D02*
X123664285Y-77956247D01*
X123664285Y-77956247D02*
X123569047Y-78003866D01*
X123569047Y-78003866D02*
X123378571Y-78003866D01*
X123378571Y-78003866D02*
X123283333Y-77956247D01*
X123283333Y-77956247D02*
X123235714Y-77908628D01*
X123235714Y-77908628D02*
X123188095Y-77813390D01*
D11*
%TO.C,R9*%
X105577064Y-73302500D02*
X105122936Y-73302500D01*
X105577064Y-74772500D02*
X105122936Y-74772500D01*
%TO.C,R15*%
X123840835Y-85107218D02*
X123519718Y-85428335D01*
X124880282Y-86146665D02*
X124559165Y-86467782D01*
%TO.C,R23*%
X92190835Y-62169718D02*
X91869718Y-62490835D01*
X93230282Y-63209165D02*
X92909165Y-63530282D01*
%TO.C,R22*%
X93740835Y-63669718D02*
X93419718Y-63990835D01*
X94780282Y-64709165D02*
X94459165Y-65030282D01*
%TO.C,C7*%
X115092164Y-72439999D02*
X115307836Y-72440000D01*
X115092164Y-73160000D02*
X115307836Y-73160001D01*
%TO.C,C19*%
X87445000Y-70852080D02*
X87445000Y-68132080D01*
X89055000Y-68132080D02*
X89055000Y-70852080D01*
X89055000Y-70852080D02*
X87445000Y-70852080D01*
%TO.C,C1*%
X111657836Y-79290000D02*
X111442164Y-79289999D01*
X111657836Y-80010001D02*
X111442164Y-80010000D01*
%TO.C,C5*%
X121057836Y-79140000D02*
X120842164Y-79139999D01*
X121057836Y-79860001D02*
X120842164Y-79860000D01*
%TO.C,R16*%
X125272936Y-82202500D02*
X125727064Y-82202500D01*
X125272936Y-83672500D02*
X125727064Y-83672500D01*
%TO.C,J5*%
X79283329Y-80061762D02*
X85120588Y-75163721D01*
X80256206Y-79245422D02*
X86786928Y-87028433D01*
X85120588Y-75163721D02*
X91651310Y-82946732D01*
X85814051Y-87844774D02*
X79283329Y-80061762D01*
X91651310Y-82946732D02*
X85814051Y-87844774D01*
%TO.C,R6*%
X102927064Y-79092500D02*
X102472936Y-79092500D01*
X102927064Y-80562500D02*
X102472936Y-80562500D01*
%TO.C,J3*%
X115040000Y-63810000D02*
X115040000Y-69690000D01*
X117010000Y-62640000D02*
X118160000Y-62640000D01*
X117010000Y-70860000D02*
X118160000Y-70860000D01*
X118160000Y-62640000D02*
X118160000Y-63690000D01*
X118160000Y-63690000D02*
X119150000Y-63690000D01*
X118160000Y-70860000D02*
X118160000Y-69810000D01*
%TO.C,U4*%
X104445426Y-59353058D02*
X104514887Y-58959133D01*
X107258525Y-43399171D02*
X107189068Y-43793094D01*
X120399313Y-62166157D02*
X104445426Y-59353058D01*
X120468770Y-61772234D02*
X120399313Y-62166157D01*
X123212412Y-46212270D02*
X107258525Y-43399171D01*
X123964785Y-46206837D02*
X123670088Y-46496057D01*
X123492077Y-46123486D01*
X123964785Y-46206837D01*
G36*
X123964785Y-46206837D02*
G01*
X123670088Y-46496057D01*
X123492077Y-46123486D01*
X123964785Y-46206837D01*
G37*
%TO.C,D3*%
X93461665Y-66661621D02*
X90626167Y-69497119D01*
X93461665Y-66661621D02*
X94875879Y-68075835D01*
X94875879Y-68075835D02*
X92040381Y-70911333D01*
%TO.C,U1*%
X81050000Y-68362500D02*
X81050000Y-68137500D01*
X81050000Y-72137500D02*
X81050000Y-71612500D01*
X81050000Y-72137500D02*
X81575000Y-72137500D01*
X81515000Y-67837499D02*
X81290000Y-67837499D01*
X85350000Y-67837500D02*
X84825000Y-67837500D01*
X85350000Y-67837500D02*
X85350000Y-68362500D01*
X85350000Y-72137500D02*
X84825000Y-72137500D01*
X85350000Y-72137500D02*
X85350000Y-71612500D01*
X81050000Y-67837500D02*
X80720000Y-68077500D01*
X80720000Y-67597500D01*
X81050000Y-67837500D01*
G36*
X81050000Y-67837500D02*
G01*
X80720000Y-68077500D01*
X80720000Y-67597500D01*
X81050000Y-67837500D01*
G37*
%TO.C,R5*%
X104277064Y-76842500D02*
X103822936Y-76842500D01*
X104277064Y-78312500D02*
X103822936Y-78312500D01*
%TO.C,C11*%
X121107836Y-78040000D02*
X120892164Y-78040000D01*
X121107836Y-78760000D02*
X120892164Y-78760000D01*
%TO.C,C6*%
X121105178Y-74116957D02*
X121281847Y-73993253D01*
X121518153Y-74706747D02*
X121694822Y-74583043D01*
%TO.C,C2*%
X112407836Y-70640000D02*
X112192164Y-70639999D01*
X112407836Y-71360001D02*
X112192164Y-71360000D01*
%TO.C,R13*%
X95340835Y-65057218D02*
X95019718Y-65378335D01*
X96380282Y-66096665D02*
X96059165Y-66417782D01*
%TO.C,R19*%
X124603641Y-78720000D02*
X124296359Y-78720000D01*
X124603641Y-79480000D02*
X124296359Y-79480000D01*
%TD*%
%LPC*%
D12*
%TO.C,J8*%
X89878606Y-58416978D03*
D13*
X90521393Y-59183022D03*
%TD*%
D14*
%TO.C,M2*%
X106650000Y-86650000D03*
%TD*%
D15*
%TO.C,J1*%
X92799818Y-47605449D03*
D16*
X87708650Y-52696617D03*
D17*
X88337975Y-41884954D03*
X92290702Y-46346798D03*
X86450000Y-52187500D03*
X81988156Y-48234773D03*
%TD*%
D14*
%TO.C,REF\u002A\u002A*%
X112050000Y-40850000D03*
%TD*%
%TO.C,M2*%
X128900000Y-56800000D03*
%TD*%
D18*
%TO.C,J7*%
X98050000Y-40900000D03*
D13*
X97050000Y-40900000D03*
X96050000Y-40900000D03*
%TD*%
D18*
%TO.C,J10*%
X118650000Y-42650000D03*
D13*
X117650000Y-42650000D03*
X116650000Y-42650000D03*
X115650000Y-42650000D03*
%TD*%
D19*
%TO.C,J2*%
X99450000Y-46660000D03*
D20*
X96910000Y-44120000D03*
X96910000Y-49200000D03*
X101990000Y-44120000D03*
X101990000Y-49200000D03*
%TD*%
D14*
%TO.C,REF\u002A\u002A*%
X79550000Y-55500000D03*
%TD*%
D18*
%TO.C,U3*%
X111399999Y-89100000D03*
D13*
X112399999Y-89099999D03*
X113400000Y-89100000D03*
X114399999Y-89100000D03*
X115399999Y-89100000D03*
%TD*%
D18*
%TO.C,J9*%
X113900000Y-91600000D03*
D13*
X112900000Y-91599999D03*
%TD*%
D18*
%TO.C,J4*%
X98150000Y-68500000D03*
D13*
X97150000Y-68500000D03*
%TD*%
D18*
%TO.C,J6*%
X121400000Y-81200000D03*
D13*
X122400000Y-81200000D03*
X121400000Y-82200000D03*
X122400000Y-82200000D03*
X121400000Y-83200000D03*
X122400000Y-83200000D03*
%TD*%
D21*
%TO.C,R9*%
X106262500Y-74037500D03*
X104437500Y-74037500D03*
%TD*%
D22*
%TO.C,R15*%
X124845234Y-85142265D03*
X123554766Y-86432735D03*
%TD*%
%TO.C,R23*%
X93195235Y-62204765D03*
X91904765Y-63495235D03*
%TD*%
%TO.C,R22*%
X94745235Y-63704765D03*
X93454765Y-64995235D03*
%TD*%
D23*
%TO.C,C7*%
X114720000Y-72800000D03*
X115680000Y-72800000D03*
%TD*%
D24*
%TO.C,C19*%
X88250000Y-70022080D03*
X88250000Y-68242080D03*
%TD*%
D25*
%TO.C,C1*%
X112030000Y-79650000D03*
X111070000Y-79650000D03*
%TD*%
%TO.C,C5*%
X121430000Y-79500000D03*
X120470000Y-79500000D03*
%TD*%
D26*
%TO.C,R16*%
X124587500Y-82937500D03*
X126412500Y-82937500D03*
%TD*%
D27*
%TO.C,J5*%
X87100000Y-83450000D03*
D28*
X83834639Y-79558494D03*
%TD*%
D21*
%TO.C,R6*%
X103612500Y-79827500D03*
X101787500Y-79827500D03*
%TD*%
D29*
%TO.C,J3*%
X118375000Y-64250000D03*
X118375000Y-65250000D03*
X118375000Y-66250000D03*
X118375000Y-67250000D03*
X118375000Y-68250000D03*
X118375000Y-69250000D03*
D30*
X115850000Y-62950000D03*
X115850000Y-70550000D03*
%TD*%
D31*
%TO.C,U4*%
X122455135Y-47195712D03*
X122107838Y-49165328D03*
X121760541Y-51134943D03*
X121413247Y-53104559D03*
X121065949Y-55074174D03*
X120718652Y-57043789D03*
X120371356Y-59013405D03*
X120024060Y-60983022D03*
X105202703Y-58369616D03*
X105550000Y-56400000D03*
X105897297Y-54430385D03*
X106244591Y-52460769D03*
X106591889Y-50491154D03*
X106939186Y-48521539D03*
X107286482Y-46551923D03*
X107633778Y-44582306D03*
%TD*%
D32*
%TO.C,D3*%
X93666726Y-67870774D03*
X91333274Y-70204226D03*
%TD*%
D33*
%TO.C,U1*%
X81950000Y-68037500D03*
X82450000Y-68037500D03*
X82950000Y-68037500D03*
X83450000Y-68037500D03*
X83950000Y-68037500D03*
X84450000Y-68037500D03*
D34*
X85150000Y-68737500D03*
X85150000Y-69237500D03*
X85150000Y-69737500D03*
X85150000Y-70237500D03*
X85150000Y-70737500D03*
X85150000Y-71237500D03*
D33*
X84450000Y-71937500D03*
X83950000Y-71937500D03*
X83450000Y-71937500D03*
X82950000Y-71937500D03*
X82450000Y-71937500D03*
X81950000Y-71937500D03*
D34*
X81250000Y-71237500D03*
X81250000Y-70737500D03*
X81250000Y-70237500D03*
X81250000Y-69737500D03*
X81250000Y-69237500D03*
X81250000Y-68737500D03*
%TD*%
D21*
%TO.C,R5*%
X104962500Y-77577500D03*
X103137500Y-77577500D03*
%TD*%
D25*
%TO.C,C11*%
X121480000Y-78400000D03*
X120520000Y-78400000D03*
%TD*%
D35*
%TO.C,C6*%
X121006807Y-74625317D03*
X121793193Y-74074683D03*
%TD*%
D25*
%TO.C,C2*%
X112780000Y-71000000D03*
X111820000Y-71000000D03*
%TD*%
D22*
%TO.C,R13*%
X96345235Y-65092265D03*
X95054765Y-66382735D03*
%TD*%
D36*
%TO.C,R19*%
X124960000Y-79100000D03*
X123940000Y-79100000D03*
%TD*%
%LPD*%
M02*
